<svg width="1346" height="838" viewBox="0 0 1346 838" fill="none" xmlns="http://www.w3.org/2000/svg">
<g clip-path="url(#clip0_2_2)">
<path fill-rule="evenodd" clip-rule="evenodd" d="M813.3 522.9C814.957 522.9 816.3 524.244 816.3 525.9C816.3 527.498 815.051 528.804 813.476 528.895L813.3 528.9H365.6C363.943 528.9 362.6 527.557 362.6 525.9C362.6 524.303 363.849 522.997 365.424 522.905L365.6 522.9H813.3Z" fill="#8AAEE7"/>
<path fill-rule="evenodd" clip-rule="evenodd" d="M813.3 469.4C814.957 469.4 816.3 470.744 816.3 472.4C816.3 473.998 815.051 475.304 813.476 475.395L813.3 475.4H365.6C363.943 475.4 362.6 474.057 362.6 472.4C362.6 470.803 363.849 469.497 365.424 469.405L365.6 469.4H813.3Z" fill="#8AAEE7"/>
<path fill-rule="evenodd" clip-rule="evenodd" d="M813.3 415.9C814.957 415.9 816.3 417.244 816.3 418.9C816.3 420.498 815.051 421.804 813.476 421.895L813.3 421.9H365.6C363.943 421.9 362.6 420.557 362.6 418.9C362.6 417.303 363.849 415.997 365.424 415.905L365.6 415.9H813.3Z" fill="#8AAEE7"/>
<path fill-rule="evenodd" clip-rule="evenodd" d="M813.3 362.4C814.957 362.4 816.3 363.744 816.3 365.4C816.3 366.998 815.051 368.304 813.476 368.395L813.3 368.4H365.6C363.943 368.4 362.6 367.057 362.6 365.4C362.6 363.803 363.849 362.497 365.424 362.405L365.6 362.4H813.3Z" fill="#8AAEE7"/>
<path d="M675.005 330.966L612.311 331.607L614.808 575.782L677.502 575.141L675.005 330.966Z" fill="#042A64"/>
<path d="M782.247 418.557L719.153 419.202L720.754 575.787L783.848 575.142L782.247 418.557Z" fill="#042A64"/>
<path d="M570.358 418.558L507.264 419.203L508.865 575.788L571.959 575.143L570.358 418.558Z" fill="#042A64"/>
<path fill-rule="evenodd" clip-rule="evenodd" d="M466.9 575.202L404.1 575.802L403.2 500.802L465.9 500.102L466.9 575.202Z" fill="#042A64"/>
<path fill-rule="evenodd" clip-rule="evenodd" d="M365.6 309.801C367.198 309.801 368.504 311.05 368.595 312.625L368.6 312.801V572.801H813.3C814.898 572.801 816.204 574.05 816.295 575.625L816.3 575.801C816.3 577.398 815.051 578.704 813.476 578.796L813.3 578.801H365.6C364.002 578.801 362.696 577.552 362.605 575.977L362.6 575.801V312.801C362.6 311.144 363.943 309.801 365.6 309.801Z" fill="#3077E5"/>
<path fill-rule="evenodd" clip-rule="evenodd" d="M450.4 588.4C452.057 588.4 453.4 589.744 453.4 591.4C453.4 592.998 452.151 594.304 450.576 594.395L450.4 594.4H413.5C411.843 594.4 410.5 593.057 410.5 591.4C410.5 589.803 411.749 588.497 413.324 588.405L413.5 588.4H450.4Z" fill="#042A64"/>
<path fill-rule="evenodd" clip-rule="evenodd" d="M558.3 588.4C559.957 588.4 561.3 589.744 561.3 591.4C561.3 592.998 560.051 594.304 558.476 594.395L558.3 594.4H521.5C519.843 594.4 518.5 593.057 518.5 591.4C518.5 589.803 519.749 588.497 521.324 588.405L521.5 588.4H558.3Z" fill="#042A64"/>
<path fill-rule="evenodd" clip-rule="evenodd" d="M664.1 588.4C665.757 588.4 667.1 589.744 667.1 591.4C667.1 592.998 665.851 594.304 664.277 594.395L664.1 594.4H627.3C625.643 594.4 624.3 593.057 624.3 591.4C624.3 589.803 625.549 588.497 627.124 588.405L627.3 588.4H664.1Z" fill="#042A64"/>
<path fill-rule="evenodd" clip-rule="evenodd" d="M770.2 588.4C771.857 588.4 773.2 589.744 773.2 591.4C773.2 592.998 771.951 594.304 770.377 594.395L770.2 594.4H733.3C731.643 594.4 730.3 593.057 730.3 591.4C730.3 589.803 731.549 588.497 733.124 588.405L733.3 588.4H770.2Z" fill="#042A64"/>
<path fill-rule="evenodd" clip-rule="evenodd" d="M347.1 361.101C348.698 361.101 350.004 362.35 350.095 363.924L350.1 364.101V370.501C350.1 372.157 348.757 373.501 347.1 373.501C345.502 373.501 344.196 372.252 344.105 370.677L344.1 370.501V364.101C344.1 362.444 345.443 361.101 347.1 361.101Z" fill="#3077E5"/>
<path fill-rule="evenodd" clip-rule="evenodd" d="M347.1 412.701C348.698 412.701 350.004 413.95 350.095 415.525L350.1 415.701V422.101C350.1 423.758 348.757 425.101 347.1 425.101C345.502 425.101 344.196 423.852 344.105 422.277L344.1 422.101V415.701C344.1 414.044 345.443 412.701 347.1 412.701Z" fill="#3077E5"/>
<path fill-rule="evenodd" clip-rule="evenodd" d="M347.1 469.4C348.698 469.4 350.004 470.649 350.095 472.224L350.1 472.4V478.8C350.1 480.457 348.757 481.8 347.1 481.8C345.502 481.8 344.196 480.551 344.105 478.977L344.1 478.8V472.4C344.1 470.744 345.443 469.4 347.1 469.4Z" fill="#3077E5"/>
<path fill-rule="evenodd" clip-rule="evenodd" d="M347.1 522.9C348.698 522.9 350.004 524.149 350.095 525.724L350.1 525.9V532.3C350.1 533.957 348.757 535.3 347.1 535.3C345.502 535.3 344.196 534.051 344.105 532.477L344.1 532.3V525.9C344.1 524.244 345.443 522.9 347.1 522.9Z" fill="#3077E5"/>
<path fill-rule="evenodd" clip-rule="evenodd" d="M1064.4 252.5C1044.8 285.7 1008.6 308 967.201 308C904.901 308 854.401 257.5 854.401 195.2C854.401 132.9 904.901 82.4002 967.201 82.4002C1002.5 82.4002 1034.1 98.6002 1054.7 124.1L1110.6 81.5002C1077.1 39.3002 1025.3 12.2002 967.201 12.2002C866.101 12.2002 784.101 94.2002 784.101 195.3C784.101 296.4 866.101 378.4 967.201 378.4C1039.4 378.4 1101.8 336.6 1131.6 275.9L1064.4 252.5Z" fill="#233F94"/>
<path fill-rule="evenodd" clip-rule="evenodd" d="M1144.4 261.2C1153 244.3 1158.7 225.5 1160.6 205.5C1164.5 165.8 1153 128.1 1131 98.2998L1075.5 132.7C1090.4 150.6 1098.3 174.2 1095.9 199.2C1094.7 211.9 1090.9 223.6 1085.1 234.1L1144.4 261.2Z" fill="#72A3EE"/>
<path fill-rule="evenodd" clip-rule="evenodd" d="M844.1 277.8C845.757 277.8 847.1 279.143 847.1 280.8C847.1 282.397 845.851 283.703 844.277 283.795L844.1 283.8H740.4C738.744 283.8 737.4 282.457 737.4 280.8C737.4 279.202 738.649 277.896 740.224 277.805L740.4 277.8H844.1Z" fill="#3077E5"/>
<path fill-rule="evenodd" clip-rule="evenodd" d="M1226.2 135.3C1227.86 135.3 1229.2 136.643 1229.2 138.3C1229.2 139.897 1227.95 141.203 1226.38 141.295L1226.2 141.3H1132.5C1130.84 141.3 1129.5 139.957 1129.5 138.3C1129.5 136.702 1130.75 135.396 1132.32 135.305L1132.5 135.3H1226.2Z" fill="#3077E5"/>
<path fill-rule="evenodd" clip-rule="evenodd" d="M777.9 292.5C779.557 292.5 780.9 293.843 780.9 295.5C780.9 297.098 779.651 298.404 778.077 298.495L777.9 298.5H740.4C738.744 298.5 737.4 297.157 737.4 295.5C737.4 293.902 738.649 292.596 740.224 292.505L740.4 292.5H777.9Z" fill="#3077E5"/>
<path fill-rule="evenodd" clip-rule="evenodd" d="M1226.2 146C1227.86 146 1229.2 147.343 1229.2 149C1229.2 150.598 1227.95 151.904 1226.38 151.995L1226.2 152H1188.8C1187.14 152 1185.8 150.657 1185.8 149C1185.8 147.402 1187.05 146.096 1188.62 146.005L1188.8 146H1226.2Z" fill="#3077E5"/>
<path fill-rule="evenodd" clip-rule="evenodd" d="M967.3 307.9C987 307.9 1005.5 302.9 1021.6 294L1027.1 186L924.5 184L928.4 175.5L858 167.1C855.7 176.1 854.5 185.4 854.5 195.1C854.5 257.4 905 307.9 967.3 307.9Z" fill="#042A64"/>
<path fill-rule="evenodd" clip-rule="evenodd" d="M788.9 153.7L687.5 118.5L652.4 179.5L788.6 235.4C785.7 222.4 784.1 209 784.1 195.1C784.2 180.9 785.9 167 788.9 153.7Z" fill="#042A64"/>
<path fill-rule="evenodd" clip-rule="evenodd" d="M725.2 102.801C725.2 102.801 746.8 103.201 745.2 94.4005C743.6 85.6005 724.8 92.9005 703 80.9005C685.9 71.5005 632.5 76.9005 635.8 118.901C638.6 155.101 677.4 189.501 677.4 189.501L747.9 179.701C747.9 179.701 697.3 133.801 708.9 127.001C720.5 120.201 725.2 102.801 725.2 102.801Z" fill="white"/>
<path fill-rule="evenodd" clip-rule="evenodd" d="M660.734 77.8031C642.287 84.4417 631.423 98.4215 632.765 118.521L632.809 119.132C634.046 135.129 641.875 151.707 654.118 168.08C658.766 174.295 663.74 180.051 668.716 185.21L669.747 186.271C670.932 187.479 672.053 188.587 673.096 189.588L674.127 190.566L675.122 191.486C675.251 191.603 675.347 191.69 675.41 191.746C676.066 192.328 676.944 192.593 677.813 192.472L748.313 182.672C750.834 182.322 751.801 179.189 749.916 177.479L748.192 175.891L746.76 174.553C745.771 173.625 744.718 172.627 743.612 171.567C738.873 167.026 734.135 162.291 729.719 157.607C727.562 155.318 725.532 153.095 723.652 150.953L722.685 149.844C717.772 144.162 714.117 139.263 712.03 135.429C710.894 133.343 710.279 131.662 710.184 130.521C710.134 129.912 710.182 129.746 710.368 129.62L710.417 129.589C714.868 126.98 718.623 122.918 721.778 117.818C723.704 114.707 725.292 111.393 726.571 108.082L726.713 107.713C726.897 107.228 727.065 106.77 727.216 106.343L727.413 105.773L727.621 105.768C728.155 105.749 728.71 105.724 729.281 105.691C731.918 105.536 734.496 105.235 736.872 104.746C740.046 104.093 742.667 103.146 744.628 101.776C747.366 99.8637 748.743 97.118 748.152 93.8642C747.601 90.8374 745.681 88.8198 742.675 87.6752L742.248 87.5194C740.451 86.8935 738.421 86.548 734.87 86.1635L728.93 85.5343C725.071 85.1036 723.465 84.8329 720.502 84.196C715.114 83.0375 710.091 81.2809 705.182 78.6707L704.447 78.2727C694.495 72.8019 675.759 72.3962 660.734 77.8031ZM701.555 83.5298C707.236 86.6571 713.038 88.7283 719.241 90.0619L720.691 90.3662C723.726 90.9836 725.758 91.2446 731.525 91.847L734.112 92.1171C740.348 92.7965 741.982 93.469 742.249 94.9375C742.521 96.4346 740.445 97.8849 735.663 98.8695C733.603 99.2935 731.3 99.562 728.93 99.7008C728.236 99.7415 727.569 99.769 726.939 99.7854L726.265 99.7989L725.243 99.8012C723.872 99.7815 722.662 100.694 722.304 102.019L722.152 102.539C722.107 102.684 722.055 102.852 721.994 103.042C721.718 103.906 721.378 104.874 720.975 105.919C719.82 108.907 718.389 111.893 716.676 114.661C714.097 118.829 711.122 122.1 707.785 124.17L707.383 124.413C702.928 127.024 703.341 132.018 706.76 138.298C709.24 142.853 713.472 148.45 719.143 154.911C721.072 157.109 723.149 159.385 725.353 161.723C729.846 166.488 734.654 171.292 739.461 175.899L740.564 176.952L741.242 177.597L678.386 186.334L677.865 185.844L677.673 185.663C676.276 184.334 674.717 182.789 673.035 181.045C668.223 176.056 663.41 170.487 658.923 164.487C647.478 149.181 640.153 133.806 638.848 119.343L638.791 118.666C637.415 101.15 646.512 89.298 662.766 83.4486C676.271 78.5888 693.235 78.9561 701.555 83.5298Z" fill="#3077E5"/>
<path d="M765.2 111.801H307.2V216.101H765.2V111.801Z" fill="#72A3EE"/>
<path fill-rule="evenodd" clip-rule="evenodd" d="M360.6 193.901C377.114 193.901 390.5 180.514 390.5 164.001C390.5 147.487 377.114 134.101 360.6 134.101C344.087 134.101 330.7 147.487 330.7 164.001C330.7 180.514 344.087 193.901 360.6 193.901Z" fill="white"/>
<path fill-rule="evenodd" clip-rule="evenodd" d="M721.3 139.101C722.957 139.101 724.3 140.444 724.3 142.101C724.3 143.698 723.051 145.004 721.476 145.095L721.3 145.101H432.1C430.443 145.101 429.1 143.757 429.1 142.101C429.1 140.503 430.349 139.197 431.924 139.106L432.1 139.101H721.3Z" fill="white"/>
<path fill-rule="evenodd" clip-rule="evenodd" d="M721.3 155.101C722.957 155.101 724.3 156.444 724.3 158.101C724.3 159.698 723.051 161.004 721.476 161.095L721.3 161.101H432.1C430.443 161.101 429.1 159.757 429.1 158.101C429.1 156.503 430.349 155.197 431.924 155.106L432.1 155.101H721.3Z" fill="white"/>
<path fill-rule="evenodd" clip-rule="evenodd" d="M721.3 171.101C722.957 171.101 724.3 172.444 724.3 174.101C724.3 175.698 723.051 177.004 721.476 177.095L721.3 177.101H432.1C430.443 177.101 429.1 175.757 429.1 174.101C429.1 172.503 430.349 171.197 431.924 171.106L432.1 171.101H721.3Z" fill="white"/>
<path fill-rule="evenodd" clip-rule="evenodd" d="M552.7 187.101C554.357 187.101 555.7 188.444 555.7 190.101C555.7 191.698 554.451 193.004 552.876 193.095L552.7 193.101H432.1C430.443 193.101 429.1 191.757 429.1 190.101C429.1 188.503 430.349 187.197 431.924 187.106L432.1 187.101H552.7Z" fill="white"/>
<path fill-rule="evenodd" clip-rule="evenodd" d="M704 81.4014C720.1 87.8014 738.9 108.101 740.3 112.001C741.8 116.001 737.1 122.501 730.7 116.701C724.2 110.901 712.7 98.2014 712.7 98.2014C720.3 109.301 729.2 123.601 729.3 126.701C729.3 131.401 721.1 133.301 716.1 125.601L701.2 104.201C701.2 104.201 715.6 129.901 716.3 133.701C717 137.501 708.3 143.401 700.3 126.901C692.3 110.401 690.6 110.201 690.6 110.201C690.6 110.201 699.4 130.701 700.2 135.301C701 139.901 685.5 141.001 679.8 119.801C679.8 119.801 668.8 127.901 659.7 112.601" fill="white"/>
<path fill-rule="evenodd" clip-rule="evenodd" d="M701.212 80.293C701.824 78.7533 703.569 78.0013 705.108 78.6134C712.752 81.6519 721.403 87.7716 729.698 95.435L730.42 96.1062C736.869 102.153 742.167 108.322 743.109 110.948C744.329 114.2 743.11 118.197 740.312 120.388C737.308 122.741 733.351 122.538 729.71 119.777L729.644 119.725L729.759 119.948C731.292 122.945 732.199 125.238 732.293 126.571L732.3 126.701C732.3 130.767 728.913 133.641 724.687 133.799C722.835 133.868 720.977 133.432 719.239 132.54L719.073 132.452L719.089 132.504C719.147 132.701 719.193 132.879 719.227 133.04L719.251 133.158C720.006 137.261 716.128 141.082 711.453 140.912C708.626 140.809 705.853 139.401 703.256 136.719L703.145 136.602L703.105 136.791C702.673 138.587 701.197 139.964 699.225 140.609L698.995 140.68C696.769 141.332 694.026 141.096 691.321 140.011C685.849 137.816 681.17 132.614 678.213 124.69L677.977 124.041L677.833 124.094C672.703 125.893 667.111 125.14 662.015 120.378L661.716 120.094C660.077 118.505 658.543 116.525 657.122 114.135C656.275 112.711 656.743 110.87 658.167 110.023C659.591 109.176 661.432 109.644 662.279 111.068C663.439 113.018 664.648 114.58 665.891 115.785C669.54 119.321 673.155 119.633 676.644 118.12C677.276 117.846 677.73 117.585 677.955 117.432L678.021 117.385C679.722 116.133 682.149 116.983 682.697 119.022C684.99 127.548 689.056 132.637 693.555 134.442C694.886 134.976 696.11 135.134 696.965 134.998L697.05 134.981L696.886 134.409C696.331 132.552 695.219 129.492 693.707 125.636L692.918 123.642L692.645 122.961C691.805 120.868 690.916 118.7 690.018 116.542L688.254 112.348L687.843 111.385C686.933 109.264 688.658 106.952 690.951 107.222L691.121 107.248C693.426 107.694 696.23 111.79 702.106 123.761L703 125.592C706.121 132.031 709.282 134.829 711.672 134.916C712.294 134.938 712.792 134.744 713.115 134.425C713.201 134.341 713.264 134.256 713.304 134.183L713.325 134.136L713.319 134.11C712.968 132.801 710.514 127.76 706.928 120.983L706.116 119.454C704.94 117.247 703.702 114.959 702.447 112.664L700.167 108.516L698.583 105.668C696.749 102.395 701.34 99.4524 703.56 102.347L703.662 102.487L718.616 123.967C720.35 126.637 722.542 127.875 724.463 127.803C725.698 127.757 726.3 127.246 726.302 126.798C726.28 126.112 724.329 122.179 721.235 116.987L720.392 115.584C717.502 110.818 713.849 105.189 710.225 99.896C708.146 96.8593 712.284 93.5212 714.807 96.064L716.801 98.2392C717.17 98.6404 717.558 99.0597 717.961 99.4946C720.263 101.979 722.607 104.463 724.851 106.778L726.016 107.974L727.309 109.285C729.409 111.399 731.233 113.156 732.715 114.478C734.594 116.181 735.787 116.312 736.613 115.664C737.39 115.056 737.772 113.803 737.477 113.015C737.299 112.521 736.07 110.81 734.24 108.678L734.034 108.439C731.749 105.802 728.809 102.781 725.627 99.8423C717.825 92.6349 709.727 86.906 702.892 84.189C701.352 83.577 700.6 81.8327 701.212 80.293Z" fill="#3077E5"/>
<path fill-rule="evenodd" clip-rule="evenodd" d="M924.9 511V523C924.9 524.657 926.244 526 927.9 526C929.557 526 930.9 524.657 930.9 523V511C930.9 509.343 929.557 508 927.9 508C926.244 508 924.9 509.343 924.9 511ZM924.9 535V547C924.9 548.657 926.244 550 927.9 550C929.557 550 930.9 548.657 930.9 547V535C930.9 533.343 929.557 532 927.9 532C926.244 532 924.9 533.343 924.9 535ZM924.9 559V571C924.9 572.657 926.244 574 927.9 574C929.557 574 930.9 572.657 930.9 571V559C930.9 557.343 929.557 556 927.9 556C926.244 556 924.9 557.343 924.9 559ZM924.9 583V595C924.9 596.657 926.244 598 927.9 598C929.557 598 930.9 596.657 930.9 595V583C930.9 581.343 929.557 580 927.9 580C926.244 580 924.9 581.343 924.9 583ZM924.9 607V619C924.9 620.657 926.244 622 927.9 622C929.557 622 930.9 620.657 930.9 619V607C930.9 605.343 929.557 604 927.9 604C926.244 604 924.9 605.343 924.9 607ZM924.9 631V643C924.9 644.657 926.244 646 927.9 646C929.557 646 930.9 644.657 930.9 643V631C930.9 629.343 929.557 628 927.9 628C926.244 628 924.9 629.343 924.9 631ZM924.9 655V667C924.9 668.657 926.244 670 927.9 670C929.557 670 930.9 668.657 930.9 667V655C930.9 653.343 929.557 652 927.9 652C926.244 652 924.9 653.343 924.9 655ZM924.9 679V691C924.9 692.657 926.244 694 927.9 694C929.557 694 930.9 692.657 930.9 691V679C930.9 677.343 929.557 676 927.9 676C926.244 676 924.9 677.343 924.9 679ZM924.9 703V715C924.9 716.657 926.244 718 927.9 718C929.557 718 930.9 716.657 930.9 715V703C930.9 701.343 929.557 700 927.9 700C926.244 700 924.9 701.343 924.9 703ZM924.9 727V739C924.9 740.657 926.244 742 927.9 742C929.557 742 930.9 740.657 930.9 739V727C930.9 725.343 929.557 724 927.9 724C926.244 724 924.9 725.343 924.9 727ZM924.9 751V763C924.9 764.657 926.244 766 927.9 766C929.557 766 930.9 764.657 930.9 763V751C930.9 749.343 929.557 748 927.9 748C926.244 748 924.9 749.343 924.9 751ZM924.9 775V787C924.9 788.657 926.244 790 927.9 790C929.557 790 930.9 788.657 930.9 787V775C930.9 773.343 929.557 772 927.9 772C926.244 772 924.9 773.343 924.9 775ZM924.9 799V811C924.9 812.657 926.244 814 927.9 814C929.557 814 930.9 812.657 930.9 811V799C930.9 797.343 929.557 796 927.9 796C926.244 796 924.9 797.343 924.9 799ZM924.9 823V833.5C924.9 835.157 926.244 836.5 927.9 836.5C929.557 836.5 930.9 835.157 930.9 833.5V823C930.9 821.343 929.557 820 927.9 820C926.244 820 924.9 821.343 924.9 823Z" fill="#042A64"/>
<path fill-rule="evenodd" clip-rule="evenodd" d="M772.6 679.4V691.4C772.6 693.057 773.943 694.4 775.6 694.4C777.257 694.4 778.6 693.057 778.6 691.4V679.4C778.6 677.744 777.257 676.4 775.6 676.4C773.943 676.4 772.6 677.744 772.6 679.4ZM772.6 703.4V715.4C772.6 717.057 773.943 718.4 775.6 718.4C777.257 718.4 778.6 717.057 778.6 715.4V703.4C778.6 701.744 777.257 700.4 775.6 700.4C773.943 700.4 772.6 701.744 772.6 703.4ZM772.6 727.4V739.4C772.6 741.057 773.943 742.4 775.6 742.4C777.257 742.4 778.6 741.057 778.6 739.4V727.4C778.6 725.744 777.257 724.4 775.6 724.4C773.943 724.4 772.6 725.744 772.6 727.4ZM772.6 751.4V763.4C772.6 765.057 773.943 766.4 775.6 766.4C777.257 766.4 778.6 765.057 778.6 763.4V751.4C778.6 749.744 777.257 748.4 775.6 748.4C773.943 748.4 772.6 749.744 772.6 751.4ZM772.6 775.4V787.4C772.6 789.057 773.943 790.4 775.6 790.4C777.257 790.4 778.6 789.057 778.6 787.4V775.4C778.6 773.744 777.257 772.4 775.6 772.4C773.943 772.4 772.6 773.744 772.6 775.4ZM772.6 799.4V811.4C772.6 813.057 773.943 814.4 775.6 814.4C777.257 814.4 778.6 813.057 778.6 811.4V799.4C778.6 797.744 777.257 796.4 775.6 796.4C773.943 796.4 772.6 797.744 772.6 799.4ZM772.6 823.4V833.5C772.6 835.157 773.943 836.5 775.6 836.5C777.257 836.5 778.6 835.157 778.6 833.5V823.4C778.6 821.744 777.257 820.4 775.6 820.4C773.943 820.4 772.6 821.744 772.6 823.4Z" fill="#042A64"/>
<path fill-rule="evenodd" clip-rule="evenodd" d="M646 769.601V781.601C646 783.257 647.343 784.601 649 784.601C650.657 784.601 652 783.257 652 781.601V769.601C652 767.944 650.657 766.601 649 766.601C647.343 766.601 646 767.944 646 769.601ZM646 793.601V805.601C646 807.257 647.343 808.601 649 808.601C650.657 808.601 652 807.257 652 805.601V793.601C652 791.944 650.657 790.601 649 790.601C647.343 790.601 646 791.944 646 793.601ZM646 817.601V829.601C646 831.257 647.343 832.601 649 832.601C650.657 832.601 652 831.257 652 829.601V817.601C652 815.944 650.657 814.601 649 814.601C647.343 814.601 646 815.944 646 817.601Z" fill="#042A64"/>
<path fill-rule="evenodd" clip-rule="evenodd" d="M1099.2 443.8V455.8C1099.2 457.457 1100.54 458.8 1102.2 458.8C1103.86 458.8 1105.2 457.457 1105.2 455.8V443.8C1105.2 442.143 1103.86 440.8 1102.2 440.8C1100.54 440.8 1099.2 442.143 1099.2 443.8ZM1099.2 467.8V479.8C1099.2 481.457 1100.54 482.8 1102.2 482.8C1103.86 482.8 1105.2 481.457 1105.2 479.8V467.8C1105.2 466.143 1103.86 464.8 1102.2 464.8C1100.54 464.8 1099.2 466.143 1099.2 467.8ZM1099.2 491.8V503.8C1099.2 505.457 1100.54 506.8 1102.2 506.8C1103.86 506.8 1105.2 505.457 1105.2 503.8V491.8C1105.2 490.143 1103.86 488.8 1102.2 488.8C1100.54 488.8 1099.2 490.143 1099.2 491.8ZM1099.2 515.8V527.8C1099.2 529.457 1100.54 530.8 1102.2 530.8C1103.86 530.8 1105.2 529.457 1105.2 527.8V515.8C1105.2 514.143 1103.86 512.8 1102.2 512.8C1100.54 512.8 1099.2 514.143 1099.2 515.8ZM1099.2 539.8V551.8C1099.2 553.457 1100.54 554.8 1102.2 554.8C1103.86 554.8 1105.2 553.457 1105.2 551.8V539.8C1105.2 538.143 1103.86 536.8 1102.2 536.8C1100.54 536.8 1099.2 538.143 1099.2 539.8ZM1099.2 563.8V575.8C1099.2 577.457 1100.54 578.8 1102.2 578.8C1103.86 578.8 1105.2 577.457 1105.2 575.8V563.8C1105.2 562.143 1103.86 560.8 1102.2 560.8C1100.54 560.8 1099.2 562.143 1099.2 563.8ZM1099.2 587.8V599.8C1099.2 601.457 1100.54 602.8 1102.2 602.8C1103.86 602.8 1105.2 601.457 1105.2 599.8V587.8C1105.2 586.143 1103.86 584.8 1102.2 584.8C1100.54 584.8 1099.2 586.143 1099.2 587.8ZM1099.2 611.8V623.8C1099.2 625.457 1100.54 626.8 1102.2 626.8C1103.86 626.8 1105.2 625.457 1105.2 623.8V611.8C1105.2 610.143 1103.86 608.8 1102.2 608.8C1100.54 608.8 1099.2 610.143 1099.2 611.8ZM1099.2 635.8V647.8C1099.2 649.457 1100.54 650.8 1102.2 650.8C1103.86 650.8 1105.2 649.457 1105.2 647.8V635.8C1105.2 634.143 1103.86 632.8 1102.2 632.8C1100.54 632.8 1099.2 634.143 1099.2 635.8ZM1099.2 659.8V671.8C1099.2 673.457 1100.54 674.8 1102.2 674.8C1103.86 674.8 1105.2 673.457 1105.2 671.8V659.8C1105.2 658.143 1103.86 656.8 1102.2 656.8C1100.54 656.8 1099.2 658.143 1099.2 659.8ZM1099.2 683.8V695.8C1099.2 697.457 1100.54 698.8 1102.2 698.8C1103.86 698.8 1105.2 697.457 1105.2 695.8V683.8C1105.2 682.143 1103.86 680.8 1102.2 680.8C1100.54 680.8 1099.2 682.143 1099.2 683.8ZM1099.2 707.8V719.8C1099.2 721.457 1100.54 722.8 1102.2 722.8C1103.86 722.8 1105.2 721.457 1105.2 719.8V707.8C1105.2 706.143 1103.86 704.8 1102.2 704.8C1100.54 704.8 1099.2 706.143 1099.2 707.8ZM1099.2 731.8V743.8C1099.2 745.457 1100.54 746.8 1102.2 746.8C1103.86 746.8 1105.2 745.457 1105.2 743.8V731.8C1105.2 730.143 1103.86 728.8 1102.2 728.8C1100.54 728.8 1099.2 730.143 1099.2 731.8ZM1099.2 755.8V767.8C1099.2 769.457 1100.54 770.8 1102.2 770.8C1103.86 770.8 1105.2 769.457 1105.2 767.8V755.8C1105.2 754.143 1103.86 752.8 1102.2 752.8C1100.54 752.8 1099.2 754.143 1099.2 755.8ZM1099.2 779.8V791.8C1099.2 793.457 1100.54 794.8 1102.2 794.8C1103.86 794.8 1105.2 793.457 1105.2 791.8V779.8C1105.2 778.143 1103.86 776.8 1102.2 776.8C1100.54 776.8 1099.2 778.143 1099.2 779.8ZM1099.2 803.8V815.8C1099.2 817.457 1100.54 818.8 1102.2 818.8C1103.86 818.8 1105.2 817.457 1105.2 815.8V803.8C1105.2 802.143 1103.86 800.8 1102.2 800.8C1100.54 800.8 1099.2 802.143 1099.2 803.8ZM1099.2 827.8V833.5C1099.2 835.157 1100.54 836.5 1102.2 836.5C1103.86 836.5 1105.2 835.157 1105.2 833.5V827.8C1105.2 826.143 1103.86 824.8 1102.2 824.8C1100.54 824.8 1099.2 826.143 1099.2 827.8Z" fill="#042A64"/>
<path opacity="0.41" fill-rule="evenodd" clip-rule="evenodd" d="M1136.2 439.2C854.3 466.3 844.9 655.6 778.7 679.4C712.5 703.2 713.6 738 656.8 760.3C621.7 774.1 584.2 835.6 562.7 832.1L565.3 834.4H1137.1L1136.2 439.2Z" fill="#72A3EE"/>
<path fill-rule="evenodd" clip-rule="evenodd" d="M988.8 473.2C989.5 473.5 981.1 454.2 970.2 450.3C959.3 446.5 971.7 433.8 984 441.8C996.3 449.8 998.8 458.9 998.8 458.9" fill="white"/>
<path fill-rule="evenodd" clip-rule="evenodd" d="M966.513 439.293C971.388 435.348 979.042 434.997 985.636 439.285C987.004 440.175 988.294 441.101 989.507 442.06C993.804 445.457 996.991 449.125 999.227 452.821C1000.02 454.14 1000.65 455.377 1001.12 456.503C1001.41 457.216 1001.6 457.76 1001.69 458.105C1002.13 459.703 1001.19 461.354 999.595 461.793C998.054 462.216 996.464 461.358 995.959 459.864L995.876 459.597L995.857 459.542C995.788 459.339 995.695 459.093 995.576 458.808C995.221 457.953 994.733 456.984 994.093 455.926C992.221 452.832 989.508 449.709 985.787 446.768C984.718 445.923 983.578 445.104 982.365 444.315C977.938 441.436 973.13 441.657 970.287 443.957C968.381 445.5 968.495 446.529 971.211 447.476C976.772 449.465 981.863 454.653 986.377 461.708C987.964 464.189 989.376 466.763 990.437 469.021L990.72 469.634C990.989 470.229 991.215 470.767 991.387 471.219L991.469 471.438C991.606 471.816 991.704 472.133 991.766 472.434C991.845 472.821 991.877 473.16 991.804 473.63C991.525 475.437 989.628 476.819 987.618 475.958C986.585 475.515 985.928 474.56 985.816 473.517L985.81 473.434L985.771 473.33C985.645 473.001 985.464 472.573 985.242 472.083L985.007 471.573C984.054 469.546 982.767 467.199 981.323 464.942C977.463 458.909 973.192 454.557 969.213 453.133C961.873 450.574 961.104 443.67 966.513 439.293Z" fill="#3077E5"/>
<path fill-rule="evenodd" clip-rule="evenodd" d="M997.6 441.301C990.6 447.001 980.4 458.201 981.3 467.201C982.6 480.201 995.3 492.601 1023.6 492.701C1069.8 492.801 1065.9 430.101 1065.9 430.101L1066 394.801L1009.4 403.001L1007.8 441.201" fill="white"/>
<path fill-rule="evenodd" clip-rule="evenodd" d="M1065.57 391.831C1067.32 391.577 1068.9 392.888 1069 394.633V394.809L1068.9 430.006L1068.93 430.735L1068.94 430.934C1069.25 440.139 1068.29 451.382 1064.96 462.278C1058.61 483.024 1045.32 495.747 1023.59 495.7C996.555 495.605 979.984 484.186 978.315 467.499C977.416 458.512 985.347 447.409 995.706 438.974C996.991 437.928 998.88 438.121 999.926 439.406C1000.97 440.691 1000.78 442.581 999.494 443.627C990.594 450.874 983.654 460.59 984.285 466.902C985.608 480.134 999.367 489.615 1023.61 489.701C1042.33 489.741 1053.57 478.977 1059.22 460.523C1060.98 454.766 1062.07 448.582 1062.61 442.288C1062.95 438.208 1063.03 434.572 1062.96 431.644L1062.91 430.44V430.287L1062.9 430.092L1062.99 398.267L1012.29 405.612L1010.8 441.326C1010.73 442.922 1009.43 444.175 1007.85 444.2L1007.67 444.198C1006.08 444.131 1004.83 442.828 1004.8 441.251V441.075L1006.4 402.875C1006.46 401.493 1007.45 400.338 1008.79 400.062L1008.97 400.031L1065.57 391.831Z" fill="#3077E5"/>
<path fill-rule="evenodd" clip-rule="evenodd" d="M1136.01 436.214C1137.66 436.055 1139.13 437.263 1139.29 438.912C1139.45 440.562 1138.24 442.027 1136.59 442.187C1071.45 448.469 1017.83 463.675 973.468 486.837C936.254 506.268 906.409 530.706 880.331 560.865C867.589 575.602 856.786 590.274 843.334 610.361L840.539 614.562C837.366 619.358 829.767 630.863 826.83 635.24L825.397 637.362C820.459 644.643 816.382 650.323 812.451 655.32L812.045 655.834C801.053 669.706 791.067 678.178 779.815 682.224C754.031 691.493 738.61 701.668 719.948 719.207L717.804 721.238L711.375 727.401C702.487 735.893 697.224 740.504 690.332 745.539C681.114 752.273 671.081 757.857 659.093 762.658L657.998 763.092C646.105 767.768 634.461 777.544 617.219 795.731L602.887 811.03L601.527 812.458C596.994 817.195 593.33 820.805 589.899 823.856C580.421 832.286 572.92 836.185 566.018 835.061C564.383 834.795 563.273 833.254 563.539 831.618C563.805 829.983 565.347 828.873 566.982 829.139C571.541 829.882 577.689 826.685 585.911 819.373L586.676 818.687C589.629 816.014 592.828 812.854 596.693 808.83L598.89 806.524C602.105 803.117 610.212 794.415 611.681 792.855L613.49 790.944C630.789 772.755 642.705 762.779 655.367 757.682L655.804 757.508C667.798 752.799 677.708 747.331 686.792 740.694L687.581 740.114C693.969 735.389 699.089 730.856 707.777 722.54L712.858 717.664C713.414 717.133 713.933 716.639 714.434 716.163L715.174 715.462C734.689 697.016 750.843 686.263 777.785 676.577C787.792 672.98 796.981 665.183 807.342 652.108L808.533 650.589C812.259 645.789 816.186 640.273 820.944 633.238L824.719 627.589C829.157 620.907 835.797 610.848 836.835 609.289L838.355 607.014C851.929 586.744 862.863 571.894 875.793 556.941C902.345 526.233 932.775 501.316 970.691 481.519C1015.76 457.987 1070.13 442.569 1136.01 436.214Z" fill="#042A64"/>
<path fill-rule="evenodd" clip-rule="evenodd" d="M649 769.6C653.032 769.6 656.3 766.332 656.3 762.3C656.3 758.268 653.032 755 649 755C644.969 755 641.7 758.268 641.7 762.3C641.7 766.332 644.969 769.6 649 769.6Z" fill="#233F94"/>
<path fill-rule="evenodd" clip-rule="evenodd" d="M927.9 518.3C931.932 518.3 935.2 515.032 935.2 511C935.2 506.969 931.932 503.7 927.9 503.7C923.868 503.7 920.6 506.969 920.6 511C920.6 515.032 923.868 518.3 927.9 518.3Z" fill="#233F94"/>
<path fill-rule="evenodd" clip-rule="evenodd" d="M775.6 686.701C779.631 686.701 782.9 683.432 782.9 679.401C782.9 675.369 779.631 672.101 775.6 672.101C771.568 672.101 768.3 675.369 768.3 679.401C768.3 683.432 771.568 686.701 775.6 686.701Z" fill="#233F94"/>
<path fill-rule="evenodd" clip-rule="evenodd" d="M1102.2 450C1106.23 450 1109.5 446.732 1109.5 442.7C1109.5 438.669 1106.23 435.4 1102.2 435.4C1098.17 435.4 1094.9 438.669 1094.9 442.7C1094.9 446.732 1098.17 450 1102.2 450Z" fill="#233F94"/>
<path fill-rule="evenodd" clip-rule="evenodd" d="M1008.8 447.901C1009 437.501 1001.8 436.401 992.8 445.201C988.3 449.601 982.7 457.201 981.3 464.001" fill="white"/>
<path fill-rule="evenodd" clip-rule="evenodd" d="M990.703 443.056C1001.38 432.612 1012.06 434.361 1011.8 447.959C1011.77 449.615 1010.4 450.932 1008.74 450.9C1007.09 450.868 1005.77 449.5 1005.8 447.843C1005.87 444.106 1004.99 442.513 1003.77 442.311C1001.95 442.013 998.672 443.655 994.898 447.346C989.864 452.268 985.341 459.25 984.239 464.606C983.905 466.229 982.318 467.273 980.695 466.939C979.073 466.605 978.028 465.019 978.362 463.396C979.744 456.685 984.89 448.74 990.703 443.056Z" fill="#3077E5"/>
<path fill-rule="evenodd" clip-rule="evenodd" d="M995.901 468.901C994.601 462.101 998.101 454.601 1002.7 449.601C1010.9 440.701 1015.8 438.401 1018.2 448.101" fill="white"/>
<path fill-rule="evenodd" clip-rule="evenodd" d="M1012.08 438.927C1016.66 438.073 1019.6 441.284 1021.11 447.381C1021.51 448.989 1020.53 450.616 1018.92 451.013C1017.31 451.411 1015.69 450.43 1015.29 448.822C1014.8 446.856 1014.24 445.599 1013.71 445.019C1013.5 444.788 1013.45 444.774 1013.17 444.826C1011.65 445.11 1008.89 447.308 1004.91 451.632C1000.37 456.567 997.849 463.121 998.847 468.338C999.158 469.965 998.091 471.537 996.464 471.848C994.836 472.159 993.265 471.092 992.954 469.465C991.556 462.155 994.772 453.788 1000.49 447.568L1001.18 446.831C1005.69 442.026 1008.97 439.506 1012.08 438.927Z" fill="#3077E5"/>
<path fill-rule="evenodd" clip-rule="evenodd" d="M1013.3 479.401C1013.3 479.401 1007.2 470.101 1010.5 459.301C1013.7 448.501 1023.5 441.401 1027.8 449.601" fill="white"/>
<path fill-rule="evenodd" clip-rule="evenodd" d="M1017.16 444.776C1022.22 441.638 1027.58 442.724 1030.46 448.208C1031.23 449.675 1030.66 451.488 1029.19 452.258C1027.78 452.999 1026.05 452.501 1025.23 451.153L1025.14 450.994C1023.98 448.769 1022.56 448.483 1020.32 449.876C1017.49 451.63 1014.73 455.576 1013.37 460.177C1011.89 465.008 1012.41 469.904 1014.2 474.458C1014.51 475.24 1014.83 475.954 1015.16 476.59L1015.35 476.962C1015.49 477.222 1015.61 477.424 1015.69 477.566L1015.81 477.755C1016.72 479.141 1016.33 481.001 1014.95 481.909C1013.56 482.818 1011.7 482.432 1010.79 481.046C1010.21 480.164 1009.41 478.664 1008.62 476.652C1006.37 470.937 1005.71 464.707 1007.62 458.448C1009.38 452.536 1012.99 447.358 1017.16 444.776Z" fill="#3077E5"/>
<path fill-rule="evenodd" clip-rule="evenodd" d="M1027.7 479.401C1027.7 479.401 1021.1 469.901 1022.6 460.601C1024.1 451.301 1031.5 445.001 1035.9 451.301C1035.9 451.301 1035.5 461.901 1041.3 463.201" fill="white"/>
<path fill-rule="evenodd" clip-rule="evenodd" d="M1026.36 447.705C1030.45 444.624 1035.27 445.166 1038.36 449.583C1038.69 450.059 1038.88 450.62 1038.9 451.197L1038.89 451.861C1038.9 452.279 1038.92 452.786 1038.96 453.353C1039.04 454.474 1039.21 455.573 1039.46 456.571C1040.01 458.716 1040.84 459.932 1041.82 460.237L1041.96 460.273C1043.57 460.636 1044.59 462.24 1044.23 463.857C1043.87 465.474 1042.26 466.491 1040.64 466.128C1036.9 465.288 1034.73 462.253 1033.65 458.06C1033.3 456.689 1033.09 455.253 1032.98 453.806C1032.95 453.446 1032.93 453.103 1032.92 452.781L1032.9 452.361L1032.88 452.337C1032.06 451.533 1031.25 451.581 1030.12 452.383L1029.97 452.497C1027.95 454.021 1026.17 457.303 1025.56 461.079C1025.54 461.235 1025.51 461.393 1025.49 461.551C1025.04 465.182 1025.95 469.242 1027.77 473.301C1028.31 474.488 1028.88 475.583 1029.45 476.553L1029.66 476.904C1029.76 477.067 1029.85 477.208 1029.93 477.328L1030.16 477.689C1031.11 479.05 1030.77 480.919 1029.41 481.865C1028.05 482.81 1026.18 482.473 1025.24 481.113L1025.08 480.882C1024.88 480.576 1024.61 480.143 1024.28 479.596C1023.61 478.447 1022.93 477.162 1022.3 475.766C1020.06 470.79 1018.92 465.704 1019.54 460.801C1019.57 460.574 1019.6 460.348 1019.64 460.123C1020.48 454.904 1023.01 450.228 1026.36 447.705Z" fill="#3077E5"/>
<path fill-rule="evenodd" clip-rule="evenodd" d="M994.1 179.7L998.2 304.4L1004.4 432.5L1072.1 430.7L1066.3 296.2L1062.2 220.7C1056 198.4 1042.7 186.2 1027.7 184.2L994.1 179.7Z" fill="#042A64"/>
<path fill-rule="evenodd" clip-rule="evenodd" d="M906.2 157.6L914.9 177L901.9 174.2C900.5 176.7 883.7 213 924.4 222.4C951.1 228.5 982.1 206.8 996.1 187L973.5 182.9L955 138.5L906.2 157.6Z" fill="white"/>
<path fill-rule="evenodd" clip-rule="evenodd" d="M905.107 154.807L904.939 154.879C903.459 155.562 902.787 157.32 903.463 158.828L909.737 172.82L902.532 171.268C901.244 170.991 899.926 171.586 899.283 172.735C898.466 174.193 897.192 177.294 896.221 180.626C894.752 185.672 894.028 190.855 894.37 195.915C895.337 210.261 904.548 220.895 923.725 225.324C937.008 228.358 951.884 225.145 966.471 217.035C979.202 209.956 990.968 199.455 998.55 188.733L998.65 188.582C999.759 186.804 998.735 184.43 996.636 184.049L975.641 180.24L957.769 137.347C957.142 135.841 955.426 135.112 953.907 135.707L905.107 154.807ZM953.359 142.364L970.731 184.055L970.815 184.239C971.235 185.082 972.03 185.683 972.965 185.853L990.756 189.08L990.589 189.288C983.591 197.857 973.897 206.041 963.555 211.791C950.16 219.239 936.728 222.14 925.068 219.476C908.454 215.639 901.144 207.2 900.356 195.511C900.067 191.224 900.696 186.722 901.982 182.303L902.165 181.692C902.536 180.479 902.941 179.328 903.36 178.267L903.614 177.638L914.269 179.933L914.432 179.964C916.76 180.341 918.621 177.966 917.638 175.773L910.226 159.246L953.359 142.364Z" fill="#3077E5"/>
<path fill-rule="evenodd" clip-rule="evenodd" d="M959.2 126.4L963 128.9C963 128.9 985.8 141.3 993 118.3C998.4 100.8 981.7 95.3002 973.3 93.7002" fill="white"/>
<path fill-rule="evenodd" clip-rule="evenodd" d="M970.353 93.1394C970.663 91.5118 972.234 90.4437 973.861 90.7537C980.128 91.9474 985.913 94.1506 990.237 97.7263C996.405 102.827 998.674 110.089 995.863 119.197C992.899 128.666 987.125 133.782 979.541 134.973C975.092 135.672 970.459 134.973 965.947 133.403L965.231 133.146C963.611 132.549 962.355 131.965 961.567 131.536L961.458 131.474L961.351 131.407L957.551 128.907C956.167 127.996 955.783 126.136 956.694 124.752C957.571 123.419 959.328 123.014 960.693 123.799L960.849 123.894L964.53 126.316L964.875 126.488L965.316 126.695C966.088 127.048 966.963 127.404 967.919 127.736C971.58 129.01 975.282 129.569 978.61 129.046C983.908 128.214 987.845 124.725 990.133 117.416C992.215 110.67 990.732 105.922 986.413 102.35C983.016 99.541 978.102 97.6693 972.739 96.6478C971.111 96.3377 970.043 94.767 970.353 93.1394Z" fill="#3077E5"/>
<path fill-rule="evenodd" clip-rule="evenodd" d="M877.6 83.0005C874.5 93.6005 865.6 143.7 897.8 156.1C929.9 168.5 960.1 143.6 971.5 112.7C982.9 81.8005 975.8 51.7005 955.6 43.3005C935.4 34.9005 900.1 6.50045 877.6 83.0005Z" fill="white"/>
<path fill-rule="evenodd" clip-rule="evenodd" d="M913.283 28.9638C897.333 32.6386 884.649 48.9434 875.012 81.1766L874.721 82.1582C872.073 91.2136 870.28 106.121 871.475 119.149C873.26 138.61 881.147 152.902 896.722 158.9C912.859 165.133 929.417 162.771 944.061 153.145C957.387 144.384 968.298 130.047 974.315 113.739C986.165 81.6188 978.785 49.6924 956.752 40.5303L956.189 40.2924C955.043 39.8021 953.779 39.2201 952.18 38.4544L946.141 35.5318C932.58 29.0621 923.282 26.6602 913.283 28.9638ZM880.344 84.3133L880.478 83.8468C889.602 52.8279 901.067 37.9354 914.63 34.8107C922.647 32.9636 930.59 34.8849 942.33 40.3673L944.011 41.1643L949.171 43.6653C951.331 44.7048 952.938 45.4424 954.448 46.0704C972.973 53.7737 979.548 82.2188 968.686 111.662C963.099 126.805 952.981 140.101 940.765 148.131C927.679 156.733 913.135 158.808 898.881 153.302C885.805 148.266 879.048 136.02 877.45 118.601C876.35 106.603 877.97 92.7367 880.344 84.3133Z" fill="#3077E5"/>
<path fill-rule="evenodd" clip-rule="evenodd" d="M910.4 123.7C903.9 124.8 898.8 123 896.1 121.7C894.9 121.1 893.4 121.8 893.2 123.2C892.5 127.2 892.7 134.1 901.4 136.1C910.5 138.3 912.4 130.3 912.8 125.9C912.9 124.6 911.7 123.4 910.4 123.7Z" fill="#3077E5"/>
<path fill-rule="evenodd" clip-rule="evenodd" d="M909.052 66.9977C909.716 65.48 911.485 64.7883 913.003 65.4528C914.467 66.0936 915.162 67.7614 914.614 69.2406L914.548 69.4042L899.059 104.782L905.655 106.497C907.201 106.9 908.151 108.437 907.843 109.984L907.803 110.156C907.401 111.702 905.864 112.652 904.317 112.344L904.145 112.304L894.145 109.704C892.418 109.256 891.476 107.417 892.083 105.768L892.152 105.598L909.052 66.9977Z" fill="#3077E5"/>
<path fill-rule="evenodd" clip-rule="evenodd" d="M919.858 71.6695C925.028 69.32 929.728 71.0058 933.473 74.9467C934.305 75.8212 935.028 76.748 935.648 77.6763L935.912 78.0813C936.155 78.4643 936.336 78.7788 936.455 79.0034C937.226 80.4696 936.663 82.2837 935.197 83.0554C933.785 83.7985 932.051 83.3039 931.235 81.957L931.03 81.5948C930.943 81.4482 930.818 81.2481 930.658 81.008C930.218 80.3486 929.702 79.6876 929.124 79.0802C927.027 76.8739 924.925 76.0729 922.577 77.0301L922.341 77.1317C920.833 77.8173 919.054 77.1504 918.369 75.642C917.683 74.1337 918.35 72.3551 919.858 71.6695Z" fill="#3077E5"/>
<path fill-rule="evenodd" clip-rule="evenodd" d="M885.485 62.172C890.487 58.9761 895.53 60.1546 899.844 63.7832C901.276 64.9881 902.324 66.1897 902.943 67.0591C903.905 68.4083 903.59 70.2817 902.241 71.2432C900.944 72.1678 899.162 71.9128 898.172 70.6923L897.937 70.3838C897.847 70.2691 897.717 70.1112 897.551 69.9207C897.092 69.3934 896.563 68.8637 895.982 68.3749C893.46 66.2538 891.103 65.7029 888.715 67.2282C887.319 68.1202 885.464 67.7115 884.572 66.3153C883.68 64.9191 884.089 63.0641 885.485 62.172Z" fill="#3077E5"/>
<path fill-rule="evenodd" clip-rule="evenodd" d="M921.733 98.0337C922.334 95.1125 921.33 92.4375 919.491 92.059C917.652 91.6804 915.673 93.7416 915.072 96.6628C914.471 99.584 915.474 102.259 917.314 102.638C919.153 103.016 921.131 100.955 921.733 98.0337Z" fill="#3077E5"/>
<path fill-rule="evenodd" clip-rule="evenodd" d="M888.866 91.7339C889.467 88.8127 888.464 86.1377 886.624 85.7592C884.785 85.3806 882.807 87.4418 882.205 90.363C881.604 93.2842 882.608 95.9592 884.447 96.3378C886.286 96.7163 888.265 94.6551 888.866 91.7339Z" fill="#3077E5"/>
<path fill-rule="evenodd" clip-rule="evenodd" d="M1001.61 216.803C1010.52 207.138 1008.76 191.018 997.671 180.799C986.585 170.579 970.375 170.13 961.466 179.795C952.556 189.46 954.321 205.579 965.408 215.799C976.494 226.018 992.704 226.468 1001.61 216.803Z" fill="#3077E5"/>
<path fill-rule="evenodd" clip-rule="evenodd" d="M989.402 254.408C997.338 245.799 995.739 231.415 985.83 222.282C975.922 213.148 961.456 212.722 953.52 221.332C945.584 229.941 947.183 244.324 957.092 253.458C967 262.592 981.466 263.017 989.402 254.408Z" fill="#3077E5"/>
<path fill-rule="evenodd" clip-rule="evenodd" d="M965.201 285.3C958.401 292.2 946.401 291.5 938.401 283.8C930.401 276 929.401 264.2 936.201 257.2C943.001 250.3 955.201 250.4 963.201 258.1C971.201 265.8 972.001 278.4 965.201 285.3Z" fill="#3077E5"/>
<path fill-rule="evenodd" clip-rule="evenodd" d="M951.701 313.801C943.001 318.501 941.601 324.701 942.301 329.701C942.601 332.001 939.901 333.501 938.201 332.001C928.101 323.001 912.701 305.601 925.201 291.401C931.101 284.701 941.801 283.801 950.001 290.101C958.101 296.401 959.601 309.601 951.701 313.801Z" fill="#3077E5"/>
<path fill-rule="evenodd" clip-rule="evenodd" d="M969.383 172.606C970.022 170.564 972.148 169.398 974.197 169.927L974.395 169.984L998.995 177.684C1001.1 178.343 1002.28 180.587 1001.62 182.696C1000.98 184.738 998.852 185.904 996.803 185.375L996.605 185.318L972.005 177.618C969.897 176.958 968.723 174.714 969.383 172.606Z" fill="#042A64"/>
<path fill-rule="evenodd" clip-rule="evenodd" d="M962.873 214.45C963.649 212.455 965.849 211.436 967.858 212.103L968.051 212.173L988.351 220.073C990.41 220.874 991.43 223.192 990.628 225.251C989.852 227.246 987.652 228.265 985.644 227.598L985.45 227.528L965.15 219.628C963.091 218.827 962.072 216.509 962.873 214.45Z" fill="#042A64"/>
<path fill-rule="evenodd" clip-rule="evenodd" d="M953.209 252.948C954.253 251.082 956.569 250.376 958.465 251.31L958.653 251.409L964.553 254.709C966.481 255.787 967.17 258.225 966.091 260.153C965.048 262.019 962.732 262.724 960.836 261.79L960.648 261.691L954.748 258.391C952.82 257.313 952.131 254.876 953.209 252.948Z" fill="#042A64"/>
<path fill-rule="evenodd" clip-rule="evenodd" d="M938.911 283.635C939.855 281.715 942.135 280.888 944.079 281.725L944.266 281.811L950.366 284.811C952.348 285.786 953.165 288.183 952.19 290.166C951.245 292.086 948.966 292.912 947.022 292.076L946.835 291.99L940.735 288.99C938.753 288.015 937.936 285.617 938.911 283.635Z" fill="#042A64"/>
<path fill-rule="evenodd" clip-rule="evenodd" d="M1015.5 129.401C1009 123.101 1000.9 119.401 992.9 118.601C987.2 136.001 972.4 132.601 966.1 130.201C957.6 142.401 960.1 160.601 972.7 172.901C986.6 186.401 1007.4 187.601 1019.3 175.601C1031.2 163.601 1029.3 142.901 1015.5 129.401Z" fill="#3077E5"/>
<path fill-rule="evenodd" clip-rule="evenodd" d="M1015.2 77.0005C1012.8 61.0005 984.8 35.2005 962.9 35.4005C934.7 6.80047 892.7 -21.7995 868.2 28.4005C865.6 33.7005 868.6 40.1005 874.2 41.5005L975.9 71.7005C977.2 78.6005 977.4 86.3005 976.2 94.3005C985 96.6005 997.9 102.6 993 118.2C986.3 139.8 965.9 130.3 963.3 129C959.1 135.5 954 141.4 948.3 146.2C968.2 158 990.6 165.2 1002.8 149C1017.7 129.3 1018.5 99.3005 1015.2 77.0005Z" fill="#3077E5"/>
<path fill-rule="evenodd" clip-rule="evenodd" d="M906.43 88.138C903.534 105.197 911.552 121.009 924.761 123.252C937.971 125.495 950.758 113.216 953.655 96.1565C956.552 79.0972 948.534 63.285 935.324 61.0421C922.114 58.7992 909.327 71.0788 906.43 88.138ZM910.867 88.8913C913.388 74.043 924.149 63.7092 934.571 65.4787C944.992 67.2482 951.74 80.5549 949.218 95.4032C946.697 110.251 935.936 120.585 925.515 118.816C915.093 117.046 908.346 103.74 910.867 88.8913Z" fill="#042A64"/>
<path fill-rule="evenodd" clip-rule="evenodd" d="M850.296 77.306C847.4 94.3652 855.417 110.177 868.627 112.42C881.837 114.663 894.624 102.384 897.521 85.3244C900.417 68.2652 892.4 52.453 879.19 50.2101C865.98 47.9671 853.193 60.2467 850.296 77.306ZM854.733 78.0593C857.254 63.211 868.015 52.8771 878.437 54.6466C888.858 56.4161 895.605 69.7229 893.084 84.5711C890.563 99.4194 879.802 109.753 869.38 107.984C858.959 106.214 852.212 92.9076 854.733 78.0593Z" fill="#042A64"/>
<path fill-rule="evenodd" clip-rule="evenodd" d="M894.189 77.3846C894.409 76.2164 895.494 75.4301 896.657 75.5648L896.816 75.5889L910.116 78.0889C911.337 78.3185 912.141 79.4946 911.912 80.7159C911.692 81.884 910.606 82.6703 909.444 82.5356L909.285 82.5115L895.985 80.0115C894.763 79.7819 893.959 78.6058 894.189 77.3846Z" fill="#042A64"/>
<path fill-rule="evenodd" clip-rule="evenodd" d="M950.067 84.985C950.445 83.8582 951.629 83.2286 952.762 83.5219L952.916 83.5677L983.016 93.6677C984.194 94.063 984.829 95.3385 984.433 96.5166C984.055 97.6434 982.872 98.273 981.739 97.9797L981.585 97.9339L951.485 87.8339C950.306 87.4386 949.672 86.1631 950.067 84.985Z" fill="#042A64"/>
<path fill-rule="evenodd" clip-rule="evenodd" d="M429.7 419.9L429.9 461.5L482.8 464.6V425.2C482.8 425.2 494.7 418.4 490.7 396.9C486.7 375.4 424.8 382.5 421.4 395.6C418 408.7 429.7 419.9 429.7 419.9Z" fill="white"/>
<path fill-rule="evenodd" clip-rule="evenodd" d="M455.693 380.278L454.579 380.333C436.436 381.327 420.557 386.908 418.496 394.846C416.608 402.121 418.498 409.279 422.711 415.883C423.768 417.54 424.899 419.037 426.034 420.354L426.398 420.77L426.706 421.113L426.9 461.514C426.908 463.097 428.144 464.402 429.725 464.495L482.625 467.595L482.802 467.6C484.446 467.601 485.8 466.266 485.8 464.6L485.799 426.729L486.115 426.466C487.322 425.432 488.515 424.138 489.618 422.564C493.974 416.348 495.756 407.67 493.65 396.351C491.457 384.567 475.994 379.38 455.693 380.278ZM487.751 397.449C489.566 407.206 488.121 414.244 484.704 419.121C483.9 420.269 483.048 421.193 482.211 421.91C481.988 422.101 481.783 422.263 481.599 422.396L481.312 422.595L481.141 422.701C480.307 423.254 479.8 424.191 479.8 425.2L479.799 461.419L432.885 458.67L432.7 419.885C432.697 419.14 432.416 418.425 431.916 417.878L431.484 417.437L431.144 417.074C430.967 416.88 430.778 416.668 430.579 416.437C429.623 415.328 428.664 414.058 427.77 412.656C424.37 407.328 422.901 401.761 424.304 396.354C425.448 391.945 439.952 386.98 455.958 386.272C473.531 385.495 486.326 389.787 487.751 397.449Z" fill="#3077E5"/>
<path d="M485.2 329.5H427.5V406.5H485.2V329.5Z" fill="#042A64"/>
<path fill-rule="evenodd" clip-rule="evenodd" d="M429.6 419.6C418.7 416.3 421.2 394.7 422.8 389.4C423.9 385.8 426.4 377.2 426.2 370.8C426.1 368 430.1 364.8 432.8 365.9C436.1 367.2 439.2 372.8 439.8 390.3C448.2 399.8 451.3 410.2 451.3 410.2" fill="white"/>
<path fill-rule="evenodd" clip-rule="evenodd" d="M423.212 371.364L423.202 370.908C423.024 365.928 429.212 361.199 433.9 363.109C439.249 365.217 442.033 373.01 442.732 388.508L442.758 389.133L443.404 389.906L444.061 390.721C447.266 394.774 449.837 399.104 451.839 403.436C452.454 404.766 452.978 406.016 453.414 407.164L453.596 407.649C453.885 408.433 454.076 409.009 454.175 409.343C454.649 410.931 453.745 412.602 452.157 413.075C450.626 413.532 449.018 412.708 448.48 411.225L448.287 410.63C448.224 410.442 448.143 410.21 448.044 409.936L447.966 409.724C447.549 408.592 447.027 407.324 446.393 405.954C444.578 402.027 442.245 398.098 439.354 394.443C438.772 393.706 438.172 392.988 437.553 392.288C437.091 391.766 436.826 391.099 436.802 390.403C436.528 382.41 435.715 376.683 434.47 372.983C433.562 370.287 432.594 369.044 431.668 368.679C431.11 368.451 429.171 369.933 429.199 370.707C429.372 376.266 427.958 382.787 425.672 390.267C424.728 393.396 424.071 399.806 424.502 405.002C425.037 411.439 427.009 415.534 430.26 416.661L430.47 416.729C432.055 417.209 432.952 418.884 432.472 420.47C431.991 422.055 430.317 422.952 428.731 422.472C422.362 420.544 419.25 414.258 418.523 405.499C418.03 399.557 418.764 392.39 419.931 388.524C421.962 381.877 423.262 375.971 423.212 371.364Z" fill="#3077E5"/>
<path fill-rule="evenodd" clip-rule="evenodd" d="M464.1 378.7C458.2 365.9 483.6 355.3 483.6 355.3C488.7 352.9 498.5 360.8 483.2 368.2" fill="white"/>
<path fill-rule="evenodd" clip-rule="evenodd" d="M482.551 352.484C486.6 350.746 491.957 352.798 493.784 356.84C496.023 361.795 492.585 366.994 484.507 370.901C483.015 371.623 481.221 370.998 480.5 369.507C479.778 368.015 480.403 366.221 481.894 365.5C487.419 362.828 488.896 360.593 488.317 359.311C487.852 358.284 486.072 357.587 485.012 357.96L484.878 358.015L484.127 358.345L483.968 358.417C483.308 358.718 482.569 359.073 481.771 359.477C479.492 360.633 477.215 361.951 475.104 363.4C468.081 368.221 464.947 372.98 466.73 377.229L466.825 377.445C467.518 378.949 466.861 380.731 465.356 381.425C463.851 382.119 462.069 381.461 461.376 379.956C457.744 372.078 462.417 364.832 471.708 358.454C474.057 356.841 476.558 355.393 479.058 354.126C479.787 353.756 480.473 353.424 481.107 353.129L481.989 352.729L482.551 352.484Z" fill="#3077E5"/>
<path fill-rule="evenodd" clip-rule="evenodd" d="M463.3 392.5C457.4 379.7 483.7 368 483.7 368C483.7 368 492.2 363.2 494.3 371.2C496 377.5 486.4 379.9 486.3 380.2" fill="white"/>
<path fill-rule="evenodd" clip-rule="evenodd" d="M489.388 363.585C493.154 363.78 496.062 366.095 497.197 370.418C498.427 374.978 496.086 378.456 491.914 380.893C490.903 381.484 489.885 381.96 488.73 382.426L487.817 382.787L487.787 382.806C487.12 383.186 486.31 383.31 485.52 383.097L485.351 383.046C483.78 382.522 482.93 380.823 483.454 379.251C483.729 378.425 484.121 378.041 484.655 377.681C484.757 377.613 484.851 377.557 484.946 377.506L485.089 377.432C485.196 377.38 485.3 377.334 485.425 377.282L486.485 376.862C487.394 376.496 488.166 376.134 488.887 375.713C490.993 374.483 491.768 373.331 491.398 371.962C490.928 370.17 490.261 369.638 489.077 369.577C488.289 369.536 487.325 369.732 486.338 370.098L485.988 370.235C485.661 370.368 485.404 370.49 485.246 370.573L485.175 370.612C485.092 370.659 485.007 370.702 484.92 370.741L484.495 370.937L484.09 371.13C483.398 371.464 482.624 371.856 481.788 372.301C479.401 373.572 477.016 375.011 474.803 376.579C467.487 381.763 464.159 386.791 465.932 391.033L466.025 391.244C466.718 392.749 466.061 394.531 464.556 395.224C463.051 395.918 461.269 395.26 460.576 393.756C456.95 385.89 461.773 378.458 471.335 371.683C473.773 369.955 476.371 368.389 478.967 367.005L479.854 366.54C480.43 366.243 480.975 365.971 481.483 365.726L482.032 365.465L482.383 365.301C482.771 365.092 483.308 364.838 483.963 364.583L484.251 364.473C485.809 363.895 487.4 363.551 488.99 363.572L489.388 363.585Z" fill="#3077E5"/>
<path fill-rule="evenodd" clip-rule="evenodd" d="M467.9 406.9C464.7 406.4 463.6 402.9 463.6 402.9C457.7 390.1 489.4 378.7 489.4 378.7C489.4 378.7 502 382.9 492.4 392.1" fill="white"/>
<path fill-rule="evenodd" clip-rule="evenodd" d="M488.385 375.877C489.019 375.649 489.71 375.641 490.349 375.854L490.602 375.943C490.883 376.046 491.245 376.193 491.668 376.384C492.596 376.804 493.524 377.311 494.407 377.92C500.069 381.825 501.092 387.925 494.476 394.266C493.28 395.413 491.381 395.372 490.234 394.176C489.088 392.98 489.128 391.081 490.324 389.934L490.731 389.536C493.978 386.28 493.618 384.665 491.001 382.86C490.551 382.549 490.064 382.27 489.569 382.027L489.353 381.925C488.622 382.212 487.821 382.537 486.964 382.901L486.443 383.124C483.432 384.423 480.422 385.894 477.629 387.5C468.821 392.564 464.626 397.523 466.245 401.461L466.399 401.82L466.462 402.001C466.523 402.193 466.736 402.647 467.076 403.081C467.423 403.525 467.791 403.796 468.206 403.904L468.363 403.936C470 404.192 471.12 405.726 470.864 407.363C470.608 409 469.074 410.12 467.437 409.864C465.304 409.531 463.612 408.391 462.35 406.778C461.641 405.872 461.174 404.979 460.888 404.23L460.798 403.982L460.744 403.861C458.929 399.631 459.975 395.343 463.182 391.351L463.41 391.073C465.992 387.969 469.84 385.057 474.639 382.298C477.65 380.567 480.859 378.999 484.066 377.615C485.001 377.212 485.881 376.848 486.691 376.526L487.567 376.184C487.935 376.042 488.211 375.94 488.385 375.877Z" fill="#3077E5"/>
<path fill-rule="evenodd" clip-rule="evenodd" d="M492 392.7C492 392.7 462.2 405.3 471.4 413.8C477.4 418.6 496.1 406.8 496 401C495.9 395.1 494.4 393.2 492 392.7Z" fill="white"/>
<path fill-rule="evenodd" clip-rule="evenodd" d="M490.832 389.937L489.812 390.385L488.994 390.757C488.43 391.016 487.831 391.298 487.202 391.602C484.503 392.905 481.803 394.338 479.27 395.866C473.968 399.062 470.083 402.229 468.098 405.482C465.852 409.161 466.128 413.013 469.364 416.004L469.526 416.143C473.573 419.38 480.38 418.012 487.47 413.984C494.113 410.209 499.073 405.211 499 400.948C498.887 394.266 496.946 390.666 492.612 389.763C492.015 389.639 491.394 389.699 490.832 389.937ZM492.035 395.963L492.068 395.994C492.636 396.569 492.948 397.924 493.001 401.051C493.022 402.309 489.338 406.022 484.506 408.767L484.173 408.954C479.296 411.654 474.888 412.549 473.373 411.53L473.341 411.506L473.196 411.36C472.431 410.544 472.456 409.858 473.219 408.608C474.565 406.403 477.835 403.736 482.368 401.004C484.726 399.582 487.268 398.233 489.811 397.005L490.679 396.591C490.961 396.458 491.235 396.33 491.5 396.208L492.035 395.963Z" fill="#3077E5"/>
<path fill-rule="evenodd" clip-rule="evenodd" d="M419.8 435.4L405.9 521L349.5 545.9L349.4 545.8L197.8 607.5C179.1 617.1 169.5 642 167.2 662.9L144.1 804.7C141.5 820.6 152.4 835.5 168.3 837.8L360.4 834.6C360.4 834.6 361.5 829 363.2 821.3L429.2 832.1L395.3 640.2L472.9 598.6C481.8 593.8 485.8 578.6 486.3 568.5L492.2 435.4H419.8Z" fill="#233F94"/>
<path fill-rule="evenodd" clip-rule="evenodd" d="M302.3 616.9C318.6 613.3 329.2 598.7 325.6 582.4L315.1 534.9C311.5 518.6 295.3 508.3 279 511.9C262.7 515.5 252.4 531.7 256 548L266.2 593.9C269.8 610.2 285.9 620.5 302.3 616.9Z" fill="white"/>
<path fill-rule="evenodd" clip-rule="evenodd" d="M278.89 508.857L278.353 508.971C260.443 512.926 249.112 530.722 253.071 548.647L263.272 594.551C267.188 612.282 284.571 623.559 302.405 619.944L302.92 619.835C321.126 615.815 332.435 599.435 328.53 581.753L318.03 534.253C314.118 516.542 296.654 505.235 278.89 508.857ZM312.171 535.547L322.671 583.048C325.84 597.395 316.688 610.65 301.653 613.971L301.189 614.069C286.584 617.029 272.34 607.788 269.13 593.253L258.929 547.349L258.835 546.909C255.901 532.517 264.936 518.327 279.209 514.93L279.64 514.83L280.113 514.731C294.647 511.767 308.967 521.039 312.171 535.547Z" fill="#3077E5"/>
<path fill-rule="evenodd" clip-rule="evenodd" d="M305.2 446.6C305.2 446.6 279.6 489.9 309.5 502.9C309.5 502.9 322.5 508 328.3 502.7C328.3 502.7 319.2 497.3 322.9 490.2C322.9 490.2 336.9 513.1 354 498.2C354 498.2 341.4 491.3 336.8 477.7C327.2 449.3 313 436.6 305.2 446.6Z" fill="#3077E5"/>
<path fill-rule="evenodd" clip-rule="evenodd" d="M235.6 512.4C235.6 512.4 211.4 465.3 258.9 440.1C263.3 437.8 293.9 422.3 308.5 447C318.3 463.5 325.4 482.6 329.9 497.7C329.9 497.8 338.8 526.2 332.8 545.6C326.8 565 301.6 571.7 286 568.3C270.4 564.9 266.6 561.7 259.9 553.7C253.2 545.8 235.6 512.5 235.6 512.4Z" fill="white"/>
<path fill-rule="evenodd" clip-rule="evenodd" d="M239.566 513.504L238.462 511.411C240.726 515.771 238.6 511.571 238.6 512.4C238.6 511.992 238.517 511.588 238.355 511.214L238.049 510.576L237.804 510.045C237.676 509.762 237.541 509.452 237.398 509.117C236.712 507.501 236.023 505.654 235.379 503.61C231.812 492.291 231.131 480.47 235.095 469.529C238.963 458.852 247.071 449.772 260.306 442.75C262.398 441.657 264.665 440.607 267.505 439.544C271.72 437.967 276.003 436.858 280.195 436.408C291.153 435.233 299.876 438.625 305.674 448.122L305.921 448.532L306.501 449.518C314.787 463.713 321.768 480.918 327.025 498.557L327.098 498.534L327.888 501.67C328.415 503.781 329.037 506.346 329.452 508.343C331.023 515.919 331.939 523.477 331.875 530.482C331.827 535.829 331.2 540.62 329.934 544.714C327.43 552.809 320.949 559.014 311.866 562.723C303.69 566.062 294.103 566.996 286.639 565.369L285.577 565.135C273.249 562.377 269.378 560.158 263.02 552.742L262.2 551.774C259.475 548.56 254.434 540.347 248.173 529.224L247.853 528.656C245.803 525.006 243.738 521.25 241.812 517.688L239.97 514.262C239.83 514.001 239.695 513.747 239.566 513.504ZM332.799 496.93L332.8 496.94L332.775 496.844C327.391 478.778 320.236 461.144 311.679 446.486L311.083 445.474C303.973 433.447 292.836 429.018 279.555 430.442C274.815 430.951 270.056 432.183 265.402 433.925C262.299 435.086 259.82 436.234 257.51 437.442C242.97 445.156 233.838 455.381 229.454 467.486C224.974 479.851 225.729 492.949 229.657 505.413C230.361 507.648 231.117 509.675 231.876 511.462L231.989 511.728C232.399 512.68 232.725 513.37 232.932 513.771L233.055 513.707L233.152 513.926L233.369 514.401C236.997 522.185 252.43 549.338 257.454 555.451L257.612 555.641C265.515 565.077 270.361 567.962 285.361 571.231C294.033 573.122 304.854 572.067 314.134 568.278C324.768 563.936 332.584 556.452 335.666 546.487C337.121 541.783 337.822 536.427 337.875 530.537C337.943 523.05 336.978 515.086 335.327 507.125C334.833 504.745 334.309 502.52 333.777 500.47L333.577 499.709C333.453 499.242 333.334 498.808 333.22 498.399L332.799 496.93Z" fill="#3077E5"/>
<path fill-rule="evenodd" clip-rule="evenodd" d="M306.294 486.211C307.779 485.622 309.453 486.301 310.119 487.731L310.189 487.893L320.389 513.593C320.988 515.104 320.275 516.805 318.805 517.447L318.639 517.514L310.239 520.614C308.685 521.188 306.959 520.393 306.386 518.838C305.833 517.34 306.552 515.682 307.998 515.051L308.162 514.985L313.677 512.949L304.612 490.107C304.022 488.622 304.701 486.947 306.132 486.281L306.294 486.211Z" fill="#3077E5"/>
<path fill-rule="evenodd" clip-rule="evenodd" d="M318.341 489.962C319.711 489.374 320.098 487.211 319.205 485.13C318.312 483.049 316.478 481.839 315.107 482.427C313.737 483.015 313.35 485.178 314.243 487.259C315.135 489.34 316.97 490.55 318.341 489.962Z" fill="#3077E5"/>
<path fill-rule="evenodd" clip-rule="evenodd" d="M294.371 500.715C295.828 500.394 296.612 498.341 296.124 496.13C295.636 493.919 294.06 492.387 292.604 492.708C291.148 493.03 290.363 495.083 290.851 497.294C291.339 499.505 292.915 501.037 294.371 500.715Z" fill="#3077E5"/>
<path fill-rule="evenodd" clip-rule="evenodd" d="M281.712 477.858C283.337 477.533 284.917 478.586 285.242 480.211C285.555 481.778 284.587 483.303 283.06 483.702L282.889 483.741C280.65 484.189 278.96 485.232 277.677 486.714C277.065 487.421 276.587 488.185 276.233 488.942C276.143 489.136 276.067 489.316 276.004 489.478L275.898 489.778C275.468 491.378 273.822 492.327 272.222 491.897C270.622 491.467 269.673 489.821 270.103 488.221C270.217 487.795 270.44 487.167 270.797 486.402C271.374 485.168 272.143 483.94 273.139 482.789C275.262 480.335 278.111 478.578 281.712 477.858Z" fill="#3077E5"/>
<path fill-rule="evenodd" clip-rule="evenodd" d="M305.831 465.502C308.623 463.814 311.5 462.851 314.4 463.069C316.172 463.202 317.846 463.789 319.344 464.858C320.692 465.821 321.004 467.695 320.041 469.043C319.115 470.34 317.347 470.678 316.014 469.846L315.856 469.741C315.27 469.322 314.649 469.104 313.95 469.052C312.521 468.944 310.758 469.535 308.936 470.637C308.436 470.939 307.964 471.26 307.53 471.584L307.212 471.827C307.041 471.961 306.902 472.074 306.8 472.161L306.63 472.309C305.41 473.43 303.512 473.349 302.391 472.129C301.27 470.909 301.35 469.012 302.57 467.891C303.258 467.259 304.38 466.38 305.831 465.502Z" fill="#3077E5"/>
<path fill-rule="evenodd" clip-rule="evenodd" d="M263.5 466.2C263.5 466.2 293.4 532.7 248.3 546.6C248.3 546.6 222.1 555.3 214.6 546.7C214.6 546.7 232.6 533.5 228.5 522.7C228.5 522.7 210.1 549.9 188.5 535.5C188.5 535.5 219.5 525.6 212.5 497.3C207.5 477.1 254 450.6 263.5 466.2Z" fill="#3077E5"/>
<path fill-rule="evenodd" clip-rule="evenodd" d="M184.9 498.4L210.5 485.4C207.3 466.3 209.3 436.8 245.1 420.2C301.1 394.2 321.5 450.2 321.5 450.2L193.3 515C188.7 517.3 183.2 515.5 180.9 510.9C178.5 506.3 180.3 500.8 184.9 498.4Z" fill="#042A64"/>
<path fill-rule="evenodd" clip-rule="evenodd" d="M294.22 528.646C295.417 527.594 297.216 527.667 298.325 528.781L298.454 528.92C298.675 529.171 299.255 529.677 300.155 530.211C303.446 532.165 307.581 532.424 312.831 529.73C314.305 528.974 316.113 529.556 316.869 531.03C317.626 532.504 317.044 534.312 315.57 535.069C308.416 538.739 302.1 538.343 297.092 535.37C296.233 534.86 295.484 534.31 294.843 533.752C294.434 533.395 294.135 533.094 293.946 532.879C292.853 531.634 292.976 529.739 294.22 528.646Z" fill="#3077E5"/>
<path fill-rule="evenodd" clip-rule="evenodd" d="M400.2 792.5C400.2 792.5 417.4 791.5 435.7 794.7C446.6 796.6 465.1 799.8 467 802.6C471.4 809.2 454.7 812.6 446.8 807.1" fill="white"/>
<path fill-rule="evenodd" clip-rule="evenodd" d="M401.898 789.428C412.054 789.104 424.187 789.642 436.215 791.745L443.818 793.089C444.861 793.278 445.823 793.456 446.818 793.645L448.034 793.876C455.254 795.261 460.648 796.517 464.197 797.744C466.89 798.675 468.555 799.549 469.496 800.936C471.308 803.653 471.094 806.642 469.017 808.895C467.486 810.556 465.063 811.696 462.141 812.322C456.337 813.564 449.512 812.644 445.086 809.563C443.726 808.616 443.392 806.746 444.338 805.386C445.285 804.027 447.155 803.692 448.514 804.638C451.447 806.68 456.592 807.374 460.885 806.455C462.596 806.088 463.889 805.505 464.499 804.935L464.606 804.828C464.727 804.697 464.768 804.678 464.71 804.573L464.636 804.459L464.489 804.367L464.286 804.255C463.808 804.004 463.117 803.719 462.237 803.415C459.33 802.41 454.78 801.321 448.755 800.129L445.116 799.429C442.484 798.936 439.912 798.48 435.184 797.656C423.982 795.697 412.604 795.147 403.012 795.398L401.528 795.444L400.374 795.496C398.72 795.592 397.302 794.329 397.205 792.675C397.113 791.08 398.284 789.703 399.85 789.521L400.09 789.502L401.029 789.459C401.296 789.449 401.586 789.438 401.898 789.428Z" fill="#3077E5"/>
<path fill-rule="evenodd" clip-rule="evenodd" d="M446.3 816.4C461.8 821.1 463.5 817.6 460.2 810.8C458.3 806.9 432.6 796.4 427.5 794.9C422.4 793.4 394.9 791.4 394.9 791.4L374.3 789.2C368.5 802.1 363.7 824.9 362.1 832.6C391.5 831.7 431.6 832 431.6 832C447 833 441.9 826.1 435.6 823.8C429.2 821.5 417.6 816.1 415.9 816.5C415.9 816.5 432.5 821.2 440 825.9C445.3 828 451.3 824.4 451.8 822.7C452.4 821 447.5 816.4 439.4 812.3C431.3 808.2 420.8 804.6 420.8 804.6" fill="white"/>
<path fill-rule="evenodd" clip-rule="evenodd" d="M371.564 787.97C372.071 786.843 373.213 786.148 374.435 786.203L374.619 786.217L395.213 788.415L396.563 788.516L399.207 788.721L403.303 789.054C405.749 789.258 408.169 789.47 410.501 789.687L413.277 789.952C416.687 790.286 419.653 790.611 422.07 790.924L423.377 791.099C425.656 791.417 427.305 791.716 428.347 792.022L428.958 792.211C432.209 793.258 439.24 796.065 445.445 798.839L447.288 799.672C456.333 803.805 461.615 806.854 462.899 809.49C465.312 814.462 465.512 818.346 461.812 820.504C460.218 821.434 458.052 821.736 455.161 821.452L454.703 821.402L454.718 821.458C454.887 822.171 454.883 822.861 454.687 823.52L454.678 823.547C453.825 826.449 449.59 828.887 445.08 829.394L444.741 829.428L444.734 829.62C444.6 831.745 443.112 833.361 440.825 834.215L440.577 834.304C438.621 834.971 435.917 835.214 432.389 835.049L431.487 835L427.182 834.976L422.837 834.961C410.394 834.927 396.899 834.973 383.95 835.145L379.19 835.215C373.046 835.314 367.353 835.441 362.192 835.599C360.253 835.658 358.768 833.889 359.163 831.99L359.579 830.001C363.322 812.235 367.037 798.038 371.564 787.97ZM394.582 794.383L376.178 792.418L376.11 792.582C372.524 801.275 369.365 813.151 366.242 827.535L365.82 829.492L369.924 829.392C372.406 829.336 374.98 829.285 377.642 829.24L381.584 829.178C396.019 828.967 411.247 828.919 425.042 828.968L431.623 829L431.795 829.007C434.677 829.194 436.801 829.087 438.122 828.772L438.167 828.76L438.035 828.636L437.856 828.479C437 827.751 435.806 827.069 434.586 826.624L434.008 826.413C432.712 825.936 431.302 825.38 429.158 824.505L422.588 821.807L421.593 821.405L420.521 821.056L419.323 820.673L418.232 820.331C417.878 820.221 417.534 820.115 417.201 820.014L415.083 819.387C412.104 818.543 412.2 814.289 415.213 813.58L415.5 813.519C416.889 813.257 418.176 813.565 423.136 815.553L423.74 815.796L424.835 816.163C426.47 816.716 428.086 817.287 429.657 817.873L430.825 818.315C434.901 819.878 438.301 821.41 440.907 822.944L441.312 823.186L441.381 823.212C442.865 823.713 444.602 823.627 446.31 823.039L446.63 822.923C447.231 822.693 447.788 822.413 448.249 822.12L448.332 822.064L448.287 822.012C447.984 821.672 447.597 821.288 447.135 820.876L446.898 820.667C444.795 818.844 441.682 816.818 438.045 814.977C436.656 814.273 435.131 813.554 433.493 812.824C430.508 811.495 427.3 810.198 424.09 808.987L422.467 808.383C421.949 808.193 421.454 808.013 420.986 807.846L419.827 807.438C418.26 806.901 417.425 805.195 417.962 803.627C418.481 802.116 420.086 801.286 421.605 801.71L421.828 801.781L423.006 802.196L424.008 802.558C424.699 802.81 425.434 803.082 426.206 803.373C429.518 804.622 432.831 805.961 435.934 807.343C437.658 808.111 439.271 808.873 440.755 809.624C443.278 810.9 445.573 812.231 447.544 813.574L447.718 813.693L448.187 813.831L449.218 814.124C451.736 814.821 453.814 815.257 455.464 815.446L455.771 815.479C457.141 815.615 458.066 815.557 458.543 815.42L458.605 815.399L458.604 815.36C458.572 814.725 458.256 813.714 457.64 812.4L457.503 812.114C457.131 811.351 451.385 808.106 443.815 804.684L442.18 803.953C436.116 801.272 429.438 798.628 426.826 797.83L426.654 797.778C425.919 797.562 424.339 797.284 422.114 796.982L420.818 796.813C418.235 796.487 415.022 796.144 411.32 795.791C408.592 795.53 405.716 795.276 402.802 795.033L398.181 794.659L394.582 794.383Z" fill="#3077E5"/>
<path fill-rule="evenodd" clip-rule="evenodd" d="M266.015 700.508C267.609 700.623 268.822 701.962 268.8 703.539L268.792 703.716L264.898 757.855L375.751 770.921C377.338 771.108 378.489 772.501 378.395 774.076L378.379 774.252C378.192 775.838 376.799 776.989 375.225 776.895L375.049 776.88L261.349 763.48C259.815 763.299 258.68 761.987 258.7 760.462L258.708 760.285L262.808 703.285C262.922 701.692 264.262 700.479 265.839 700.501L266.015 700.508Z" fill="white"/>
<path fill-rule="evenodd" clip-rule="evenodd" d="M1342.5 830.5C1344.16 830.5 1345.5 831.843 1345.5 833.5C1345.5 835.098 1344.25 836.404 1342.68 836.495L1342.5 836.5H3.1001C1.44324 836.5 0.100098 835.157 0.100098 833.5C0.100098 831.902 1.34902 830.596 2.92382 830.505L3.1001 830.5H1342.5Z" fill="#3077E5"/>
</g>
<defs>
<clipPath id="clip0_2_2">
<rect width="1346" height="838" fill="white"/>
</clipPath>
</defs>
</svg>
