<svg width="1141" height="271" viewBox="0 0 1141 271" fill="none" xmlns="http://www.w3.org/2000/svg">
<g clip-path="url(#clip0_2_120)">
<path fill-rule="evenodd" clip-rule="evenodd" d="M1138.48 129.801C1139.76 129.801 1140.8 131.368 1140.8 133.301C1140.8 135.169 1139.83 136.696 1138.61 136.796L1138.48 136.801H2.37744C1.09408 136.801 0.0537109 135.234 0.0537109 133.301C0.0537109 131.432 1.02588 129.906 2.24994 129.806L2.37744 129.801H1138.48Z" fill="#042B67"/>
<path fill-rule="evenodd" clip-rule="evenodd" d="M586.4 265.8C658.142 265.8 716.3 207.642 716.3 135.9C716.3 64.1582 658.142 6 586.4 6C514.658 6 456.5 64.1582 456.5 135.9C456.5 207.642 514.658 265.8 586.4 265.8Z" fill="white"/>
<path fill-rule="evenodd" clip-rule="evenodd" d="M604.1 96.7002H462.5C458.6 109.1 456.5 122.3 456.5 135.9C456.5 179.6 478.1 218.2 511.1 241.8H604.1C610.1 241.8 615.1 236.9 615.1 230.8V107.7C615.1 101.6 610.2 96.7002 604.1 96.7002Z" fill="#042B67"/>
<path fill-rule="evenodd" clip-rule="evenodd" d="M584.6 108H459.5C457.5 117 456.5 126.3 456.5 135.9C456.5 171.1 470.5 203.1 493.3 226.5H584.6C590.7 226.5 595.6 221.6 595.6 215.5V119C595.6 112.9 590.7 108 584.6 108Z" fill="white"/>
<path fill-rule="evenodd" clip-rule="evenodd" d="M605.6 97.9004C606.925 97.9004 608.01 98.9319 608.094 100.236L608.1 100.4V237.1C608.1 238.481 606.98 239.6 605.6 239.6C604.274 239.6 603.19 238.569 603.105 237.265L603.1 237.1V100.4C603.1 99.0197 604.219 97.9004 605.6 97.9004Z" fill="#3077E4"/>
<path fill-rule="evenodd" clip-rule="evenodd" d="M614.2 137.799L628.4 151.499L663.2 142.999L633.1 118.199L614.2 137.799Z" fill="white"/>
<path fill-rule="evenodd" clip-rule="evenodd" d="M631.301 116.464L612.401 136.064C611.442 137.058 611.471 138.64 612.464 139.598L626.664 153.298C627.281 153.894 628.16 154.131 628.993 153.928L663.793 145.428C665.793 144.939 666.379 142.379 664.79 141.07L634.69 116.27C633.683 115.44 632.207 115.524 631.301 116.464ZM633.294 121.598L657.758 141.754L629.144 148.743L617.734 137.735L633.294 121.598Z" fill="#3077E4"/>
<path fill-rule="evenodd" clip-rule="evenodd" d="M703.8 191.699L692.4 159.999C686.8 144.399 670.3 135.599 654.2 139.599C645.9 141.699 635.7 144.599 623.8 148.899C584 162.999 596.3 197.599 598 210.699L654.3 202.399L648.4 240.399H663.7C680.7 227.699 694.6 210.999 703.8 191.699Z" fill="#233F94"/>
<path fill-rule="evenodd" clip-rule="evenodd" d="M585.1 107.999C585.2 114.099 589.1 142.199 608.7 142.999C628.3 143.799 640.3 125.299 641.1 106.999C641.9 88.6992 632.8 73.9992 620.4 73.1992C608 72.3992 584.1 63.6992 585.1 107.999Z" fill="white"/>
<path fill-rule="evenodd" clip-rule="evenodd" d="M606.307 69.4962C590.587 69.7775 582.152 80.4441 582.585 107.239L582.601 108.04C582.687 113.282 584.33 121.681 587.296 128.485C591.756 138.72 598.763 145.096 608.598 145.497C628.273 146.3 642.657 128.645 643.598 107.108C644.44 87.8475 634.787 71.9307 620.981 70.736L619.522 70.6258C619.243 70.6003 618.938 70.5685 618.546 70.5241L614.372 70.0186C610.961 69.6141 608.745 69.4525 606.307 69.4962ZM613.815 74.9877L618.211 75.5183C618.601 75.5614 618.912 75.5925 619.208 75.6182L620.239 75.694C631.081 76.3934 639.348 89.8484 638.603 106.89C637.77 125.937 625.355 141.177 608.802 140.501C601.2 140.191 595.651 135.142 591.88 126.488C589.272 120.504 587.766 113.026 587.61 108.373L587.6 107.943C587.292 94.3081 589.357 85.3597 593.332 80.24C596.339 76.3661 600.405 74.6837 605.966 74.5061L606.397 74.4954C608.561 74.4566 610.6 74.606 613.815 74.9877Z" fill="#3077E4"/>
<path d="M648.53 52.1732L641.914 49.8877L637.865 61.6081L644.482 63.8936L648.53 52.1732Z" fill="#042B67"/>
<path fill-rule="evenodd" clip-rule="evenodd" d="M649.2 54.3996C656.048 54.3996 661.6 48.8479 661.6 41.9996C661.6 35.1513 656.048 29.5996 649.2 29.5996C642.351 29.5996 636.8 35.1513 636.8 41.9996C636.8 48.8479 642.351 54.3996 649.2 54.3996Z" fill="#3077E4"/>
<path fill-rule="evenodd" clip-rule="evenodd" d="M639.2 57.7999C628.4 53.6999 616.7 51.4999 606 55.0999C573.8 67.6999 572.4 91.3999 585.1 102.9C585.5 86.0999 590 78.0999 596 74.5999C601.8 84.9999 621.7 94.7999 640.4 95.9999C640.4 96.1999 640.5 96.2999 640.5 96.4999C645.7 96.0999 653.7 96.9999 653.8 106.1C653.9 118.7 641.2 117.3 639.6 117.1C639 119.4 639.7 120.9 638.7 123.1L648.1 131.6L682.7 125.2C685.2 125.3 687.1 122.9 686.4 120.5C682.2 105.2 673.9 71.3999 639.2 57.7999Z" fill="#3077E4"/>
<path fill-rule="evenodd" clip-rule="evenodd" d="M636.9 116.4L639.4 117C639.4 117 653.9 119.5 653.8 106.1C653.7 95.8995 643.7 95.9995 638.8 96.5995" fill="white"/>
<path fill-rule="evenodd" clip-rule="evenodd" d="M638.496 94.1185C642.31 93.6515 645.883 93.7955 648.98 94.9599C653.531 96.671 656.244 100.407 656.3 106.081C656.353 113.131 652.865 117.386 647.291 118.988C644.797 119.705 642.226 119.814 639.882 119.58L639.508 119.539C639.394 119.525 639.293 119.512 639.204 119.499L638.975 119.464L638.817 119.431L636.317 118.831C634.974 118.509 634.147 117.159 634.469 115.816C634.778 114.528 636.035 113.714 637.322 113.936L637.483 113.969L639.888 114.546L640.125 114.577L640.378 114.605C642.146 114.781 644.119 114.698 645.91 114.183C649.41 113.177 651.335 110.828 651.3 106.124C651.265 102.557 649.87 100.636 647.22 99.64C645.035 98.8185 642.188 98.7037 639.104 99.0814C637.733 99.2492 636.486 98.2743 636.319 96.9038C636.151 95.5333 637.126 94.2863 638.496 94.1185Z" fill="#3077E4"/>
<path fill-rule="evenodd" clip-rule="evenodd" d="M610.69 123.832C611.335 122.611 612.847 122.144 614.068 122.789C615.289 123.434 615.756 124.947 615.111 126.167C614.233 127.829 613.131 129.061 611.834 129.856C609.785 131.112 607.62 131.138 605.656 130.455C605.176 130.289 604.801 130.11 604.544 129.961C603.35 129.267 602.945 127.737 603.639 126.543C604.304 125.399 605.737 124.979 606.906 125.557L607.083 125.65C607.12 125.666 607.195 125.697 607.298 125.733C607.97 125.966 608.625 125.958 609.22 125.593C609.716 125.29 610.213 124.734 610.69 123.832Z" fill="#3077E4"/>
<path fill-rule="evenodd" clip-rule="evenodd" d="M598.614 93.9433C598.755 92.5698 599.983 91.5711 601.357 91.7126C602.675 91.8484 603.648 92.9856 603.599 94.2915L603.587 94.4556L601.491 114.8L604.328 114.605C605.651 114.514 606.804 115.469 606.978 116.764L606.995 116.927C607.086 118.25 606.131 119.403 604.836 119.577L604.673 119.593L598.873 119.993C597.378 120.097 596.143 118.875 596.202 117.402L596.214 117.243L598.614 93.9433Z" fill="#3077E4"/>
<path fill-rule="evenodd" clip-rule="evenodd" d="M614.866 88.2117C617.296 87.305 619.717 87.8492 621.955 89.1983C622.79 89.7015 623.425 90.2089 623.825 90.5907C624.825 91.5435 624.862 93.126 623.91 94.1253C622.998 95.0811 621.511 95.1571 620.509 94.3281L620.375 94.2094C620.219 94.0609 619.859 93.7729 619.374 93.4805C618.312 92.8408 617.345 92.6234 616.613 92.8964C616.417 92.9697 616.219 93.081 616.015 93.2401L615.861 93.3686C614.829 94.2859 613.249 94.1929 612.332 93.161C611.414 92.129 611.507 90.5488 612.539 89.6315C613.254 88.9965 614.034 88.522 614.866 88.2117Z" fill="#3077E4"/>
<path fill-rule="evenodd" clip-rule="evenodd" d="M588.643 91.0039C590.468 90.6965 592.274 91.0828 594.006 91.8796C594.775 92.2332 595.372 92.593 595.753 92.8654C596.876 93.6679 597.137 95.2293 596.334 96.3528C595.565 97.4296 594.099 97.7134 592.989 97.0289L592.847 96.9341C592.704 96.832 592.369 96.6301 591.917 96.422C591.015 96.0072 590.145 95.8213 589.473 95.9345C589.057 96.0047 588.697 96.1897 588.347 96.5583L588.216 96.7053C587.329 97.7636 585.753 97.9028 584.694 97.016C583.636 96.1293 583.497 94.5525 584.384 93.4942C585.546 92.1072 587.01 91.279 588.643 91.0039Z" fill="#3077E4"/>
<path fill-rule="evenodd" clip-rule="evenodd" d="M615.299 106.874C616.345 106.79 617.086 105.384 616.954 103.732C616.822 102.081 615.868 100.809 614.822 100.893C613.776 100.976 613.035 102.383 613.166 104.034C613.298 105.686 614.253 106.957 615.299 106.874Z" fill="#3077E4"/>
<path fill-rule="evenodd" clip-rule="evenodd" d="M594.8 108.572C595.846 108.489 596.587 107.082 596.455 105.43C596.323 103.779 595.369 102.508 594.323 102.591C593.277 102.675 592.535 104.081 592.667 105.733C592.799 107.384 593.754 108.655 594.8 108.572Z" fill="#3077E4"/>
<path fill-rule="evenodd" clip-rule="evenodd" d="M617.125 80.8693C608.814 81.6837 603.23 90.8172 604.23 101.022C605.23 111.227 612.481 119.103 620.792 118.289C629.103 117.474 634.688 108.341 633.688 98.1358C632.688 87.9308 625.437 80.0549 617.125 80.8693ZM617.613 85.8453C622.823 85.3348 627.956 90.9104 628.712 98.6234C629.467 106.336 625.514 112.802 620.304 113.313C615.095 113.823 609.962 108.248 609.206 100.535C608.45 92.8217 612.403 86.3558 617.613 85.8453Z" fill="#042B67"/>
<path fill-rule="evenodd" clip-rule="evenodd" d="M582.326 84.9689C574.014 85.7833 568.43 94.9168 569.43 105.122C570.43 115.327 577.681 123.203 585.992 122.388C594.303 121.574 599.888 112.441 598.888 102.235C597.888 92.0304 590.637 84.1545 582.326 84.9689ZM582.813 89.9449C588.023 89.4344 593.156 95.01 593.912 102.723C594.668 110.436 590.714 116.902 585.505 117.412C580.295 117.923 575.162 112.347 574.406 104.634C573.65 96.9213 577.604 90.4554 582.813 89.9449Z" fill="#042B67"/>
<path fill-rule="evenodd" clip-rule="evenodd" d="M606.144 96.612C607.517 96.4704 608.746 97.469 608.887 98.8425C609.023 100.161 608.108 101.346 606.82 101.564L606.657 101.586L596.957 102.586C595.583 102.727 594.355 101.729 594.214 100.355C594.078 99.0367 594.993 97.8521 596.281 97.6342L596.444 97.612L606.144 96.612Z" fill="#042B67"/>
<path fill-rule="evenodd" clip-rule="evenodd" d="M631.552 93.4041L643.052 94.1041C644.431 94.188 645.48 95.3732 645.396 96.7514C645.315 98.0744 644.22 99.0943 642.913 99.0995L642.749 99.0949L631.249 98.3949C629.87 98.311 628.821 97.1257 628.905 95.7476C628.986 94.4245 630.081 93.4047 631.388 93.3994L631.552 93.4041Z" fill="#042B67"/>
<path fill-rule="evenodd" clip-rule="evenodd" d="M599.9 210.3L602.1 221.3C602.1 221.3 548.6 218.6 531.8 240.3H652.1C658.1 240.3 662.6 234.6 661 228.7L654.1 202.3L599.9 210.3Z" fill="white"/>
<path fill-rule="evenodd" clip-rule="evenodd" d="M599.535 207.827L599.374 207.856C598.049 208.14 597.179 209.441 597.449 210.79L599.033 218.712L597.76 218.698C596.11 218.685 594.335 218.696 592.454 218.736C585.722 218.88 578.788 219.371 571.978 220.312C552.478 223.004 537.557 228.781 529.824 238.77C528.552 240.413 529.723 242.8 531.801 242.8H652.101C659.691 242.8 665.301 235.675 663.482 228.312L656.519 201.668C656.197 200.434 654.997 199.641 653.735 199.827L599.535 207.827ZM652.249 205.1L658.582 229.332L658.639 229.558C659.63 233.762 656.426 237.8 652.101 237.8H537.679L537.717 237.768C545.235 231.449 557.403 227.371 572.661 225.265C579.264 224.353 586.01 223.875 592.562 223.735C594.392 223.696 596.118 223.685 597.719 223.698L599.062 223.714C599.799 223.726 600.436 223.741 600.963 223.758L601.982 223.797L602.143 223.8C603.689 223.776 604.86 222.351 604.552 220.81L602.868 212.389L652.249 205.1Z" fill="#3077E4"/>
<path fill-rule="evenodd" clip-rule="evenodd" d="M663.7 240.3H509.2C530.8 256.3 557.5 265.7 586.4 265.7C615.4 265.8 642.1 256.3 663.7 240.3Z" fill="#3077E4"/>
<path fill-rule="evenodd" clip-rule="evenodd" d="M586.4 2.5C512.725 2.5 453 62.2252 453 135.9C453 209.575 512.725 269.3 586.4 269.3C660.075 269.3 719.8 209.575 719.8 135.9C719.8 62.2252 660.075 2.5 586.4 2.5ZM586.4 9.5C656.209 9.5 712.8 66.0912 712.8 135.9C712.8 205.709 656.209 262.3 586.4 262.3C516.591 262.3 460 205.709 460 135.9C460 66.0912 516.591 9.5 586.4 9.5Z" fill="#042B67"/>
<path fill-rule="evenodd" clip-rule="evenodd" d="M936.5 266C1008.9 266 1067.6 207.304 1067.6 134.9C1067.6 62.4953 1008.9 3.7998 936.5 3.7998C864.096 3.7998 805.4 62.4953 805.4 134.9C805.4 207.304 864.096 266 936.5 266Z" fill="white"/>
<path fill-rule="evenodd" clip-rule="evenodd" d="M943.101 265.8C1012.4 262.4 1067.6 205.1 1067.6 134.9C1067.6 134.1 1067.6 133.2 1067.6 132.4C1059.2 127.6 1049.5 124.8 1039.2 124.8H943.201V265.8H943.101Z" fill="#3077E4"/>
<path fill-rule="evenodd" clip-rule="evenodd" d="M1003.6 151.7C1010.5 138 1007.9 123.7 975.6 118C912.5 106.3 906.8 129.7 906.9 145C894.5 154.8 876.2 174.1 869.1 188.5L848.5 232C871.8 253.1 902.6 265.9 936.5 265.9C987.2 265.9 1031.2 237.1 1053 195C1034.7 170.1 1015 157.5 1003.6 151.7Z" fill="#042B67"/>
<path fill-rule="evenodd" clip-rule="evenodd" d="M1003.6 151.7C996.4 165.9 978.9 179.6 973.4 182.4C987.5 181.9 1016.7 166 1021.8 163.1C1014.8 157.8 1008.4 154.2 1003.6 151.7Z" fill="#3077E4"/>
<path fill-rule="evenodd" clip-rule="evenodd" d="M907.2 152.5C907.1 150.5 906.9 147.9 906.9 145.1C903.1 148.1 899.4 151.2 896 154.3C900.1 162.2 908.3 174.1 917.3 179.7C914.6 174 907.8 166.5 907.2 152.5Z" fill="#3077E4"/>
<path fill-rule="evenodd" clip-rule="evenodd" d="M983.4 136.1L990 142.9C990 142.9 958.7 166.7 948.5 224.2C941.9 261.5 944.1 265.7 944.1 265.7L924.7 264.7C924.7 264.7 935.5 202.6 928.8 183C922.1 163.4 928.2 141.3 932.8 137.7C937.2 134 983.4 136.1 983.4 136.1Z" fill="white"/>
<path fill-rule="evenodd" clip-rule="evenodd" d="M947.1 233.4L917.1 236.6L909.6 257.4C909.6 257.4 942.1 257.6 942.7 257.4C943.4 257.2 958.3 243.9 947.1 233.4Z" fill="white"/>
<path fill-rule="evenodd" clip-rule="evenodd" d="M946.835 230.915L916.835 234.115C915.883 234.216 915.073 234.852 914.748 235.752L907.248 256.552C906.663 258.176 907.859 259.89 909.585 259.9L917.093 259.94L936.101 259.994C940.699 259.989 942.491 259.949 943.214 259.834L943.385 259.8L943.464 259.78L943.636 259.712C945.486 258.889 949.502 254.432 951.583 250.412C955.044 243.723 954.634 237.036 948.81 231.577C948.279 231.079 947.558 230.837 946.835 230.915ZM946.169 236.013L946.28 236.136C949.422 239.668 949.458 243.638 947.142 248.114C946.183 249.967 944.869 251.768 943.415 253.352L943.182 253.604C942.795 254.014 942.421 254.386 942.083 254.697L941.808 254.944L940.73 254.963C940.094 254.97 939.303 254.976 938.367 254.981L932.128 254.988L923.351 254.967L913.151 254.92L918.92 238.919L946.169 236.013Z" fill="#3077E4"/>
<path fill-rule="evenodd" clip-rule="evenodd" d="M1011.25 213.313C1012.62 213.174 1013.85 214.175 1013.99 215.549C1014.12 216.868 1013.2 218.05 1011.91 218.266L1011.75 218.287C1011.53 218.31 1011.01 218.417 1010.29 218.665C1009.05 219.097 1007.79 219.778 1006.62 220.76C1004.19 222.798 1002.4 225.867 1001.56 230.272C1001.29 231.628 999.984 232.516 998.628 232.255C997.272 231.994 996.384 230.684 996.645 229.328C997.708 223.801 1000.09 219.709 1003.41 216.928C1005.07 215.533 1006.86 214.563 1008.66 213.941C1009.76 213.557 1010.66 213.372 1011.25 213.313Z" fill="#3077E4"/>
<path fill-rule="evenodd" clip-rule="evenodd" d="M971.945 176.532C973.093 177.191 973.52 178.622 972.948 179.794L972.242 181.061C971.737 181.974 971.173 183.016 970.565 184.168C968.827 187.462 967.088 190.971 965.468 194.543C964.007 197.763 962.713 200.88 961.633 203.833C959.789 208.868 958.63 213.248 958.288 216.743C958.154 218.117 956.931 219.122 955.556 218.988C954.182 218.853 953.177 217.63 953.312 216.256C953.702 212.27 954.961 207.512 956.937 202.114C958.064 199.035 959.405 195.805 960.915 192.477C962.579 188.808 964.361 185.211 966.143 181.835L966.919 180.377C967.086 180.068 967.249 179.768 967.407 179.478L968.127 178.173L968.532 177.454C969.22 176.257 970.748 175.844 971.945 176.532Z" fill="#3077E4"/>
<path fill-rule="evenodd" clip-rule="evenodd" d="M921.027 176.845C922.382 176.583 923.693 177.47 923.955 178.825L924.078 179.49C924.174 180.018 924.28 180.627 924.395 181.31L924.639 182.807C924.882 184.341 925.123 185.981 925.351 187.703C926.063 193.087 926.547 198.421 926.696 203.424C926.812 207.321 926.72 210.888 926.387 214.06C926.243 215.433 925.013 216.43 923.64 216.286C922.266 216.142 921.27 214.912 921.414 213.538C921.721 210.611 921.808 207.261 921.698 203.573C921.555 198.759 921.086 193.587 920.394 188.36C920.098 186.123 919.78 184.028 919.463 182.136L919.274 181.027L919.046 179.773C918.784 178.418 919.671 177.106 921.027 176.845Z" fill="#3077E4"/>
<path fill-rule="evenodd" clip-rule="evenodd" d="M956.496 223.708L956.721 223.693C959.749 223.527 969.768 224.349 985.2 225.901L990.074 226.398C994.689 226.873 999.428 227.376 1004.12 227.884L1015.28 229.116C1016.65 229.271 1017.64 230.509 1017.48 231.88C1017.34 233.198 1016.19 234.159 1014.88 234.097L1014.18 234.023L1007.08 233.236C1001.27 232.601 995.319 231.965 989.562 231.371L983.015 230.708C968.722 229.284 959.077 228.513 956.905 228.691C955.21 228.83 954.591 229.18 953.713 230.376L953.281 230.993C951.766 233.197 950.543 234.261 948.091 234.751L946.411 235.092L944.819 235.427L944.827 235.454C944.928 235.806 945.028 236.169 945.126 236.542L945.271 237.109C946.256 241.057 946.766 245.058 946.536 248.855C946.38 251.445 945.879 253.836 944.984 255.98L944.854 256.28L944.881 256.295C945.665 256.721 946.626 257.163 947.781 257.608L948.172 257.757C949.466 258.238 950.125 259.677 949.644 260.972C949.162 262.266 947.723 262.924 946.429 262.443C944.396 261.686 942.775 260.902 941.521 260.125C940.694 259.612 940.146 259.18 939.833 258.867C939.008 258.042 938.863 256.756 939.485 255.768C940.701 253.835 941.373 251.399 941.545 248.553C941.74 245.333 941.292 241.814 940.419 238.32C940.205 237.46 939.978 236.658 939.749 235.926L939.612 235.496C939.451 235.001 939.329 234.659 939.266 234.495C938.735 233.108 939.522 231.567 940.956 231.184L941.335 231.089L942.36 230.849C943.554 230.578 945.122 230.246 947.11 229.848C947.889 229.692 948.23 229.457 948.882 228.557L949.352 227.882C951.153 225.275 952.96 223.998 956.496 223.708Z" fill="#3077E4"/>
<path fill-rule="evenodd" clip-rule="evenodd" d="M946.6 260.7C942 259 940.5 257.6 940.5 257.6C946.5 248.2 940.5 232.7 940.5 232.7C940.5 232.7 942.1 232.3 946.9 231.3C948.9 230.9 949.8 229.9 950.6 228.7C960.6 240 954.6 259.9 951.9 267.1C949.6 265 950.1 262 946.6 260.7Z" fill="#3077E4"/>
<path fill-rule="evenodd" clip-rule="evenodd" d="M936.5 266C941.7 266 946.9 265.7 952 265.1C951.6 265 951.4 264.9 951.4 264.9L945.6 259.5H926.3L909.8 189.7C909.4 188.2 908.1 187.1 906.5 187.1H816.2C836.4 233.5 882.6 266 936.5 266Z" fill="#233F94"/>
<path fill-rule="evenodd" clip-rule="evenodd" d="M980.1 93.1992C980.1 93.1992 991.8 93.3992 989.7 103.899C987.6 114.399 974.6 108.299 974.6 108.299L976.3 93.3992L980.1 93.1992Z" fill="white"/>
<path fill-rule="evenodd" clip-rule="evenodd" d="M980.159 90.7002L979.968 90.7029L976.168 90.9029C974.949 90.9671 973.954 91.9028 973.816 93.1161L972.116 108.016C971.994 109.082 972.566 110.107 973.538 110.563L973.85 110.704C974.419 110.952 975.226 111.261 976.208 111.567C978.257 112.205 980.324 112.583 982.32 112.561C987.33 112.504 991.053 109.878 992.151 104.39C993.276 98.767 991.196 94.727 987.044 92.5005C985.653 91.7545 984.132 91.2668 982.567 90.9755C981.702 90.8144 980.956 90.7353 980.389 90.7085L980.159 90.7002ZM978.543 95.7845L980.122 95.7015L980.057 95.6992C981.304 95.7332 983.124 96.0719 984.681 96.9069C986.951 98.1246 987.926 100.018 987.248 103.409C986.649 106.406 985.056 107.529 982.264 107.561L981.877 107.558C980.574 107.523 979.14 107.244 977.696 106.794L977.302 106.666L978.543 95.7845Z" fill="#3077E4"/>
<path fill-rule="evenodd" clip-rule="evenodd" d="M946.7 60.0996C943.6 59.7996 922.4 58.4996 920.1 76.1996C917.8 93.8996 920.3 113.4 922.2 122.3C924.2 131.2 964.7 127.1 967 126.3C969.3 125.5 972 122.8 972 122.8L977.6 95.6996C977.6 95.5996 979.9 62.7996 946.7 60.0996Z" fill="white"/>
<path fill-rule="evenodd" clip-rule="evenodd" d="M980.094 95.8689L980.116 95.4228C980.183 93.5762 980.095 91.2275 979.732 88.5281C979.189 84.498 978.125 80.5158 976.407 76.7691C971.411 65.8741 961.837 58.8219 946.903 57.6074C942.712 57.2015 937.424 57.4434 932.361 59.011C924.23 61.5285 918.776 66.9898 917.621 75.877C915.649 91.056 916.957 109.713 919.755 122.821C921.041 128.544 929.713 130.41 943.979 130.436L944.491 130.437C953.647 130.426 965.743 129.383 967.821 128.66C968.227 128.519 968.636 128.34 969.05 128.126C969.804 127.737 970.568 127.239 971.342 126.656C972.374 125.877 973.228 125.107 973.768 124.567C974.113 124.222 974.35 123.783 974.448 123.305L980.048 96.2051C980.071 96.0941 980.087 95.9818 980.094 95.8689ZM946.14 62.5588L946.459 62.5875C959.581 63.655 967.602 69.5626 971.862 78.8531C973.358 82.1149 974.296 85.6261 974.777 89.1951C975.078 91.4321 975.165 93.3843 975.129 94.9186L975.113 95.3792L969.711 121.518C969.274 121.914 968.808 122.304 968.331 122.663C967.767 123.089 967.231 123.438 966.757 123.683C966.596 123.766 966.446 123.835 966.31 123.889L966.179 123.938C965.834 124.058 962.68 124.464 959.096 124.772C954.356 125.181 949.225 125.431 944.485 125.437C938.727 125.443 933.831 125.092 930.229 124.344C926.675 123.605 924.82 122.555 924.639 121.751C921.957 109.185 920.687 91.0811 922.579 76.5213C923.458 69.7579 927.443 65.7679 933.84 63.7873C936.284 63.0305 938.948 62.6213 941.674 62.4966C943.39 62.418 944.936 62.4588 946.14 62.5588Z" fill="#3077E4"/>
<path fill-rule="evenodd" clip-rule="evenodd" d="M975.7 108.8L976.5 129.5L982.7 136.6C982.7 136.6 964.3 148 946.7 168C946.7 168 932.3 152.8 929.8 129L966.2 120L975.7 108.8Z" fill="white"/>
<path fill-rule="evenodd" clip-rule="evenodd" d="M973.793 107.182L964.815 117.766L929.2 126.572C927.988 126.872 927.183 128.019 927.314 129.26C928.353 139.156 931.414 148.318 935.864 156.596C937.816 160.227 939.909 163.447 942.007 166.224L942.445 166.797C943.51 168.177 944.355 169.159 944.885 169.719C945.896 170.786 947.605 170.754 948.577 169.651C949.292 168.838 950.015 168.032 950.747 167.231C958.039 159.26 965.857 152.194 973.673 146.117C976.405 143.993 978.94 142.145 981.211 140.584L982.478 139.726L983.305 139.18C983.66 138.949 983.9 138.796 984.017 138.724L984.158 138.63C985.346 137.78 985.56 136.074 984.583 134.955L978.964 128.519L978.198 108.703C978.11 106.424 975.268 105.443 973.793 107.182ZM973.449 115.317L974.002 129.596L974.016 129.785C974.074 130.287 974.283 130.761 974.617 131.144L978.932 136.085L978.38 136.463C976.03 138.078 973.416 139.983 970.604 142.17L969.557 142.989C961.88 149.043 954.227 156.019 947.058 163.857L946.755 164.191L946.564 163.949C946.38 163.713 946.19 163.466 945.997 163.21C944.047 160.63 942.093 157.624 940.268 154.228L939.882 153.501C936.315 146.687 933.759 139.256 932.608 131.31L932.55 130.894L966.8 122.426C967.31 122.3 967.767 122.017 968.106 121.616L973.449 115.317Z" fill="#3077E4"/>
<path fill-rule="evenodd" clip-rule="evenodd" d="M973.6 95.3994C971.6 97.2994 966.2 108.599 964.9 113.799C964.9 113.799 951.6 109.399 932.5 109.099C932.5 109.099 922.1 109.299 917.9 110.499C917.9 110.499 918.8 128.999 927.2 138.599C935.6 148.199 953.5 145.499 961.9 139.699C970.3 133.899 971.7 131.199 973.6 124.999C975.5 118.799 980.7 95.7994 980.7 95.7994L973.6 95.3994Z" fill="#968BB4"/>
<path fill-rule="evenodd" clip-rule="evenodd" d="M979 99.2996C979 99.2996 984.5 90.7996 986.6 81.8996C988.6 73.5996 984.7 64.7996 977 61.0996C970.5 57.9996 965.8 60.3996 965.8 60.3996C965.8 60.3996 972.6 48.6996 962.4 38.3996C958.8 34.7996 953.8 32.7996 948.6 32.8996C936.1 33.2996 932.2 43.8996 932.2 43.8996C932.2 43.8996 918.8 19.1996 891.2 33.7996C888.4 35.2996 885.3 39.3996 883.8 42.0996C874.7 58.8996 904.7 78.6996 920.3 80.2996C937.4 81.9996 947.5 79.1996 953 74.9996C948.9 77.5996 953.6 103.3 979 99.2996Z" fill="#3077E4"/>
<path fill-rule="evenodd" clip-rule="evenodd" d="M926.4 103.5C927.339 103.5 928.1 102.336 928.1 100.9C928.1 99.4639 927.339 98.2998 926.4 98.2998C925.461 98.2998 924.7 99.4639 924.7 100.9C924.7 102.336 925.461 103.5 926.4 103.5Z" fill="#3077E4"/>
<path fill-rule="evenodd" clip-rule="evenodd" d="M941.6 103C942.539 103 943.3 101.836 943.3 100.4C943.3 98.9639 942.539 97.7998 941.6 97.7998C940.662 97.7998 939.9 98.9639 939.9 100.4C939.9 101.836 940.662 103 941.6 103Z" fill="#3077E4"/>
<path fill-rule="evenodd" clip-rule="evenodd" d="M942.732 84.8273C945.636 84.3948 948.172 85.1375 950.239 86.6245C951.237 87.3431 951.929 88.0791 952.334 88.6469C953.137 89.7705 952.877 91.3318 951.753 92.1344C950.676 92.9034 949.197 92.6965 948.37 91.689L948.266 91.5531C948.155 91.3978 947.827 91.0491 947.318 90.6829C946.316 89.9619 945.149 89.5933 943.751 89.7371L943.468 89.7727C942.103 89.9761 940.831 89.0339 940.627 87.6683C940.424 86.3026 941.366 85.0307 942.732 84.8273Z" fill="#3077E4"/>
<path fill-rule="evenodd" clip-rule="evenodd" d="M924.341 84.5452C925.526 84.2564 926.711 84.2641 927.83 84.44L928.16 84.4977C928.309 84.5266 928.433 84.5551 928.531 84.5805C929.867 84.9291 930.667 86.2946 930.319 87.6306C929.984 88.9132 928.712 89.7023 927.429 89.455L927.226 89.4095C927.189 89.4022 927.13 89.3914 927.053 89.3793C926.532 89.2973 925.973 89.2937 925.525 89.403C925.051 89.5184 924.804 89.7071 924.643 90.1635L924.601 90.2947C924.217 91.621 922.831 92.3849 921.505 92.001C920.178 91.6171 919.415 90.2307 919.798 88.9044C920.486 86.528 922.17 85.0741 924.341 84.5452Z" fill="#3077E4"/>
<path fill-rule="evenodd" clip-rule="evenodd" d="M943.233 121.497C943.455 120.134 944.74 119.21 946.103 119.432C947.465 119.655 948.39 120.94 948.167 122.303C948.035 123.111 947.706 124.178 947.044 125.28C945.601 127.685 943.16 129.03 939.962 128.461C938.603 128.22 937.697 126.922 937.938 125.562C938.17 124.257 939.376 123.37 940.675 123.515L940.837 123.538C941.828 123.715 942.313 123.448 942.757 122.708C943.007 122.291 943.157 121.847 943.215 121.586L943.233 121.497Z" fill="#3077E4"/>
<path fill-rule="evenodd" clip-rule="evenodd" d="M930.616 101.721C930.769 100.349 932.006 99.3613 933.378 99.5147C934.695 99.662 935.659 100.808 935.598 102.113L935.585 102.277L934.182 114.817L936.404 114.271C937.691 113.955 938.991 114.698 939.384 115.945L939.428 116.103C939.744 117.39 939.001 118.689 937.755 119.083L937.597 119.127L931.897 120.527C930.261 120.929 928.722 119.635 928.803 117.982L928.816 117.821L930.616 101.721Z" fill="#3077E4"/>
<path fill-rule="evenodd" clip-rule="evenodd" d="M936.5 0.299805C862.163 0.299805 801.9 60.5623 801.9 134.9C801.9 209.237 862.163 269.5 936.5 269.5C1010.84 269.5 1071.1 209.237 1071.1 134.9C1071.1 60.5623 1010.84 0.299805 936.5 0.299805ZM936.5 7.2998C1006.97 7.2998 1064.1 64.4283 1064.1 134.9C1064.1 205.371 1006.97 262.5 936.5 262.5C866.029 262.5 808.9 205.371 808.9 134.9C808.9 64.4283 866.029 7.2998 936.5 7.2998Z" fill="#042B67"/>
<path fill-rule="evenodd" clip-rule="evenodd" d="M216.2 267.299C288.384 267.299 346.9 208.783 346.9 136.599C346.9 64.4158 288.384 5.89941 216.2 5.89941C144.016 5.89941 85.5 64.4158 85.5 136.599C85.5 208.783 144.016 267.299 216.2 267.299Z" fill="white"/>
<path fill-rule="evenodd" clip-rule="evenodd" d="M237.4 115.6H159.5C133.9 115.6 113.2 136.3 113.2 161.9V214.5C128.5 235.1 149.8 251 174.5 259.7H237.4C239.6 259.7 241.3 258 241.3 255.8V119.5C241.3 117.3 239.6 115.6 237.4 115.6Z" fill="#3077E4"/>
<path fill-rule="evenodd" clip-rule="evenodd" d="M279.7 134.899C272.3 127.299 262.7 122.699 252.5 122.199L202.2 123.699C188.6 124.099 175.6 129.799 165.4 139.699C153.5 151.299 143.1 192.499 141.1 217.199C139.5 236.899 182.4 259.799 193.2 265.199C195.8 265.699 198.5 265.999 201.1 266.299L233.5 265.999C272.2 260.799 305.6 238.799 325.9 207.399C317.2 184.999 302.9 158.899 279.7 134.899Z" fill="#233F94"/>
<path fill-rule="evenodd" clip-rule="evenodd" d="M201.719 159.916C203.091 159.76 204.329 160.746 204.484 162.118C205.034 166.969 203.935 173.104 201.531 180.298C200.284 184.028 198.712 187.955 196.89 191.996C195.223 195.694 193.438 199.285 191.654 202.633L191.129 203.611C190.958 203.927 190.79 204.233 190.628 204.53L189.665 206.255L189.257 206.965C188.522 208.216 186.88 208.582 185.684 207.76C177.332 202.021 169.959 200.934 164.109 202.405L163.718 202.509C163.234 202.643 162.894 202.764 162.712 202.841L162.651 202.868C161.398 203.448 159.912 202.903 159.332 201.65C158.751 200.397 159.297 198.911 160.55 198.331C161.021 198.113 161.809 197.828 162.889 197.556C169.359 195.929 177.171 196.822 185.654 201.814L186.226 202.157L186.984 200.762L187.241 200.281C188.977 197.025 190.714 193.531 192.332 189.941C194.089 186.044 195.6 182.27 196.789 178.713C198.982 172.15 199.966 166.655 199.516 162.681C199.361 161.309 200.347 160.071 201.719 159.916Z" fill="#3077E4"/>
<path fill-rule="evenodd" clip-rule="evenodd" d="M184.693 204.309C185.481 203.249 186.948 202.991 188.044 203.692L188.343 203.906L200.934 213.236L212.059 221.437C216.98 225.049 220.23 227.406 220.923 227.857L221.026 227.921C222.229 228.598 222.656 230.122 221.979 231.326C221.302 232.529 219.778 232.956 218.575 232.279L218.376 232.157C217.295 231.463 213.342 228.593 206.766 223.753L199.203 218.174L185.21 207.807C184.101 206.983 183.87 205.418 184.693 204.309Z" fill="#3077E4"/>
<path fill-rule="evenodd" clip-rule="evenodd" d="M277.07 150.71C278.445 150.583 279.663 151.594 279.79 152.969L279.847 153.643L279.95 154.985C279.995 155.614 280.039 156.288 280.081 157.001C280.326 161.136 280.436 165.352 280.333 169.303L280.303 170.309C279.993 179.245 278.69 184.966 275.303 187.033C274.124 187.753 272.585 187.38 271.866 186.202C271.177 185.072 271.49 183.612 272.555 182.859L272.698 182.765C274.041 181.946 275.14 176.693 275.335 169.173C275.433 165.383 275.327 161.302 275.09 157.296L274.995 155.808C274.974 155.493 274.952 155.189 274.93 154.896L274.811 153.43C274.684 152.055 275.695 150.837 277.07 150.71Z" fill="#3077E4"/>
<path fill-rule="evenodd" clip-rule="evenodd" d="M206.5 126L219.9 91.7998L249.2 110.5L245.6 127L246.6 162.1L206.5 126Z" fill="white"/>
<path fill-rule="evenodd" clip-rule="evenodd" d="M217.572 90.8877L204.172 125.088C203.792 126.057 204.053 127.161 204.827 127.858L244.927 163.958L245.049 164.061C246.687 165.369 249.16 164.173 249.099 162.029L248.107 127.235L251.643 111.033C251.866 110.01 251.428 108.956 250.545 108.392L221.245 89.6924C219.918 88.8452 218.147 89.4215 217.572 90.8877ZM221.118 95.5428L246.386 111.669L243.158 126.467L243.122 126.667C243.104 126.8 243.097 126.936 243.101 127.071L243.935 156.336L209.459 125.299L221.118 95.5428Z" fill="#3077E4"/>
<path fill-rule="evenodd" clip-rule="evenodd" d="M264.8 48.4994C264.8 48.4994 240 64.2994 252.1 78.9994C252.1 78.9994 257.5 85.0994 262 83.8994C262 83.8994 258.7 78.6994 262.5 75.9994C262.5 75.9994 263.7 91.6994 276.6 88.3994C276.6 88.3994 271.8 81.4994 273.1 73.0994C275.5 55.7994 271.5 45.3994 264.8 48.4994Z" fill="#3077E4"/>
<path fill-rule="evenodd" clip-rule="evenodd" d="M213.3 73.5996C213.3 73.5996 208.3 42.9996 239.2 37.4996C242.1 36.9996 261.9 33.8996 265.6 50.2996C268.1 61.1996 268.6 73.1996 268.4 82.3996C268.4 82.4996 268.2 99.8996 261.4 109.6C254.6 119.3 239.3 118.5 231.2 113.8C223.1 109.1 221.6 106.6 219.3 101C217.1 95.3996 213.3 73.6996 213.3 73.5996Z" fill="white"/>
<path fill-rule="evenodd" clip-rule="evenodd" d="M268.251 50.6975L268.039 49.7491C266.168 41.4535 260.526 36.7762 252.614 35.1151C249.815 34.5275 246.881 34.3509 243.916 34.4846C241.937 34.5738 240.293 34.774 238.776 35.0356C225.548 37.39 217.278 44.2738 213.24 54.1851C210.79 60.1976 210.178 66.4553 210.614 72.0053L210.682 72.7746L210.743 73.3423C210.763 73.5106 210.782 73.6576 210.8 73.7825L210.828 73.9753L210.843 74.0954C211.298 77.8283 215.304 97.6629 216.974 101.913L217.275 102.635C219.972 108.989 222.353 111.556 229.946 115.962C240.544 122.111 256.519 120.917 263.448 111.034C266.602 106.535 268.637 100.41 269.832 93.3199C270.253 90.8231 270.541 88.3603 270.719 86.0189C270.771 85.3342 270.812 84.6903 270.842 84.093L270.893 82.8093L270.9 82.4317C271.141 71.372 270.348 60.317 268.251 50.6975ZM216.388 76.6855L215.846 73.6781C215.829 73.6042 215.8 73.4868 215.8 73.5993C215.8 73.4642 215.79 73.3294 215.768 73.1961L215.728 72.9184C215.708 72.7584 215.684 72.5505 215.659 72.298L215.641 72.1002C215.185 67.1441 215.687 61.4284 217.87 56.072C221.271 47.7256 228.141 42.0071 239.639 39.9606C240.952 39.7342 242.398 39.5582 244.141 39.4796C246.714 39.3636 249.239 39.5154 251.587 40.0084C257.601 41.2713 261.603 44.5156 263.078 50.496L263.164 50.8582C265.245 59.9304 266.085 70.5407 265.922 81.2381L265.9 82.4219C265.889 83.1215 265.84 84.2391 265.734 85.6392C265.566 87.837 265.296 90.151 264.902 92.4885C263.819 98.9109 261.998 104.392 259.353 108.164C254.119 115.63 241.024 116.609 232.455 111.637L231.708 111.2C225.417 107.485 223.919 105.664 221.613 100.049L221.494 99.7333C220.643 97.3818 219.412 92.1412 218.026 85.243L217.927 84.7474C217.39 82.0556 216.864 79.2879 216.388 76.6855Z" fill="#3077E4"/>
<path fill-rule="evenodd" clip-rule="evenodd" d="M255.079 73.2548C256.375 72.9782 257.651 73.7608 258.006 75.0185L258.045 75.1781L261.245 90.1781C261.601 91.8456 260.224 93.354 258.558 93.1882L258.396 93.1669L252.896 92.2669C251.534 92.044 250.61 90.7586 250.833 89.396C251.047 88.0879 252.24 87.1842 253.541 87.3113L253.704 87.3325L255.591 87.6407L253.155 76.2213C252.879 74.925 253.661 73.6491 254.919 73.2942L255.079 73.2548Z" fill="#3077E4"/>
<path fill-rule="evenodd" clip-rule="evenodd" d="M262.849 76.907C263.729 76.8248 264.342 75.6883 264.219 74.3685C264.096 73.0487 263.283 72.0454 262.403 72.1276C261.523 72.2098 260.909 73.3463 261.033 74.666C261.156 75.9858 261.969 76.9891 262.849 76.907Z" fill="#3077E4"/>
<path fill-rule="evenodd" clip-rule="evenodd" d="M249.399 76.3077C249.525 74.9881 248.914 73.8506 248.034 73.7668C247.154 73.6831 246.339 74.6849 246.214 76.0045C246.088 77.324 246.699 78.4615 247.579 78.5452C248.459 78.629 249.274 77.6272 249.399 76.3077Z" fill="#3077E4"/>
<path fill-rule="evenodd" clip-rule="evenodd" d="M238.823 61.9387C240.732 60.4792 243.111 59.7079 245.876 60.015C247.248 60.1675 248.237 61.4036 248.084 62.7758C247.938 64.0932 246.793 65.0572 245.488 64.9973L245.324 64.9844C243.922 64.8287 242.799 65.1929 241.86 65.9106C241.442 66.2306 241.161 66.5364 241.037 66.7024L240.999 66.7579C240.249 67.9171 238.701 68.2487 237.542 67.4987C236.382 66.7486 236.051 65.2008 236.801 64.0416C237.184 63.4493 237.847 62.685 238.823 61.9387Z" fill="#3077E4"/>
<path fill-rule="evenodd" clip-rule="evenodd" d="M263.685 57.8039C265.833 57.9125 267.704 58.7805 268.951 60.5701C269.74 61.7028 269.462 63.2611 268.329 64.0506C267.244 64.8072 265.767 64.5831 264.951 63.5662L264.849 63.4291C264.571 63.0311 264.146 62.8336 263.432 62.7976C262.765 62.7638 261.969 62.8937 261.163 63.1383L260.856 63.2365C260.619 63.3163 260.433 63.3887 260.313 63.44L260.25 63.4682C258.997 64.0483 257.511 63.5028 256.931 62.2499C256.351 60.9969 256.897 59.511 258.15 58.9309C258.493 58.772 259.03 58.5605 259.711 58.3536C260.892 57.9953 262.094 57.7825 263.288 57.7923L263.685 57.8039Z" fill="#3077E4"/>
<path fill-rule="evenodd" clip-rule="evenodd" d="M237.4 50.5995C237.4 50.5995 249.4 91.4995 222.1 95.9995C222.1 95.9995 206.2 98.8995 202.6 93.2995C202.6 93.2995 214.1 87.0995 212.6 80.4995C212.6 80.4995 199.7 94.7995 188.4 84.6995C188.4 84.6995 207.2 81.3995 205.4 64.4995C204.1 52.3995 233.2 40.7995 237.4 50.5995Z" fill="#3077E4"/>
<path fill-rule="evenodd" clip-rule="evenodd" d="M187.6 56.7995L204.2 54.1995C205.8 42.9995 212.2 26.8995 235.2 24.0995C271 19.6995 272.3 54.5995 272.3 54.5995L189.3 67.5995C186.3 68.0995 183.6 66.0995 183.1 63.0995C182.6 59.9995 184.6 57.1995 187.6 56.7995Z" fill="#042B67"/>
<path fill-rule="evenodd" clip-rule="evenodd" d="M241.305 91.2063C242.519 90.6795 243.922 91.1914 244.52 92.3497L244.594 92.5044C244.693 92.7338 245.03 93.2429 245.625 93.7779C246.979 94.9934 248.898 95.5803 251.705 95.1311C253.069 94.9129 254.351 95.8413 254.569 97.2047C254.787 98.5681 253.859 99.8501 252.495 100.068C248.178 100.759 244.747 99.7094 242.285 97.4982C241.597 96.8809 241.039 96.2174 240.595 95.5458C240.312 95.1174 240.12 94.7561 240.007 94.4949C239.457 93.2283 240.039 91.7559 241.305 91.2063Z" fill="#3077E4"/>
<path fill-rule="evenodd" clip-rule="evenodd" d="M235.5 176.9C233.9 176.9 232.4 178 232 179.6L215 251.6H183.4C183.4 251.6 181.8 260 188.1 264.1C192.6 265.1 197.3 265.8 202 266.4C207.6 266.4 217.7 266.4 230 266.4C281.9 260.9 324.8 225 340.4 176.8H235.5V176.9Z" fill="#042B67"/>
<path fill-rule="evenodd" clip-rule="evenodd" d="M216.2 2.39941C142.083 2.39941 82 62.4828 82 136.599C82 210.716 142.083 270.799 216.2 270.799C290.317 270.799 350.4 210.716 350.4 136.599C350.4 62.4828 290.317 2.39941 216.2 2.39941ZM216.2 9.39941C286.451 9.39941 343.4 66.3488 343.4 136.599C343.4 206.85 286.451 263.799 216.2 263.799C145.949 263.799 89 206.85 89 136.599C89 66.3488 145.949 9.39941 216.2 9.39941Z" fill="#042B67"/>
<path d="M509.2 199.021C528.315 199.021 543.81 183.526 543.81 164.411C543.81 145.296 528.315 129.801 509.2 129.801C490.086 129.801 474.59 145.296 474.59 164.411C474.59 183.526 490.086 199.021 509.2 199.021Z" fill="#3078E6"/>
<path d="M527.136 160.983C529.526 162.363 529.526 165.812 527.136 167.192L502.921 181.172C500.531 182.552 497.544 180.827 497.544 178.068V150.107C497.544 147.348 500.531 145.623 502.921 147.003L527.136 160.983Z" fill="white"/>
</g>
<defs>
<clipPath id="clip0_2_120">
<rect width="1141" height="271" fill="white"/>
</clipPath>
</defs>
</svg>
