<svg width="1370" height="524" viewBox="0 0 1370 524" fill="none" xmlns="http://www.w3.org/2000/svg">
<g clip-path="url(#clip0_2_202)">
<path fill-rule="evenodd" clip-rule="evenodd" d="M986.227 0.0996094H226.145C217.311 0.0996094 210.2 6.79961 210.2 14.8996V434.1C210.2 442.3 217.418 448.9 226.145 448.9H310.772V523.154H332.374L385.407 448.9H524.683V448.67H713.007V449H849.671L896.175 523.154H918.003V449H986.335C995.169 449 1002.28 442.3 1002.28 434.2V14.9996C1002.28 6.79961 995.062 0.0996094 986.227 0.0996094Z" fill="#042B67"/>
<path d="M975.162 25.7227H236.8C232.934 25.7227 229.8 28.8567 229.8 32.7227V418.74C229.8 422.606 232.934 425.74 236.8 425.74H975.162C979.028 425.74 982.162 422.606 982.162 418.74V32.7227C982.162 28.8567 979.028 25.7227 975.162 25.7227Z" fill="white"/>
<path fill-rule="evenodd" clip-rule="evenodd" d="M402.866 238.36C403.763 237.95 404.823 238.345 405.233 239.243L410.832 251.533C421.581 275.165 439.221 314.112 447.686 333.019C451.883 342.199 457.015 349.635 463.03 355.529C463.735 356.219 463.746 357.35 463.056 358.055C462.365 358.759 461.234 358.771 460.53 358.08C454.195 351.873 448.813 344.074 444.431 334.492L440.232 325.14C428.8 299.733 409.669 257.553 401.984 240.727C401.574 239.83 401.969 238.77 402.866 238.36Z" fill="#2E186A"/>
<path fill-rule="evenodd" clip-rule="evenodd" d="M390.807 183.08C391.785 182.948 392.684 183.634 392.816 184.612C392.947 185.59 392.261 186.489 391.283 186.62C374.576 188.867 361.574 195.944 361.797 204.494L361.807 204.745L361.826 204.816C361.998 205.566 361.666 206.362 360.979 206.759L360.883 206.811C360.001 207.252 358.928 206.894 358.486 206.012C358.298 205.634 358.248 205.366 358.24 204.999L358.238 204.909L358.23 204.719C357.998 198.767 361.909 193.752 368.836 189.87L369.115 189.715C375.001 186.479 382.903 184.142 390.807 183.08Z" fill="#2E186A"/>
<path fill-rule="evenodd" clip-rule="evenodd" d="M423.222 199.301C423.99 198.744 425.052 198.888 425.647 199.61L425.716 199.7L470.729 261.861C471.308 262.66 471.129 263.776 470.33 264.355C469.562 264.911 468.5 264.767 467.905 264.045L467.836 263.956L422.823 201.795C422.244 200.996 422.423 199.879 423.222 199.301Z" fill="#2E186A"/>
<path fill-rule="evenodd" clip-rule="evenodd" d="M398.786 216.942C398.548 217.24 398.31 217.538 398.012 217.835C398.369 217.895 398.667 217.955 399.024 218.014L398.786 216.942Z" fill="#042B67"/>
<path fill-rule="evenodd" clip-rule="evenodd" d="M397.059 209.083L395.749 203.069C394.916 204.498 393.546 206.106 391.462 207.892C392.832 207.773 394.201 207.892 395.392 208.309C395.928 208.607 396.523 208.845 397.059 209.083Z" fill="#042B67"/>
<path fill-rule="evenodd" clip-rule="evenodd" d="M370.682 134.657L383.96 195.388C386.282 194.495 388.664 194.138 390.867 194.972C392.177 195.448 393.367 195.984 394.261 196.639L391.938 186.219C388.247 181.218 380.387 169.25 384.734 161.867C385.21 161.033 385.687 160.378 386.163 159.961L373.481 102.385C373.064 100.539 369.908 99.4082 368.122 99.2891C363.061 96.193 351.272 92.4419 330.135 103.874C309.593 115.008 294.648 114.413 285.777 105.541C284.11 103.874 281.252 105.422 281.847 107.744L288.575 135.728C289.111 138.05 290.302 140.194 291.909 141.921C298.578 149.065 315.13 153.65 339.006 140.73C351.51 133.942 362.823 133.466 370.682 134.657Z" fill="#042B67"/>
<path fill-rule="evenodd" clip-rule="evenodd" d="M403.609 239.092C402.656 239.806 401.584 240.58 400.215 241.414C398.191 242.664 396.226 243.319 394.439 243.617L403.966 287.261L413.731 285.236L403.609 239.092Z" fill="#042B67"/>
<path fill-rule="evenodd" clip-rule="evenodd" d="M401.227 228.256C400.929 228.494 400.631 228.792 400.334 229.089C400.691 229.089 401.048 229.149 401.405 229.209L401.227 228.256Z" fill="#042B67"/>
<path fill-rule="evenodd" clip-rule="evenodd" d="M399.767 228.828C399.943 227.858 400.873 227.214 401.844 227.39C402.921 227.586 403.46 227.719 404.099 228.023L404.2 228.072L404.376 228.154C407.564 229.662 409.362 231.627 409.135 234.246L409.118 234.41C408.798 237.134 406.196 239.84 401.198 242.883C392.604 248.076 384.169 244.993 381.266 236.896C380.933 235.967 381.416 234.944 382.345 234.611C383.273 234.278 384.296 234.761 384.629 235.69C386.775 241.677 392.702 243.843 399.345 239.828L399.812 239.54C403.619 237.161 405.423 235.243 405.57 233.993C405.661 233.226 404.866 232.34 402.875 231.396L402.519 231.229C402.25 231.113 401.919 231.035 401.205 230.905C400.234 230.729 399.59 229.799 399.767 228.828Z" fill="#2E186A"/>
<path fill-rule="evenodd" clip-rule="evenodd" d="M399.024 216.168C399.293 216.168 399.522 216.205 399.766 216.272L400.008 216.346L400.172 216.4C400.226 216.414 400.28 216.43 400.333 216.448C404.303 217.849 406.582 219.962 406.373 223.053C406.168 226.099 403.357 229.402 397.791 233.347C386.539 241.278 374.239 237.791 372.307 226.897L372.265 226.648L372.245 226.565C372.161 226.215 372.122 225.989 372.113 225.702L372.112 225.575C372.112 224.589 372.911 223.789 373.898 223.789C374.849 223.789 375.627 224.533 375.681 225.471L375.684 225.575C375.684 225.577 375.696 225.643 375.75 225.857L375.768 225.935L375.782 226.015C377.074 234.309 386.367 237.028 395.729 230.43C400.478 227.063 402.699 224.455 402.809 222.813C402.876 221.824 401.888 220.854 399.547 219.965L399.208 219.839L399.076 219.801L398.869 219.733L398.816 219.728C397.962 219.629 397.291 218.927 397.241 218.059L397.238 217.954C397.238 216.968 398.038 216.168 399.024 216.168Z" fill="#2E186A"/>
<path fill-rule="evenodd" clip-rule="evenodd" d="M391.254 206.172C392.96 206.03 394.509 206.188 395.935 206.687C400.039 208.159 402.371 210.331 402.145 213.505C401.922 216.639 399.001 220.06 393.211 224.174C381.392 232.572 368.029 228.99 366.237 217.453C366.09 216.495 366.09 215.53 366.241 214.625C366.403 213.652 367.323 212.994 368.296 213.156C369.235 213.313 369.879 214.174 369.779 215.108L369.765 215.212C369.677 215.736 369.677 216.319 369.768 216.907C371.106 225.526 381.297 228.257 391.142 221.262C396.123 217.723 398.458 214.988 398.582 213.251C398.662 212.127 397.498 211.043 394.742 210.055C393.834 209.737 392.783 209.629 391.551 209.732C390.568 209.814 389.704 209.083 389.622 208.1C389.54 207.117 390.271 206.254 391.254 206.172Z" fill="#2E186A"/>
<path fill-rule="evenodd" clip-rule="evenodd" d="M386.332 192.918C388.139 192.624 389.86 192.727 391.457 193.286C396.011 194.88 398.6 197.27 398.373 200.73C398.145 204.199 394.879 208.034 388.38 212.629C375.117 221.944 360.232 217.953 358.259 205.127C358.109 204.152 358.778 203.24 359.753 203.09C360.728 202.94 361.64 203.609 361.79 204.584C363.314 214.492 375.036 217.635 386.323 209.708L386.863 209.323C392.17 205.493 394.677 202.49 394.808 200.496C394.901 199.084 393.491 197.783 390.277 196.658C389.278 196.308 388.154 196.241 386.905 196.444C384.736 196.797 382.314 197.937 379.839 199.627C378.742 200.376 377.711 201.181 376.779 201.985C376.519 202.209 376.282 202.42 376.071 202.614L375.655 203.005C375.646 203.013 375.639 203.02 375.633 203.027C374.933 203.722 373.802 203.718 373.107 203.019C372.411 202.319 372.415 201.188 373.115 200.492L373.323 200.29C373.588 200.038 373.967 199.692 374.445 199.28C375.473 198.393 376.609 197.506 377.824 196.677C380.694 194.718 383.559 193.369 386.332 192.918Z" fill="#2E186A"/>
<path fill-rule="evenodd" clip-rule="evenodd" d="M383.253 160.843C385.056 157.774 387.152 156.467 389.483 157.361C391.016 157.949 392.176 159.277 393.71 161.731L393.859 161.972C393.963 162.14 394.069 162.314 394.183 162.503L395.236 164.269C397.042 167.269 398.106 168.563 398.982 168.799L399.043 168.814C401.626 169.372 405.834 173.7 412.01 181.369L412.252 181.67C412.983 182.58 413.732 183.528 414.497 184.508C416.826 187.493 419.213 190.666 421.552 193.859L422.33 194.923C423.033 195.89 423.692 196.802 424.298 197.647L425.731 199.661C426.298 200.469 426.103 201.583 425.295 202.15C424.488 202.717 423.374 202.522 422.807 201.714L421.895 200.429L420.866 198.994C420.506 198.494 420.13 197.973 419.738 197.434L419.442 197.027C416.878 193.507 414.242 189.988 411.681 186.706C411.076 185.932 410.483 185.179 409.9 184.449L409.056 183.397C403.82 176.919 399.735 172.704 398.342 172.319L398.289 172.306C396.047 171.822 394.691 170.274 392.334 166.376L391.356 164.735C391.152 164.393 390.981 164.11 390.818 163.847L390.577 163.461C389.514 161.785 388.739 160.902 388.204 160.697C388.091 160.653 388.042 160.658 387.867 160.768C387.458 161.023 386.931 161.635 386.336 162.649C385.045 164.86 384.98 167.823 386.033 171.416C386.847 174.191 388.287 177.198 390.173 180.284C391.264 182.068 392.435 183.766 393.605 185.318L393.948 185.769C394.116 185.987 394.277 186.194 394.432 186.389L394.732 186.764C394.932 187.012 395.072 187.181 395.142 187.263C395.783 188.013 395.694 189.14 394.944 189.781C394.222 190.397 393.152 190.338 392.501 189.666L392.425 189.582C392.346 189.489 392.213 189.33 392.033 189.108L391.953 189.009C391.59 188.56 391.187 188.044 390.753 187.469C389.517 185.829 388.281 184.038 387.125 182.147C385.088 178.815 383.519 175.538 382.605 172.421C381.301 167.972 381.387 164.04 383.253 160.843Z" fill="#2E186A"/>
<path fill-rule="evenodd" clip-rule="evenodd" d="M861.91 360.381C862.467 359.566 863.578 359.358 864.393 359.914C876.658 368.301 890.91 378.578 903.772 388.707L904.906 389.602C923.306 404.173 935.48 415.845 939.183 423.55C939.61 424.439 939.236 425.507 938.346 425.934C937.457 426.361 936.39 425.987 935.963 425.098C932.518 417.929 920.118 406.126 901.562 391.513C888.772 381.442 874.581 371.208 862.376 362.863C861.562 362.307 861.353 361.195 861.91 360.381Z" fill="#2E186A"/>
<path fill-rule="evenodd" clip-rule="evenodd" d="M590.717 215.863C620.723 204.668 645.211 202.838 657.675 209.98L659.306 210.937C665.564 214.637 679.289 222.966 693.499 231.736C694.338 232.254 694.599 233.354 694.081 234.194C693.563 235.033 692.462 235.294 691.623 234.776L682.862 229.387C670.685 221.919 660.048 215.494 655.889 213.073C644.58 206.593 621.072 208.35 591.965 219.21C591.041 219.555 590.012 219.086 589.667 218.161C589.323 217.237 589.792 216.208 590.717 215.863Z" fill="#2E186A"/>
<path fill-rule="evenodd" clip-rule="evenodd" d="M758.281 274.624C758.814 273.795 759.919 273.554 760.749 274.087L763.673 275.969C786.839 290.904 804.619 302.936 814.752 310.669L814.813 310.718L814.872 310.769L866.375 357.747C867.034 358.348 867.145 359.338 866.651 360.067L866.583 360.161L849.376 382.37C848.771 383.149 847.649 383.292 846.87 382.688C846.12 382.107 845.959 381.047 846.485 380.273L846.552 380.182L862.749 359.275L812.524 313.462L812.268 313.268C801.962 305.435 783.833 293.193 760.267 278.025L758.818 277.093C757.988 276.559 757.747 275.454 758.281 274.624Z" fill="#2E186A"/>
<path fill-rule="evenodd" clip-rule="evenodd" d="M694.525 228.776C695.158 228.019 696.285 227.919 697.042 228.552C697.769 229.16 697.89 230.225 697.336 230.979L697.266 231.068L680.237 251.431C666.503 267.855 668.353 292.385 684.448 306.109L685.352 306.833C691.298 311.667 698.476 313.675 706.627 313.296C713.202 312.991 720.094 311.153 726.938 308.239C733.232 305.589 738.792 301.189 742.962 295.603L743.216 295.259L761.376 270.311C761.956 269.514 763.073 269.338 763.871 269.918C764.638 270.477 764.83 271.531 764.328 272.32L764.264 272.414L746.103 297.363C741.525 303.634 735.351 308.573 728.331 311.529C721.132 314.593 713.844 316.537 706.793 316.865C697.953 317.276 690.023 315.101 683.418 309.861L682.174 308.863C664.71 293.973 662.556 267.59 677.052 249.679L677.497 249.139L694.525 228.776Z" fill="#2E186A"/>
<path fill-rule="evenodd" clip-rule="evenodd" d="M803.176 213.571C803.59 212.676 804.652 212.286 805.547 212.701C808.71 214.167 812.054 216.462 814.483 219.675C818.337 224.773 818.676 230.888 814.335 237.619C810.842 243.025 806.323 245.26 801.236 244.676C797.471 244.244 793.735 242.343 790.065 239.489C789.286 238.883 789.146 237.761 789.751 236.982C790.357 236.203 791.479 236.063 792.258 236.669C795.458 239.158 798.655 240.784 801.643 241.127C805.355 241.553 808.566 239.965 811.333 235.681C814.847 230.235 814.598 225.751 811.633 221.829C809.628 219.177 806.724 217.184 804.045 215.942C803.15 215.528 802.761 214.466 803.176 213.571Z" fill="#2E186A"/>
<path fill-rule="evenodd" clip-rule="evenodd" d="M714.761 161.167C715.18 160.274 716.244 159.89 717.137 160.309C718.03 160.729 718.414 161.792 717.995 162.685C711.88 175.713 706.783 190.386 702.922 205.071C702.672 206.026 701.695 206.596 700.741 206.345C699.787 206.094 699.217 205.117 699.467 204.163C703.38 189.281 708.546 174.408 714.761 161.167Z" fill="#2E186A"/>
<path fill-rule="evenodd" clip-rule="evenodd" d="M701.527 202.838C700.745 202.77 700.016 203.221 699.721 203.939L699.675 204.065L699.529 204.506L699.431 204.81C699.26 205.347 699.072 205.957 698.871 206.637L698.784 206.932C698.118 209.207 697.452 211.743 696.831 214.476C695.006 222.505 693.931 230.553 693.988 238.097C694.033 244.092 694.802 249.522 696.408 254.253C699.694 264.024 708.078 271.279 719.436 275.359C729.356 278.922 740.788 279.682 749.386 277.5L750.274 277.273C764.562 273.576 769.118 270.556 776.723 260.982L777.122 260.47C779.632 257.217 784.152 250.789 790.167 241.989L791.788 239.613L793.272 237.431C795.765 233.761 798.347 229.933 800.934 226.08L805.441 219.346L807.297 216.561C808.025 215.466 807.359 213.985 806.056 213.804L793.671 212.077C793.341 212.031 793.005 212.078 792.701 212.213L792.559 212.278C788.157 214.37 775.221 226.681 769.193 234.34L768.926 234.681L768.427 234.289L768.194 234.107C766.398 232.714 764.287 231.164 761.875 229.496C754.995 224.74 747.071 219.987 738.208 215.551C733.791 213.341 729.24 211.261 724.56 209.336L724.033 209.142L723.184 208.836C722.808 208.702 722.408 208.56 721.984 208.411L721.663 208.299C719.493 207.541 717.224 206.782 714.968 206.074C713.78 205.701 712.625 205.351 711.511 205.029L710.735 204.807C706.902 203.722 703.774 203.031 701.527 202.838ZM702.622 206.572L702.706 206.585C704.638 206.894 707.162 207.499 710.129 208.348L710.518 208.46C711.605 208.775 712.735 209.117 713.898 209.482C715.745 210.062 717.604 210.677 719.409 211.298L720.485 211.671C721.019 211.858 721.519 212.035 721.981 212.2L723.227 212.651L723.201 212.64C727.798 214.531 732.27 216.574 736.609 218.746C745.315 223.103 753.096 227.77 759.843 232.435C762.2 234.064 764.258 235.576 766.004 236.93L766.444 237.274C766.798 237.552 767.12 237.808 767.408 238.041L768.091 238.604C768.892 239.289 770.11 239.134 770.715 238.269L770.862 238.06C775.638 231.358 789.114 218.309 793.627 215.746L793.724 215.691L802.745 216.95L799.518 221.777L797.193 225.242C794.87 228.7 792.557 232.126 790.317 235.424L787.473 239.6C781.045 249.01 776.292 255.759 773.921 258.765L773.276 259.571C766.411 268.066 762.317 270.534 748.508 274.038C740.622 276.038 729.914 275.326 720.644 271.997C710.232 268.257 702.692 261.732 699.792 253.11C698.319 248.77 697.603 243.71 697.56 238.07C697.506 230.836 698.546 223.049 700.315 215.268C700.873 212.814 701.467 210.524 702.064 208.45L702.213 207.936C702.326 207.551 702.434 207.187 702.538 206.847L702.622 206.572Z" fill="#2E186A"/>
<path fill-rule="evenodd" clip-rule="evenodd" d="M799.08 223.134C799.08 223.134 812.834 213.31 821.527 200.866C829.684 189.196 829.03 173.299 819.384 162.76C811.286 153.948 801.581 152.519 801.581 152.519C801.581 152.519 817.538 136.621 805.273 115.663C800.986 108.28 793.722 102.981 785.386 101.075C765.023 96.3715 754.306 111.852 754.306 111.852C754.306 111.852 742.993 66.4224 692.502 78.3901C687.381 79.5809 680.653 84.8801 677.081 88.7503C655.348 111.971 695.36 156.568 719.831 165.677C746.744 175.68 762.403 173.001 773.537 169.845C765.678 171.096 757.163 213.667 799.08 223.134Z" fill="#2E186A"/>
<path fill-rule="evenodd" clip-rule="evenodd" d="M724.732 198.276C725.242 197.431 726.34 197.16 727.185 197.669C727.998 198.16 728.28 199.196 727.845 200.027L727.791 200.121L716.178 219.365L723.972 222.617C724.85 222.983 725.282 223.969 724.971 224.855L724.933 224.953C724.567 225.831 723.581 226.262 722.695 225.952L722.597 225.914L712.892 221.865C711.918 221.459 711.514 220.308 711.997 219.388L712.05 219.294L724.732 198.276Z" fill="#2E186A"/>
<path fill-rule="evenodd" clip-rule="evenodd" d="M718.953 197.861C719.821 195.659 719.384 193.424 717.977 192.869C716.57 192.314 714.725 193.65 713.857 195.853C712.989 198.055 713.426 200.29 714.833 200.845C716.24 201.4 718.085 200.064 718.953 197.861Z" fill="#2E186A"/>
<path fill-rule="evenodd" clip-rule="evenodd" d="M743.819 205.085C744.687 202.882 744.25 200.647 742.843 200.092C741.435 199.538 739.591 200.874 738.723 203.076C737.854 205.279 738.291 207.514 739.699 208.069C741.106 208.623 742.95 207.288 743.819 205.085Z" fill="#2E186A"/>
<path fill-rule="evenodd" clip-rule="evenodd" d="M747.206 182.126C747.428 181.165 748.387 180.566 749.349 180.787C752.69 181.558 755.304 183.241 757.245 185.547C758.205 186.688 758.937 187.907 759.474 189.129C759.804 189.877 759.999 190.479 760.092 190.865C760.321 191.824 759.73 192.788 758.77 193.018C757.845 193.239 756.916 192.697 756.645 191.797L756.593 191.611C756.581 191.567 756.563 191.51 756.54 191.439C756.456 191.181 756.345 190.887 756.204 190.568C755.797 189.641 755.238 188.712 754.511 187.847C753.052 186.113 751.102 184.858 748.545 184.268C747.584 184.047 746.985 183.087 747.206 182.126Z" fill="#2E186A"/>
<path fill-rule="evenodd" clip-rule="evenodd" d="M720.081 171.7C722.165 171.284 724.288 171.723 726.336 172.68C727.225 173.095 727.909 173.516 728.326 173.82C729.123 174.401 729.299 175.518 728.717 176.315C728.159 177.082 727.104 177.273 726.315 176.77L726.075 176.607C726.021 176.572 725.956 176.531 725.879 176.484C725.566 176.291 725.211 176.097 724.823 175.916C723.403 175.253 721.993 174.961 720.78 175.203C719.835 175.392 719.002 175.903 718.255 176.847C717.644 177.621 716.52 177.752 715.746 177.141C714.973 176.529 714.841 175.405 715.453 174.632C716.725 173.023 718.303 172.055 720.081 171.7Z" fill="#2E186A"/>
<path fill-rule="evenodd" clip-rule="evenodd" d="M734.12 236.854C734.001 236.909 733.83 236.984 733.61 237.075L733.495 237.122C732.809 237.4 731.999 237.681 731.075 237.944C728.646 238.636 725.9 239.079 722.885 239.151C721.857 239.175 721.062 240.06 721.147 241.085C721.175 241.415 721.249 241.939 721.394 242.597C721.633 243.685 721.991 244.777 722.5 245.811L722.593 245.997C724.198 249.123 726.879 251.03 730.667 250.888L730.79 250.881L730.697 250.878C735.07 251.098 737.181 248.18 737.409 243.83C737.482 242.427 737.363 240.96 737.12 239.505C737.072 239.216 737.021 238.944 736.969 238.686L736.891 238.313L736.825 238.026C736.6 236.899 735.39 236.284 734.355 236.741L734.12 236.854ZM733.709 240.856L733.75 241.188C733.845 242.035 733.882 242.866 733.841 243.643C733.704 246.267 732.876 247.411 730.877 247.31L730.78 247.307L730.683 247.31C728.286 247.45 726.744 246.343 725.706 244.234L725.571 243.948C725.398 243.563 725.25 243.163 725.125 242.755L725.084 242.614L725.538 242.576C727.878 242.365 730.057 241.948 732.054 241.38C732.52 241.247 732.963 241.109 733.382 240.969L733.709 240.856Z" fill="#2E186A"/>
<path fill-rule="evenodd" clip-rule="evenodd" d="M765.829 348.851C778.135 346.732 791.173 347.581 803.337 352.072L803.82 352.251L804.019 352.311C812.732 354.963 828.089 364.614 848.454 379.572L850.351 380.97C853.147 383.038 856.013 385.186 858.939 387.408C868.579 394.727 878.486 402.537 888.17 410.375L889.983 411.845C892.775 414.112 895.39 416.254 897.795 418.237L900.978 420.872L903.474 422.956C904.723 424.007 904.022 426.023 902.427 426.106L902.324 426.109H815.097C814.456 426.109 813.868 425.766 813.55 425.217L813.494 425.111L799.145 395.936C798.709 395.051 799.074 393.98 799.959 393.545C800.812 393.126 801.836 393.448 802.299 394.263L802.35 394.359L816.209 422.537H897.389L893.951 419.7C892.353 418.386 890.671 417.01 888.913 415.58L887.731 414.618C877.501 406.311 866.987 398.004 856.778 390.253C853.864 388.04 851.011 385.901 848.227 383.843L846.965 382.911C826.655 367.962 811.256 358.253 803 355.735L802.747 355.66C802.703 355.647 802.659 355.632 802.615 355.616C790.928 351.187 778.326 350.324 766.435 352.371C757.166 353.967 749.115 357.373 746.86 360.037L746.465 360.5C743.472 363.963 738.32 368.969 733.342 373.112L733.003 373.393C726.115 379.082 720.173 382.711 715.861 383.34C714.882 383.483 713.853 383.581 712.749 383.642L712.271 383.666C711.179 383.716 710.223 383.732 708.848 383.724L705.399 383.688C702.678 383.668 701.449 383.731 700.358 383.967L700.27 383.987C699.154 384.239 698.871 384.485 698.871 385.086L698.875 385.332L698.873 385.841C698.862 387.243 698.923 388.02 699.185 388.871C699.982 391.455 702.531 392.856 708.461 392.435L708.738 392.414C720.816 391.479 726.651 390.339 732.894 386.859C733.756 386.379 734.844 386.688 735.324 387.55C735.804 388.412 735.495 389.5 734.633 389.98L734.134 390.254C727.576 393.802 721.435 394.996 709.473 395.94L709.016 395.976C701.354 396.582 697.125 394.311 695.771 389.924C695.392 388.694 695.297 387.68 695.299 386.097L695.302 385.301L695.301 385.266C695.212 382.677 696.807 381.107 699.482 380.502L699.817 380.43C701.158 380.161 702.525 380.095 705.353 380.115L708.625 380.15C710.075 380.16 711.028 380.147 712.109 380.098C713.285 380.044 714.352 379.95 715.346 379.805C718.799 379.301 724.329 375.923 730.728 370.639L731.387 370.091C736.332 365.942 741.41 360.965 744.13 357.733C747.052 354.279 755.809 350.576 765.829 348.851Z" fill="#2E186A"/>
<path fill-rule="evenodd" clip-rule="evenodd" d="M750.083 365.298C750.757 365.963 750.79 367.032 750.178 367.738L750.055 367.867L749.502 368.437L749.077 368.88C748.712 369.262 748.321 369.677 747.909 370.118C746.26 371.886 744.611 373.731 743.076 375.559C742.418 376.342 741.795 377.106 741.212 377.846L740.867 378.287C737.947 382.048 736.281 385.007 736.377 386.125C736.781 390.859 743.227 399.495 746.684 399.495L747.587 399.491C748.424 399.485 749.354 399.471 750.386 399.449L752.639 399.395L757.597 399.257C758.583 399.234 759.402 400.014 759.425 401C759.449 401.986 758.668 402.805 757.682 402.828L752.081 402.983C751.657 402.994 751.253 403.004 750.856 403.013L749.322 403.042C748.348 403.059 747.472 403.067 746.684 403.067C741.025 403.067 733.361 392.8 732.817 386.428C732.612 384.02 734.506 380.655 738.045 376.096C738.755 375.182 739.523 374.235 740.34 373.262C741.919 371.381 743.608 369.491 745.297 367.681L745.792 367.152C746.035 366.895 746.269 366.648 746.493 366.413L747.286 365.59L747.557 365.313C748.25 364.611 749.381 364.604 750.083 365.298Z" fill="#2E186A"/>
<path fill-rule="evenodd" clip-rule="evenodd" d="M761.903 369.318C762.62 369.996 762.652 371.126 761.974 371.843L761.515 372.338L760.926 372.984C760.719 373.212 760.504 373.452 760.28 373.704C759.003 375.141 757.725 376.646 756.536 378.142C755.869 378.981 755.249 379.795 754.684 380.574L754.386 380.989C752.443 383.728 751.348 385.882 751.387 386.822C751.505 391.128 757.152 399.362 761.467 400.44C762.714 400.752 764.279 400.846 766.082 400.738C767.903 400.63 769.874 400.324 771.875 399.882C772.773 399.683 773.617 399.47 774.379 399.258L774.823 399.131L775.287 398.992C775.298 398.989 775.307 398.986 775.314 398.983C776.254 398.683 777.259 399.2 777.56 400.14C777.861 401.079 777.343 402.085 776.404 402.386L775.981 402.515C775.838 402.557 775.671 402.606 775.483 402.659L775.337 402.699C774.516 402.928 773.611 403.157 772.646 403.37C770.475 403.85 768.325 404.183 766.294 404.304C764.158 404.432 762.245 404.317 760.6 403.906C754.613 402.409 747.975 392.73 747.817 386.944C747.731 384.859 749.167 382.097 751.791 378.477C752.389 377.653 753.041 376.798 753.739 375.919C754.973 374.367 756.292 372.813 757.61 371.33L758.06 370.827C758.28 370.583 758.49 370.351 758.689 370.133L759.378 369.389C760.055 368.672 761.186 368.64 761.903 369.318Z" fill="#2E186A"/>
<path fill-rule="evenodd" clip-rule="evenodd" d="M771.471 374.325C772.185 373.645 773.316 373.672 773.997 374.386C774.677 375.1 774.65 376.23 773.936 376.911L773.833 377.012L773.661 377.184L773.367 377.486C773.214 377.645 773.052 377.818 772.882 378.003C772.07 378.887 771.258 379.858 770.503 380.884C769.03 382.884 767.968 384.831 767.489 386.575C766.95 388.539 767.18 390.07 768.273 391.279L768.351 391.363L768.595 391.58C774.825 397.077 780.183 399.363 784.582 399.433L784.791 399.435C785.535 399.435 786.723 398.983 788.164 398.127C789.01 397.624 789.915 397.002 790.854 396.287C791.823 395.549 792.775 394.754 793.666 393.96L794.025 393.636C794.14 393.532 794.249 393.432 794.353 393.335L794.797 392.916C795.503 392.228 796.634 392.242 797.323 392.948C798.011 393.654 797.997 394.785 797.291 395.474L796.948 395.8L796.611 396.113C796.434 396.275 796.245 396.447 796.044 396.626C795.088 397.478 794.067 398.33 793.018 399.129C791.977 399.921 790.963 400.619 789.988 401.198C788.043 402.354 786.325 403.007 784.791 403.007C779.438 403.007 773.19 400.395 766.237 394.264L765.916 393.978L765.825 393.891C763.663 391.663 763.176 388.791 764.044 385.63C764.657 383.394 765.916 381.088 767.626 378.766C768.463 377.628 769.357 376.559 770.251 375.586L770.606 375.205C770.978 374.81 771.275 374.512 771.471 374.325Z" fill="#2E186A"/>
<path fill-rule="evenodd" clip-rule="evenodd" d="M777.536 385.247C777.809 384.299 778.798 383.751 779.746 384.023C780.593 384.266 781.12 385.081 781.03 385.928L781.019 386.007L781.023 386.011L781.033 386.037C781.096 386.237 781.255 386.503 781.563 386.836C782.64 387.999 784.861 389.257 788.513 390.478C791.73 391.554 795.875 392.533 801.038 393.385C802.012 393.545 802.671 394.465 802.51 395.438C802.349 396.411 801.43 397.07 800.457 396.91L799.403 396.732C794.545 395.892 790.564 394.931 787.38 393.866C779.844 391.346 777.056 388.335 777.475 385.536C777.491 385.428 777.512 385.331 777.536 385.247Z" fill="#2E186A"/>
<path fill-rule="evenodd" clip-rule="evenodd" d="M572.228 321.794C573.18 321.794 573.957 322.538 574.012 323.475L574.015 323.58V335.377L574.13 335.373C577.452 335.26 581.492 335.466 586.013 336.187L586.517 336.27C594.213 337.553 601.798 340.122 608.903 344.28C621.311 351.542 631.18 363.012 637.566 379.362L637.637 379.546L637.859 379.522C641.678 379.118 646.276 379.198 651.356 380.095C658.569 381.368 665.648 384.126 672.275 388.702C677.197 392.101 681.739 396.422 685.821 401.742C686.421 402.525 686.274 403.646 685.491 404.246C684.709 404.847 683.587 404.699 682.987 403.917C679.131 398.892 674.861 394.829 670.246 391.642C664.06 387.371 657.461 384.8 650.735 383.613C646.007 382.779 641.74 382.704 638.235 383.075L637.835 383.12C637.708 383.135 637.587 383.151 637.472 383.166L636.992 383.237L636.811 383.268C635.953 383.433 635.102 382.953 634.798 382.134C628.727 365.745 619.181 354.435 607.098 347.364C600.393 343.439 593.218 341.009 585.929 339.793C580.978 338.968 576.631 338.794 573.254 338.989L572.725 339.024L572.419 339.051C571.398 339.16 570.504 338.391 570.445 337.38L570.442 337.275V325.366H515.307V337.275C515.307 338.298 514.452 339.104 513.443 339.059L512.888 339.015C512.8 339.009 512.707 339.004 512.609 338.998L512.457 338.989C508.979 338.798 504.514 338.962 499.434 339.757C491.968 340.926 484.619 343.268 477.754 347.05C464.968 354.094 454.972 365.494 448.808 382.134C448.517 382.92 447.722 383.393 446.901 383.285L446.458 383.212L446.131 383.165C445.9 383.134 445.645 383.103 445.366 383.074C441.856 382.701 437.584 382.775 432.852 383.61C426.121 384.799 419.518 387.374 413.327 391.651C403.463 398.468 395.284 409.164 389.377 424.432C389.021 425.352 387.986 425.81 387.066 425.454C386.146 425.098 385.689 424.063 386.045 423.143C392.204 407.223 400.827 395.947 411.296 388.712C417.929 384.129 425.013 381.366 432.232 380.092C437.146 379.225 441.611 379.122 445.357 379.482L445.969 379.546L446.051 379.337C452.494 362.889 462.695 351.389 475.625 344.146L476.03 343.921C483.284 339.924 491.026 337.457 498.882 336.228C503.709 335.472 508.021 335.257 511.547 335.373L511.735 335.38V323.58C511.735 322.629 512.478 321.851 513.416 321.797L513.521 321.794H572.228Z" fill="#2E186A"/>
<path fill-rule="evenodd" clip-rule="evenodd" d="M564.964 319.114C565.916 319.114 566.693 319.858 566.748 320.796L566.751 320.9V356.884C569.119 356.832 571.941 357.01 575.078 357.544L575.508 357.619C581.231 358.645 586.873 360.693 592.155 364.001C600.814 369.423 607.801 377.788 612.525 389.529L612.75 390.096L612.926 390.078C615.662 389.819 618.891 389.883 622.438 390.469L622.883 390.545C628.377 391.515 633.769 393.618 638.816 397.106C641.345 398.854 643.745 400.925 645.996 403.337C646.669 404.058 646.63 405.189 645.908 405.862C645.187 406.535 644.057 406.496 643.384 405.774C641.308 403.55 639.103 401.647 636.785 400.045C632.18 396.862 627.269 394.947 622.262 394.064C618.743 393.443 615.568 393.388 612.964 393.665L612.613 393.705C612.557 393.712 612.504 393.719 612.452 393.726L612.09 393.778L611.924 393.806C611.066 393.972 610.214 393.492 609.91 392.672C605.462 380.664 598.707 372.318 590.259 367.028C585.386 363.977 580.173 362.085 574.878 361.136C571.424 360.517 568.383 360.366 565.998 360.486L565.725 360.5C565.437 360.518 565.247 360.534 565.163 360.544C564.14 360.658 563.24 359.888 563.181 358.874L563.178 358.769V322.687H517.689V358.769C517.689 359.8 516.821 360.609 515.806 360.552L515.413 360.518C515.331 360.512 515.235 360.505 515.124 360.498C512.693 360.35 509.549 360.485 505.963 361.126C500.676 362.07 495.472 363.957 490.607 367.002C482.16 372.29 475.405 380.644 470.957 392.672C470.666 393.458 469.871 393.931 469.049 393.823L468.706 393.767L468.415 393.726C468.259 393.705 468.088 393.685 467.903 393.665C465.304 393.388 462.136 393.442 458.626 394.061C453.632 394.941 448.734 396.85 444.141 400.023C436.796 405.097 430.7 413.074 426.292 424.49C425.937 425.411 424.903 425.869 423.983 425.513C423.062 425.158 422.604 424.124 422.96 423.204C427.619 411.135 434.159 402.576 442.11 397.083C447.146 393.605 452.525 391.509 458.006 390.543C461.72 389.888 465.098 389.808 467.942 390.078L468.115 390.096L468.148 390.012C472.813 378.154 479.751 369.691 488.371 364.19L488.712 363.974C493.986 360.672 499.619 358.63 505.334 357.609C508.493 357.045 511.347 356.842 513.754 356.874L514.116 356.881V320.9C514.116 319.949 514.86 319.172 515.798 319.117L515.903 319.114H564.964Z" fill="#2E186A"/>
<path fill-rule="evenodd" clip-rule="evenodd" d="M556.986 321.794C557.937 321.794 558.715 322.538 558.769 323.475L558.772 323.58V375.899L559.037 375.9C560.537 375.912 562.253 376.049 564.125 376.365L564.502 376.431C568.587 377.164 572.614 378.63 576.386 381C582.458 384.814 587.376 390.662 590.735 398.82L590.899 399.224L590.941 399.22C596.399 398.768 602.745 399.975 608.844 404.096L609.165 404.316C611.713 406.083 614.072 408.305 616.204 411.013C616.814 411.788 616.68 412.911 615.905 413.521C615.129 414.132 614.006 413.998 613.396 413.222C611.484 410.793 609.385 408.816 607.129 407.251C601.513 403.356 595.641 402.312 590.743 402.827L590.529 402.851C590.399 402.866 590.292 402.881 590.21 402.893L590.07 402.916C589.212 403.081 588.362 402.601 588.058 401.783C584.971 393.454 580.307 387.682 574.486 384.025C571.124 381.913 567.526 380.603 563.87 379.947C561.511 379.523 559.433 379.417 557.801 379.496L557.347 379.523L557.187 379.537C556.163 379.654 555.261 378.883 555.203 377.868L555.199 377.763V325.366H524.238V377.763C524.238 378.793 523.371 379.602 522.357 379.546L522.028 379.519C521.984 379.515 521.933 379.512 521.877 379.509C520.213 379.408 518.049 379.501 515.576 379.942C511.929 380.593 508.339 381.892 504.985 383.987C499.136 387.641 494.459 393.423 491.38 401.78C491.09 402.567 490.294 403.042 489.472 402.933L489.152 402.881C489.032 402.864 488.872 402.844 488.675 402.823C483.79 402.303 477.945 403.327 472.36 407.171C467.275 410.67 463.051 416.193 459.993 424.132C459.638 425.053 458.605 425.512 457.684 425.157C456.764 424.802 456.305 423.769 456.659 422.848C459.97 414.253 464.641 408.146 470.335 404.228C476.39 400.061 482.712 398.795 488.182 399.192L488.536 399.221L488.7 398.817C491.997 390.771 496.819 384.973 502.778 381.156L503.092 380.957C506.856 378.606 510.874 377.153 514.949 376.426C516.963 376.066 518.805 375.912 520.403 375.9L520.666 375.899V323.58C520.666 322.629 521.409 321.851 522.347 321.797L522.452 321.794H556.986Z" fill="#2E186A"/>
<path fill-rule="evenodd" clip-rule="evenodd" d="M508.52 316.912C506.257 325.546 508.341 333.405 508.341 333.405L514.831 358.71C515.189 360.02 517.034 359.96 517.332 358.65L523.108 346.325C523.108 346.325 530.669 373.357 541.446 374.071C552.164 374.846 562.762 345.909 562.762 345.909L567.644 359.067C568.061 360.318 569.907 360.198 570.145 358.889L576.754 333.941C576.754 333.941 577.885 325.784 575.563 316.853H508.52V316.912Z" fill="#042B67"/>
<path fill-rule="evenodd" clip-rule="evenodd" d="M513.521 300.657C495.838 268.862 491.134 241.354 492.205 218.729L490.717 218.788C490.717 218.788 458.803 262.015 462.911 300.657H513.521Z" fill="#042B67"/>
<path fill-rule="evenodd" clip-rule="evenodd" d="M591.222 218.967C592.116 241.533 587.233 268.981 569.609 300.657H618.909C622.839 263.504 593.545 222.182 591.222 218.967Z" fill="#042B67"/>
<path fill-rule="evenodd" clip-rule="evenodd" d="M541.803 129.357C532.801 129.357 523.413 136.23 514.693 148.129C506.937 158.711 500.155 172.775 496.032 186.54C491.33 202.236 489.329 218.36 490.745 235.672L490.8 236.324C492.573 256.771 499.105 277.992 511.181 300.112L511.518 300.726L504.34 316.158C503.789 317.342 504.654 318.698 505.959 318.698H577.23L577.332 318.695C578.581 318.627 579.386 317.311 578.85 316.158L571.671 300.727L572.017 300.098C584.232 277.753 590.854 256.303 592.652 235.682C594.169 218.282 592.236 202.065 587.574 186.539C583.448 172.796 576.665 158.735 568.914 148.151L568.39 147.443C559.814 135.966 550.624 129.357 541.803 129.357ZM541.803 132.93C556.793 132.93 575.36 158.281 584.153 187.566C588.689 202.677 590.569 218.444 589.093 235.371C587.3 255.923 580.585 277.362 568.107 299.789L568.052 299.897C567.827 300.374 567.825 300.929 568.049 301.41L574.428 315.125H508.761L515.141 301.41C515.382 300.892 515.36 300.289 515.082 299.789C502.62 277.362 495.988 255.949 494.306 235.381C492.928 218.537 494.874 202.854 499.454 187.565C508.231 158.263 526.798 132.93 541.803 132.93Z" fill="#042B67"/>
<path fill-rule="evenodd" clip-rule="evenodd" d="M541.803 241.891C543.645 241.891 545.138 240.105 545.138 237.901C545.138 235.698 543.645 233.912 541.803 233.912C539.962 233.912 538.469 235.698 538.469 237.901C538.469 240.105 539.962 241.891 541.803 241.891Z" fill="#042B67"/>
<path fill-rule="evenodd" clip-rule="evenodd" d="M554.723 241.891C556.565 241.891 558.058 240.105 558.058 237.901C558.058 235.698 556.565 233.912 554.723 233.912C552.882 233.912 551.389 235.698 551.389 237.901C551.389 240.105 552.882 241.891 554.723 241.891Z" fill="#042B67"/>
<path fill-rule="evenodd" clip-rule="evenodd" d="M527.871 241.891C529.712 241.891 531.205 240.105 531.205 237.901C531.205 235.698 529.712 233.912 527.871 233.912C526.029 233.912 524.536 235.698 524.536 237.901C524.536 240.105 526.029 241.891 527.871 241.891Z" fill="#042B67"/>
<path fill-rule="evenodd" clip-rule="evenodd" d="M541.804 184.909C532.355 184.909 524.834 193.875 524.834 204.796C524.834 215.716 532.355 224.683 541.804 224.683C551.252 224.683 558.773 215.716 558.773 204.796C558.773 193.875 551.252 184.909 541.804 184.909ZM541.804 188.482C549.126 188.482 555.2 195.723 555.2 204.796C555.2 213.869 549.126 221.11 541.804 221.11C534.481 221.11 528.407 213.869 528.407 204.796C528.407 195.723 534.481 188.482 541.804 188.482Z" fill="#042B67"/>
<path fill-rule="evenodd" clip-rule="evenodd" d="M545.376 129.834V101.493C545.376 101.433 545.376 101.314 545.376 101.254C545.911 100.54 546.209 99.6468 546.209 98.6941C546.209 96.2529 544.244 94.2881 541.803 94.2881C539.362 94.2881 537.397 96.2529 537.397 98.6941C537.397 99.6468 537.695 100.54 538.231 101.254C538.231 101.314 538.231 101.433 538.231 101.493V129.775C530.848 131.263 523.464 137.455 516.677 145.791C524.298 144.005 533.17 143.052 543.411 143.648C552.58 144.183 560.678 145.434 567.823 147.161C560.916 138.229 553.116 131.501 545.376 129.834Z" fill="#042B67"/>
<path fill-rule="evenodd" clip-rule="evenodd" d="M574.61 162.462C565.798 159.485 555.676 156.925 542.041 156.389C528.168 155.853 517.57 158.949 508.936 162.343C505.126 169.369 502.149 176.335 499.708 183.778C510.127 178.717 522.809 173.358 542.339 173.715C560.916 174.073 573.658 178.121 583.363 182.468C580.981 175.502 578.123 169.071 574.61 162.462Z" fill="#042B67"/>
<path fill-rule="evenodd" clip-rule="evenodd" d="M568.597 300.479C569.906 298.157 571.097 295.894 572.229 293.632C566.096 291.131 557.343 289.107 541.744 289.226C525.965 289.107 517.153 291.191 511.02 293.751C512.152 296.013 513.342 298.276 514.652 300.539C514.652 300.539 528.525 297.859 541.744 297.978C554.724 297.8 568.597 300.479 568.597 300.479Z" fill="#042B67"/>
<path d="M728.822 395.149H659.814V404.914H728.822V395.149Z" fill="#042B67"/>
<path fill-rule="evenodd" clip-rule="evenodd" d="M717.271 395.149V405.748H712.508V395.149H717.271Z" fill="#2E186A"/>
<path fill-rule="evenodd" clip-rule="evenodd" d="M767.404 403.188C768.355 403.188 769.133 403.931 769.187 404.869L769.19 404.974V423.431C769.19 424.418 768.391 425.218 767.404 425.218C766.453 425.218 765.675 424.474 765.621 423.536L765.618 423.431V406.76H620.575L620.576 412.774C620.576 413.725 619.832 414.502 618.895 414.557L618.79 414.56H584.792C584.148 414.56 583.555 414.214 583.238 413.654C582.498 412.349 581.145 411.523 579.671 411.523C577.442 411.523 575.622 413.343 575.622 415.572C575.622 417.801 577.442 419.621 579.671 419.621C581.145 419.621 582.498 418.795 583.238 417.49C583.535 416.965 584.075 416.628 584.672 416.588L584.792 416.584H618.79C619.741 416.584 620.519 417.328 620.573 418.266L620.576 418.37V423.372C620.576 424.358 619.776 425.158 618.79 425.158C617.838 425.158 617.061 424.415 617.006 423.477L617.003 423.372V420.157H585.746L585.694 420.226C584.298 422.01 582.183 423.13 579.87 423.191L579.671 423.193C575.469 423.193 572.05 419.774 572.05 415.572C572.05 411.37 575.469 407.951 579.671 407.951C582.061 407.951 584.258 409.083 585.694 410.918L585.747 410.987H617.003V404.974C617.003 404.022 617.747 403.245 618.685 403.191L618.79 403.188H767.404Z" fill="#042B67"/>
<path fill-rule="evenodd" clip-rule="evenodd" d="M743.29 406.76V423.431H738.527V406.76H743.29Z" fill="#2E186A"/>
<path d="M606.24 302.172C651.843 302.172 688.812 265.203 688.812 219.6C688.812 173.997 651.843 137.028 606.24 137.028C560.637 137.028 523.668 173.997 523.668 219.6C523.668 265.203 560.637 302.172 606.24 302.172Z" fill="#3078E6"/>
<path d="M579.113 188.88C578.99 181.813 586.563 177.263 592.744 180.69L645.53 209.949C651.712 213.376 651.866 222.209 645.808 225.849L594.075 256.933C588.017 260.574 580.29 256.29 580.167 249.224L579.113 188.88Z" fill="white"/>
<path fill-rule="evenodd" clip-rule="evenodd" d="M146.2 358.799C127.2 353.099 97.4997 337.799 68.1997 297.099C38.8997 256.399 60.1997 227.099 89.1997 249.699C118.2 272.299 146.2 358.799 146.2 358.799Z" fill="white"/>
<path fill-rule="evenodd" clip-rule="evenodd" d="M54.2102 248.213C47.6836 260.047 51.6277 279.214 65.765 298.852C91.0492 333.974 118.552 353.637 145.338 361.673C147.602 362.352 149.701 360.274 149.1 358.032L149.022 357.777L148.346 355.741C148.058 354.886 147.736 353.939 147.38 352.905L146.481 350.315C145.346 347.077 144.085 343.578 142.707 339.871C137.695 326.388 132.163 312.903 126.268 300.303L125.483 298.635C113.842 274.043 102.29 256.097 91.0438 247.333C75.9865 235.599 60.8631 236.15 54.2102 248.213ZM87.3556 252.066C97.8818 260.269 109.309 278.214 120.834 302.846C126.652 315.282 132.124 328.621 137.083 341.962L137.453 342.958C138.796 346.589 140.021 350.01 141.12 353.164L141.429 354.055L140.923 353.871C117.335 345.154 93.1867 326.673 70.6344 295.346C57.7136 277.398 54.2498 260.565 59.4642 251.11C64.0712 242.757 74.9045 242.362 87.3556 252.066Z" fill="#3078E6"/>
<path fill-rule="evenodd" clip-rule="evenodd" d="M147 357.099C136.1 331.899 115.9 285.499 112.7 241.299C108.4 180.599 153.3 166.399 166.7 208.999C186.8 272.999 147 357.099 147 357.099Z" fill="white"/>
<path fill-rule="evenodd" clip-rule="evenodd" d="M131.786 183.697C116.643 190.817 107.653 212.508 109.707 241.512C110.008 245.667 110.461 249.902 111.06 254.218C114.053 275.779 120.49 298.509 129.769 323.095L130.938 326.167C134.758 336.125 137.972 343.785 144.246 358.291C145.27 360.658 148.608 360.715 149.711 358.383L150.012 357.733C150.171 357.387 150.346 356.999 150.537 356.572L150.834 355.902C151.714 353.909 152.692 351.601 153.744 349.003C156.746 341.591 159.747 333.329 162.547 324.422C170.77 298.264 175.614 272.048 175.36 247.501C175.218 233.75 173.451 220.904 169.881 209.135L169.561 208.099C162.732 186.387 146.856 176.611 131.786 183.697ZM163.838 209.899C167.434 221.35 169.22 233.967 169.361 247.563C169.607 271.394 164.872 297.017 156.823 322.622C154.073 331.369 151.127 339.481 148.183 346.75L147.63 348.107L147.021 349.573L145.135 345.164C141.41 336.412 138.899 330.221 135.915 322.381C126.493 297.636 119.982 274.855 117.003 253.393C116.421 249.204 115.983 245.1 115.692 241.083C113.795 214.313 121.789 195.027 134.339 189.127C145.606 183.83 157.754 191.187 163.661 209.346L163.838 209.899Z" fill="#3078E6"/>
<path fill-rule="evenodd" clip-rule="evenodd" d="M226.4 298.8C255.7 258.1 234.4 228.8 205.4 251.4C176.4 274.1 163 314.8 148.4 358.8C148.4 358.8 197.1 339.5 226.4 298.8Z" fill="white"/>
<path fill-rule="evenodd" clip-rule="evenodd" d="M203.556 249.033C190.754 259.054 180.386 272.781 171.197 290.918L170.731 291.844C163.733 305.829 158.068 320.55 149.9 344.811L145.552 357.855C144.768 360.22 147.034 362.429 149.351 361.645L149.505 361.588C149.722 361.502 150.121 361.339 150.691 361.096L151.421 360.783C152.052 360.51 152.739 360.205 153.478 359.87L153.928 359.665C157.391 358.081 161.243 356.175 165.388 353.942C177.224 347.566 189.059 339.843 200.117 330.737C211.216 321.598 220.922 311.544 228.834 300.552C242.972 280.914 246.916 261.747 240.389 249.913C233.736 237.85 218.613 237.299 203.556 249.033ZM206.629 254.252L207.244 253.766C219.695 244.062 230.528 244.457 235.135 252.811C240.35 262.266 236.886 279.099 223.965 297.047C216.373 307.592 207.023 317.278 196.303 326.105C185.569 334.944 174.056 342.458 162.543 348.66L161.741 349.089C159.11 350.493 156.607 351.757 154.263 352.882L153.387 353.298L154.362 350.377C163.118 324.161 168.916 308.88 176.097 294.529C184.882 276.971 194.677 263.791 206.629 254.252Z" fill="#3078E6"/>
<path fill-rule="evenodd" clip-rule="evenodd" d="M148.4 372.1C147.4 370.8 152.1 350.1 113 325.4C73.8997 300.7 64.9997 308.7 59.9997 317.7C54.9997 326.7 77.6997 348.1 102 360.4C126.4 372.8 148.4 372.1 148.4 372.1Z" fill="white"/>
<path fill-rule="evenodd" clip-rule="evenodd" d="M73.6977 305.912C65.7925 305.951 61.1305 309.487 57.3773 316.243C51.2719 327.233 73.6693 349.422 100.645 363.076C111.131 368.405 121.93 371.797 132.512 373.634C136.346 374.3 139.928 374.718 143.191 374.938L144.034 374.99C145.671 375.085 147.016 375.115 148.034 375.106L148.495 375.098L148.664 375.089C150.666 374.919 151.859 372.891 151.242 371.123L151.225 371.081L151.133 369.622C151.099 369.105 151.06 368.625 151.009 368.125C150.876 366.824 150.673 365.521 150.372 364.147C149.592 360.589 148.221 356.907 146.088 353.049C140.518 342.975 130.404 332.846 114.602 322.864L113.316 322.056C95.4432 310.902 82.7375 305.869 73.6977 305.912ZM73.7268 311.912C81.5643 311.874 93.7311 316.776 111.398 327.936C126.389 337.406 135.787 346.819 140.837 355.953L141.124 356.478C143.65 361.154 144.581 364.413 145.014 368.631L145.053 369.036L144.737 369.02C144.374 369.001 143.992 368.978 143.593 368.951C140.533 368.746 137.159 368.351 133.538 367.723C123.516 365.983 113.283 362.769 103.359 357.725C91.7075 351.828 80.1491 343.632 72.1237 335.681C64.4666 328.095 61.1709 321.769 62.6222 319.157C65.4188 314.123 68.2985 311.939 73.7268 311.912Z" fill="#3078E6"/>
<path fill-rule="evenodd" clip-rule="evenodd" d="M148.4 372.1C149.4 370.8 144.7 350.1 183.8 325.4C222.9 300.7 231.8 308.7 236.8 317.7C241.8 326.7 219.1 348.1 194.8 360.4C170.4 372.8 148.4 372.1 148.4 372.1Z" fill="white"/>
<path fill-rule="evenodd" clip-rule="evenodd" d="M223.102 305.912C213.847 305.868 200.749 311.144 182.197 322.864C166.396 332.846 156.281 342.975 150.711 353.049C148.578 356.907 147.208 360.589 146.428 364.147C146.126 365.521 145.924 366.824 145.791 368.125C145.757 368.458 145.728 368.783 145.702 369.115L145.574 371.081L145.558 371.123C144.943 372.885 146.126 374.905 148.115 375.087L148.361 375.1L148.518 375.103C149.722 375.123 151.441 375.083 153.608 374.938C156.872 374.718 160.453 374.3 164.287 373.634C174.869 371.797 185.669 368.405 196.159 363.074C223.13 349.422 245.528 327.233 239.422 316.243C235.669 309.487 231.007 305.951 223.102 305.912ZM223.073 311.912C228.501 311.939 231.381 314.123 234.177 319.157C235.629 321.769 232.333 328.095 224.676 335.681C216.65 343.632 205.092 351.828 193.445 357.723C183.517 362.769 173.283 365.983 163.261 367.723C159.64 368.351 156.266 368.746 153.206 368.951L152.062 369.02L151.746 369.036L151.785 368.631C152.235 364.257 153.219 360.914 155.962 355.953C161.012 346.819 170.41 337.406 185.402 327.936L186.64 327.159C203.638 316.548 215.42 311.875 223.073 311.912Z" fill="#3078E6"/>
<path fill-rule="evenodd" clip-rule="evenodd" d="M112.3 519.299L66.8997 467.899L107 374.899H191.1L229.8 469.499L185.9 519.299H112.3Z" fill="#3078E6"/>
<path fill-rule="evenodd" clip-rule="evenodd" d="M604.1 517.699H271.7C265.9 517.699 261.2 512.999 261.2 507.199V500.899C261.2 495.099 265.9 490.399 271.7 490.399H354.8L354.575 482.399H437.9V490.399H604.1C609.9 490.399 614.6 495.099 614.6 500.899V507.199C614.6 512.999 609.9 517.699 604.1 517.699Z" fill="#3078E6"/>
<path fill-rule="evenodd" clip-rule="evenodd" d="M1367.11 516.899C1368.43 516.899 1369.5 518.243 1369.5 519.899C1369.5 521.497 1368.51 522.803 1367.25 522.894L1367.11 522.899H3.0945C1.77203 522.899 0.699951 521.556 0.699951 519.899C0.699951 518.302 1.69682 516.996 2.9538 516.905L3.0945 516.899H1367.11Z" fill="#3078E6"/>
<path fill-rule="evenodd" clip-rule="evenodd" d="M1237.74 439.597L1259.77 514.471L1226.85 514.945L1237.74 439.597Z" fill="#3078E6"/>
<path fill-rule="evenodd" clip-rule="evenodd" d="M1237.92 444.397C1237.85 443.788 1237.65 443.475 1237.47 443.7C1237.28 443.924 1237.19 444.6 1237.26 445.21C1238.03 452.166 1238.37 463.898 1237.71 470.319L1237.68 470.649L1237.61 471.312L1237.54 471.976C1237.52 472.087 1237.51 472.198 1237.5 472.31L1237.43 472.977L1237.35 473.647C1237.34 473.758 1237.33 473.87 1237.31 473.982L1237.24 474.652L1237.16 475.323L1237.08 475.993L1237 476.663L1236.92 477.331L1236.84 477.998L1236.76 478.663L1236.68 479.325L1236.6 479.985L1236.51 480.641L1236.43 481.293L1236.34 481.94L1236.26 482.583L1236.17 483.22C1236.16 483.326 1236.14 483.432 1236.13 483.537L1236.04 484.166L1235.95 484.788L1235.87 485.403L1235.78 486.011L1235.69 486.611L1235.61 487.203L1235.52 487.786C1235.51 487.882 1235.49 487.978 1235.48 488.074L1235.39 488.643L1235.31 489.202C1235.29 489.294 1235.28 489.386 1235.26 489.477L1235.18 490.021L1235.09 490.553L1235.01 491.073L1234.92 491.582C1234.91 491.666 1234.9 491.749 1234.88 491.832L1234.8 492.322C1234.79 492.402 1234.77 492.482 1234.76 492.562L1234.68 493.032C1234.66 493.109 1234.65 493.185 1234.64 493.262L1234.56 493.711C1234.53 493.858 1234.5 494.003 1234.48 494.145L1234.4 494.565L1234.32 494.969C1234.22 495.497 1234.12 495.983 1234.02 496.421L1233.95 496.741C1233.87 497.104 1233.79 497.429 1233.71 497.714C1233.61 498.083 1233.45 498.568 1233.25 499.141L1233.15 499.434L1233.04 499.741L1232.92 500.061L1232.79 500.393C1232.77 500.449 1232.75 500.506 1232.73 500.563L1232.6 500.911L1232.46 501.269C1232.43 501.329 1232.41 501.39 1232.38 501.452L1232.24 501.823L1232.09 502.202L1231.93 502.588L1231.77 502.98L1231.53 503.578L1231.36 503.982L1231.19 504.389L1230.93 505.004L1230.67 505.621L1230.49 506.032L1230.22 506.647L1230.05 507.055L1229.87 507.459L1229.6 508.058L1229.34 508.645L1229.08 509.218L1228.91 509.59L1228.74 509.954L1228.57 510.309L1228.41 510.653L1228.25 510.986L1228.1 511.308L1227.95 511.616L1227.8 511.912C1227.78 511.96 1227.75 512.007 1227.73 512.054L1227.59 512.327C1227.57 512.372 1227.55 512.415 1227.52 512.458L1227.39 512.708L1227.27 512.94C1227.21 513.052 1227.15 513.158 1227.1 513.256L1226.99 513.443C1226.89 513.62 1226.79 513.767 1226.71 513.881C1226.53 514.138 1226.45 514.83 1226.53 515.427C1226.61 516.023 1226.81 516.298 1226.99 516.041C1227.14 515.838 1227.31 515.542 1227.52 515.169L1227.64 514.936C1227.67 514.896 1227.69 514.855 1227.71 514.813L1227.85 514.555C1227.87 514.51 1227.89 514.465 1227.92 514.419L1228.06 514.137L1228.21 513.839C1228.23 513.788 1228.26 513.737 1228.28 513.685L1228.44 513.366L1228.6 513.035L1228.76 512.692L1228.93 512.337L1229.1 511.973C1229.13 511.911 1229.16 511.849 1229.19 511.786L1229.36 511.408L1229.54 511.021L1229.72 510.626L1229.9 510.225L1230.08 509.818L1230.27 509.406L1230.45 508.99L1230.63 508.571L1230.91 507.938L1231.18 507.303L1231.36 506.879L1231.54 506.457L1231.71 506.036L1231.89 505.617L1232.06 505.202L1232.23 504.792L1232.47 504.185L1232.63 503.789L1232.78 503.4L1232.93 503.019L1233.07 502.647L1233.21 502.284C1233.24 502.225 1233.26 502.166 1233.28 502.107L1233.41 501.761C1233.43 501.704 1233.45 501.648 1233.47 501.592L1233.59 501.264L1233.7 500.949C1233.94 500.28 1234.12 499.71 1234.24 499.276C1234.46 498.446 1234.71 497.32 1234.97 495.964L1235.05 495.528L1235.13 495.077L1235.22 494.611C1235.25 494.454 1235.28 494.294 1235.3 494.132L1235.39 493.639C1235.4 493.556 1235.42 493.472 1235.43 493.388L1235.52 492.876L1235.61 492.351L1235.69 491.815L1235.78 491.267L1235.87 490.708L1235.96 490.138C1235.97 490.042 1235.99 489.946 1236 489.85L1236.09 489.265C1236.11 489.167 1236.12 489.068 1236.14 488.969L1236.23 488.371C1236.24 488.27 1236.26 488.169 1236.27 488.068L1236.36 487.457L1236.45 486.837L1236.54 486.21C1236.55 486.105 1236.57 486 1236.58 485.894L1236.67 485.257L1236.76 484.613L1236.85 483.963L1236.94 483.307C1236.95 483.197 1236.97 483.087 1236.98 482.977L1237.07 482.314C1237.08 482.203 1237.1 482.092 1237.11 481.981L1237.2 481.312C1237.21 481.2 1237.23 481.088 1237.24 480.976L1237.33 480.301L1237.41 479.623L1237.49 478.942L1237.58 478.26L1237.66 477.576C1237.67 477.461 1237.69 477.347 1237.7 477.233L1237.78 476.547L1237.86 475.861L1237.94 475.174L1238.02 474.488L1238.09 473.803C1238.1 473.689 1238.12 473.575 1238.13 473.461L1238.2 472.777L1238.28 472.096L1238.35 471.418C1238.36 471.305 1238.37 471.192 1238.38 471.079C1238.77 467.288 1238.86 462.262 1238.7 456.687C1238.67 455.873 1238.64 455.056 1238.61 454.246L1238.58 453.639C1238.54 452.631 1238.49 451.636 1238.43 450.675L1238.39 450.103C1238.36 449.629 1238.33 449.165 1238.3 448.713L1238.26 448.176C1238.16 446.76 1238.04 445.474 1237.92 444.397Z" fill="#968BB4"/>
<path fill-rule="evenodd" clip-rule="evenodd" d="M1238.74 458.887C1238.66 458.298 1238.45 458.044 1238.27 458.319C1238.09 458.593 1238.01 459.293 1238.1 459.882C1238.72 464.3 1239.48 468.752 1240.19 471.988C1240.6 473.83 1241.22 476.211 1241.98 478.911L1242.18 479.622C1242.56 480.94 1242.96 482.326 1243.39 483.757L1243.63 484.541C1243.67 484.673 1243.71 484.805 1243.75 484.937L1243.99 485.733C1244.04 485.867 1244.08 486 1244.12 486.134L1244.37 486.941L1244.62 487.752C1244.67 487.888 1244.71 488.024 1244.75 488.16L1245.01 488.978C1245.1 489.252 1245.18 489.526 1245.27 489.8L1245.54 490.624L1245.8 491.45L1246.07 492.276C1246.16 492.551 1246.26 492.827 1246.35 493.102L1246.62 493.927L1246.9 494.751C1246.94 494.888 1246.99 495.025 1247.03 495.161L1247.31 495.98C1247.4 496.252 1247.5 496.524 1247.59 496.795L1247.87 497.605C1247.92 497.739 1247.96 497.874 1248.01 498.008L1248.29 498.809C1248.43 499.207 1248.57 499.604 1248.71 499.997L1248.99 500.778C1249.13 501.167 1249.27 501.552 1249.4 501.933L1249.68 502.69C1250.46 504.819 1251.23 506.812 1251.96 508.579C1252.12 508.963 1252.34 508.85 1252.46 508.326C1252.57 507.803 1252.54 507.067 1252.38 506.682C1251.45 504.425 1250.45 501.792 1249.44 498.974L1249.17 498.201C1249.07 497.942 1248.98 497.682 1248.89 497.42L1248.61 496.632C1248.43 496.104 1248.25 495.572 1248.06 495.036L1247.79 494.231C1247.74 494.096 1247.69 493.961 1247.65 493.826L1247.38 493.015L1247.1 492.201L1246.83 491.386L1246.56 490.569L1246.3 489.753L1246.03 488.937C1245.94 488.665 1245.86 488.394 1245.77 488.123L1245.51 487.311L1245.25 486.503C1245.21 486.368 1245.17 486.234 1245.13 486.1L1244.88 485.299L1244.63 484.503L1244.39 483.713L1244.15 482.931L1243.91 482.156C1243.8 481.772 1243.68 481.39 1243.57 481.012L1243.35 480.262C1243.17 479.642 1242.99 479.033 1242.82 478.438L1242.62 477.73C1241.82 474.929 1241.18 472.467 1240.77 470.595C1240.08 467.501 1239.34 463.177 1238.74 458.887Z" fill="#968BB4"/>
<path fill-rule="evenodd" clip-rule="evenodd" d="M1240.37 502.184L1240.01 502.117L1239.65 502.056L1239.31 502L1238.98 501.949L1238.76 501.919L1238.44 501.878L1238.23 501.853L1237.92 501.822L1237.62 501.796L1237.43 501.782L1237.23 501.77L1236.95 501.758L1236.68 501.752L1236.5 501.751L1236.33 501.753L1236.16 501.758L1235.99 501.765L1235.83 501.775L1235.67 501.788L1235.51 501.804L1235.36 501.823C1235.33 501.826 1235.31 501.829 1235.28 501.833L1235.13 501.856C1235.11 501.86 1235.09 501.864 1235.06 501.868C1233.71 502.11 1232.3 502.844 1231.39 503.958C1231.2 504.182 1231.11 504.857 1231.18 505.467C1231.25 506.077 1231.45 506.39 1231.63 506.166C1231.91 505.827 1232.25 505.523 1232.62 505.26L1232.77 505.157C1232.89 505.073 1233.02 504.993 1233.16 504.919L1233.32 504.832C1233.35 504.817 1233.37 504.804 1233.4 504.79L1233.56 504.71L1233.73 504.635C1233.81 504.598 1233.9 504.564 1233.98 504.531L1234.15 504.468C1234.38 504.388 1234.61 504.322 1234.84 504.27L1235.01 504.233C1235.04 504.228 1235.07 504.222 1235.1 504.217L1235.24 504.194L1235.39 504.173L1235.54 504.155C1235.57 504.152 1235.59 504.149 1235.62 504.146L1235.77 504.133L1235.93 504.121L1236.09 504.113L1236.34 504.105L1236.51 504.103L1236.78 504.106L1236.96 504.111L1237.14 504.118L1237.42 504.134L1237.71 504.156L1237.91 504.174L1238.11 504.194L1238.31 504.217L1238.63 504.256L1238.95 504.3L1239.4 504.368L1239.74 504.426L1240.21 504.51L1240.67 504.599L1241.25 504.718L1241.86 504.852L1242.51 505.001L1246.06 505.852L1246.55 505.96L1246.93 506.035L1247.21 506.085L1247.47 506.125L1247.61 506.143L1247.78 506.162L1247.94 506.174L1248.02 506.177L1248.12 506.179C1248.29 506.182 1248.48 506.22 1248.69 506.292L1248.8 506.335L1248.92 506.385C1249.03 506.438 1249.16 506.501 1249.28 506.574L1249.41 506.65C1249.43 506.663 1249.46 506.677 1249.48 506.69L1249.61 506.776L1249.75 506.869L1249.89 506.967C1249.91 506.984 1249.94 507.002 1249.96 507.019L1250.1 507.127L1250.25 507.242L1250.4 507.363L1250.56 507.49L1250.71 507.623C1250.74 507.646 1250.76 507.669 1250.79 507.692L1250.95 507.834L1251.12 507.982L1251.28 508.137L1251.45 508.297L1251.62 508.463L1251.8 508.635L1251.98 508.813L1252.16 508.997L1252.34 509.186L1252.53 509.381C1252.98 509.856 1253.44 510.375 1253.93 510.939L1254.18 511.224L1254.41 511.497L1254.91 512.092L1257.76 515.557L1258.04 515.891L1258.16 516.03L1258.18 516.057C1258.37 516.242 1258.57 515.888 1258.62 515.265C1258.68 514.665 1258.58 514.035 1258.41 513.824L1258.35 513.762L1258.16 513.539L1255.48 510.279L1254.74 509.385L1254.33 508.908C1253.83 508.328 1253.35 507.793 1252.9 507.302L1252.64 507.037L1252.45 506.835L1252.26 506.639L1252.07 506.45L1251.89 506.266L1251.7 506.089L1251.52 505.918L1251.35 505.753L1251.17 505.595L1251 505.443L1250.84 505.297L1250.67 505.159C1250.64 505.136 1250.62 505.114 1250.59 505.092L1250.43 504.963L1250.27 504.84L1250.12 504.725C1250.09 504.706 1250.07 504.688 1250.04 504.669L1249.89 504.564C1249.84 504.53 1249.79 504.497 1249.75 504.465L1249.6 504.374C1249.53 504.329 1249.46 504.288 1249.39 504.249L1249.26 504.175C1248.86 503.962 1248.49 503.845 1248.18 503.829L1248.02 503.825L1247.88 503.817L1247.71 503.802L1247.54 503.78L1247.29 503.743L1247.02 503.696L1246.59 503.611L1246 503.481L1242.79 502.708L1242.01 502.528L1241.5 502.414L1240.9 502.289C1240.87 502.283 1240.84 502.276 1240.81 502.27L1240.37 502.184Z" fill="#968BB4"/>
<path fill-rule="evenodd" clip-rule="evenodd" d="M914.111 498.86L982.72 351.746C985.915 344.888 992.797 340.505 1000.36 340.51H1294.79C1298.85 340.515 1302.62 342.589 1304.79 346.01C1306.97 349.431 1307.25 353.726 1305.53 357.399L1298.39 372.725L1297.46 374.687C1297.16 375.348 1296.5 376.599 1295.91 378.047L1292.65 385.327C1292.05 386.512 1291.53 387.586 1290.93 388.936L1289.47 391.857L1235.48 507.642C1233.37 512.182 1228.82 515.087 1223.81 515.091H924.457C920.556 515.097 916.921 513.108 914.824 509.818C912.727 506.528 912.458 502.394 914.111 498.86Z" fill="#233F94"/>
<path fill-rule="evenodd" clip-rule="evenodd" d="M935.713 501.765H1190.78L1259.77 353.824H1004.7L935.713 501.765Z" fill="white"/>
<path fill-rule="evenodd" clip-rule="evenodd" d="M1168.73 372.355L1151.69 408.914H1229.78L1246.83 372.355H1168.73Z" fill="#3078E6"/>
<path fill-rule="evenodd" clip-rule="evenodd" d="M1144.21 425.739L1127.16 462.298H1205.26L1222.31 425.739H1144.21Z" fill="#3078E6"/>
<path fill-rule="evenodd" clip-rule="evenodd" d="M1083.83 372.355L1066.79 408.914H1144.88L1161.93 372.355H1083.83Z" fill="#3078E6"/>
<path fill-rule="evenodd" clip-rule="evenodd" d="M1059.31 425.739L1042.26 462.298H1120.36L1137.4 425.739H1059.31Z" fill="#3078E6"/>
<path fill-rule="evenodd" clip-rule="evenodd" d="M999.208 372.355L982.162 408.914H1060.26L1077.31 372.355H999.208Z" fill="#3078E6"/>
<path fill-rule="evenodd" clip-rule="evenodd" d="M974.683 425.739L957.637 462.298H1035.73L1052.78 425.739H974.683Z" fill="#3078E6"/>
<path fill-rule="evenodd" clip-rule="evenodd" d="M1292.92 341.584C1292.35 341.32 1291.68 341.546 1291.39 342.089L1291.36 342.153L1212.29 511.708C1212.02 512.297 1212.27 512.996 1212.86 513.271C1213.43 513.535 1214.1 513.309 1214.39 512.766L1214.42 512.702L1293.49 343.147C1293.76 342.558 1293.51 341.859 1292.92 341.584Z" fill="white"/>
<path d="M933.49 485.726C930.833 485.726 928.68 483.573 928.68 480.916C928.68 478.259 930.833 476.105 933.49 476.105C936.147 476.105 938.301 478.259 938.301 480.916C938.301 483.573 936.147 485.726 933.49 485.726Z" fill="white"/>
</g>
<defs>
<clipPath id="clip0_2_202">
<rect width="1370" height="524" fill="white"/>
</clipPath>
</defs>
</svg>
