<svg xmlns="http://www.w3.org/2000/svg" width="354.069" height="212.867" viewBox="0 0 354.069 212.867">
  <g id="Group_2990" data-name="Group 2990" transform="translate(-237 -6752.346)">
    <g id="outline" transform="translate(237 6752.346)">
      <path id="Path_5761" data-name="Path 5761" d="M92.1,70.8a.752.752,0,0,1,.044,1.5H59.774c-18.687,0-31.957,14.87-29.939,33.38l.066.562,6.119,48.808a.752.752,0,0,1-1.486.231l-.007-.045-6.119-48.807c-2.44-19.47,11.3-35.314,30.774-35.629l.592,0Z" transform="translate(11.086 28.392)" fill="#23285f" fill-rule="evenodd"/>
      <path id="Path_5762" data-name="Path 5762" d="M108.426,59.567a.753.753,0,0,1,.778.4l.877,1.679a.752.752,0,0,1,.07.194l.009.051,1.053,7.575a.753.753,0,0,1-.1.5L111.08,70l-4.012,5.643a.752.752,0,0,1-1.253-.832l.026-.04,3.839-5.4-.994-7.149-.569-1.089-.08.012c-9.775,1.529-15.892,4.319-18.695,8.151l-.086.119c-2.437,3.434-2.25,7.745.291,12.828a.752.752,0,0,1-.529,1.075C72.505,86.548,59.066,100.4,51.048,120.286,43.824,138.2,42.2,158.6,46.877,171.694l.76,2.148c1.608,4.521,2.583,6.716,4.035,8.668a8.691,8.691,0,0,0,7.369,3.809.752.752,0,0,1-.014,1.5,10.184,10.184,0,0,1-8.562-4.416l-.121-.165c-1.462-2.01-2.453-4.23-3.993-8.531l-.858-2.422-.032-.088c-4.814-13.474-3.16-34.244,4.192-52.478C57.68,99.813,71.095,85.754,87.71,82.059l.073-.016-.051-.111c-2.286-5.073-2.339-9.57.214-13.264l.083-.119C91.135,64.172,97.827,61.144,108.426,59.567Z" transform="translate(16.942 23.884)" fill="#23285f" fill-rule="evenodd"/>
      <path id="Path_5763" data-name="Path 5763" d="M101.094,91.157v-.15a4.172,4.172,0,0,0,3.461-.828c2.759-2.383,3.737-3.11,3.737-3.11s.251.3.7.8c.552-1,1.1-2.057,1.68-3.11A150.154,150.154,0,0,0,89.658,70.866l-.677-.477-4.363,5.342S91.74,80.623,101.094,91.157Z" transform="translate(33.739 28.227)" fill="#2579ff" fill-rule="evenodd"/>
      <path id="Path_5764" data-name="Path 5764" d="M146.706,173.7s-19.059-51.266-16.627-67.142c1.33-8.678-.752-18.485-3.61-26.084L121,80.82l-6.546,15.45a11.548,11.548,0,0,0,1.279.251s-.251,1.63-.878,5.342c-.426,2.483.3,2.759.853,4.49a4.972,4.972,0,0,1,.677,4.489c-.2.653-.677,6.873-1.755,15.3q3.009,6.357,5.718,13.569c11.561,30.825,10.358,34.185,10.358,34.185Z" transform="translate(45.704 32.269)" fill="#2579ff" fill-rule="evenodd"/>
      <path id="Path_5765" data-name="Path 5765" d="M120.333,60.945a.752.752,0,0,1,.955-.468c7.62,2.611,12.938,6.734,16.41,12.117a33.5,33.5,0,0,1,4.741,13.1l.036.213.507.387c24.279,18.6,41.628,39.565,53.156,61.566l.352.674a144.877,144.877,0,0,1,9.944,24.114A97.481,97.481,0,0,1,209.66,186.2a.753.753,0,0,1-1.488.227l-.059-.375A97.1,97.1,0,0,0,205,173.083a143.314,143.314,0,0,0-9.842-23.861c-11.542-22.277-29.088-43.514-53.825-62.3a.746.746,0,0,1-.287-.477c-.856-5.189-2.141-9.207-4.608-13.033-3.287-5.1-8.33-9.007-15.632-11.509A.752.752,0,0,1,120.333,60.945Z" transform="translate(48.045 24.235)" fill="#23285f" fill-rule="evenodd"/>
      <path id="Path_5766" data-name="Path 5766" d="M129.184,96.456a1,1,0,0,1,.965.989v.065l-.006.166c0,.152-.008.332-.013.537a113.567,113.567,0,0,0,1.182,19.03,58.611,58.611,0,0,0,1.777,8.064,1,1,0,1,1-1.918.584,60.45,60.45,0,0,1-1.841-8.343A115.246,115.246,0,0,1,128.119,98.5l.014-.714.011-.364a1,1,0,0,1,.989-.966Z" transform="translate(51.176 38.68)" fill="#23285f" fill-rule="evenodd"/>
      <path id="Path_5767" data-name="Path 5767" d="M136.093,78.768c.175,1.078.325,2.057.451,2.909,1.53,9.982-1.755,16.629-3.938,21.219,5.844-4.138,9.806-12.014,11.787-18.008C142.011,82.982,138.726,80.724,136.093,78.768Z" transform="translate(52.983 31.587)" fill="#23285f" fill-rule="evenodd"/>
      <path id="Path_5768" data-name="Path 5768" d="M80.584,75.671c-4.088.828-10.808,2.884-15.673,6.22C68.3,83.747,85.072,93.78,98.765,99.8c.1-.05.853-1.3,1.229-1.806C92.42,92,84.445,83.421,80.584,75.671Z" transform="translate(25.836 30.345)" fill="#23285f" fill-rule="evenodd"/>
      <path id="Path_5769" data-name="Path 5769" d="M85.838,46.642a.752.752,0,0,1,.438,1.439l-.131.039-.15.048c-.2.067-.434.151-.682.252a11.423,11.423,0,0,0-2.076,1.095c-2.769,1.865-3.765,4.42-2.063,8.016,1.068,2.259,2.56,3.218,4.463,3.209a10.705,10.705,0,0,0,5.043-1.661.752.752,0,1,1,.743,1.309,12.04,12.04,0,0,1-5.778,1.857c-2.494.012-4.516-1.288-5.831-4.07-2.051-4.335-.756-7.659,2.583-9.908a12.908,12.908,0,0,1,2.35-1.241A10.3,10.3,0,0,1,85.838,46.642Z" transform="translate(31.418 18.693)" fill="#23285f" fill-rule="evenodd"/>
      <path id="Path_5770" data-name="Path 5770" d="M107.838,22.43a32.706,32.706,0,0,0-4.017,1.063l-.151.051c-9.474,3.226-15.2,8.879-17.8,16.249a31.534,31.534,0,0,0-.92,16.482c.13.672.27,1.284.41,1.826l.062.235.042.155q.041.147.074.26l.041.137a.752.752,0,0,0,.989.669l2.577-.859.035.027C91.33,60.4,97.1,67.671,98.958,71.208a.752.752,0,0,0,1.075.281l.221-.14.228-.14.258-.156.189-.112c.749-.443,1.63-.938,2.637-1.471a92.649,92.649,0,0,1,9.875-4.479l.472-.182c3-1.143,6.117-2.167,9.342-3.045l.507-.136.53-.117.38-.081.272-.058c.934-.2,1.926-.393,2.93-.576.8-.146,1.572-.277,2.307-.39l.5-.076a26.079,26.079,0,0,1,4.27-.359.753.753,0,0,0,.775-.845A116.908,116.908,0,0,0,129.013,31.5c-2.491-6.32-7.459-9.3-13.968-9.655A28.777,28.777,0,0,0,107.838,22.43Zm7.123.922c5.965.328,10.4,2.984,12.653,8.7l.146.375A114.871,114.871,0,0,1,134.066,58l.062.468h-.02a37.111,37.111,0,0,0-4.155.449c-.751.115-1.538.249-2.349.4-.891.163-1.771.335-2.61.509l-.635.133-.506.109-.447.1-.027.007A101.319,101.319,0,0,0,112.9,63.588a94.138,94.138,0,0,0-10.035,4.552l-.4.216c-.862.463-1.628.9-2.294,1.29L99.9,69.8l-.027-.048c-2.411-4.132-8.228-11.321-10.213-12.533l-.044-.025a.753.753,0,0,0-.585-.047l-2.17.723c-.146-.548-.292-1.181-.429-1.886a30.084,30.084,0,0,1,.862-15.7c2.416-6.865,7.716-12.14,16.594-15.232l.27-.093a31.011,31.011,0,0,1,3.977-1.063A27.313,27.313,0,0,1,114.96,23.353Z" transform="translate(33.604 8.748)" fill="#23285f" fill-rule="evenodd"/>
      <path id="Path_5771" data-name="Path 5771" d="M89.338,47.031a.752.752,0,0,1,.631.071c1.965,1.2,7.686,8.258,10.139,12.408l.1.172.265-.158.315-.185c.7-.406,1.493-.849,2.384-1.321a94.133,94.133,0,0,1,10.035-4.552,101.242,101.242,0,0,1,9.964-3.275l.517-.139.357-.08.619-.134.276-.059c.944-.2,1.946-.4,2.962-.584.7-.128,1.38-.245,2.036-.349l.325-.051a28.648,28.648,0,0,1,5.112-.447.752.752,0,0,1,.7.6l.035.184.07.389q.023.14.05.3l.057.352c.1.6.189,1.262.279,1.978a55.548,55.548,0,0,1,.221,12.748c-.017.149-.034.3-.052.444a.752.752,0,1,1-1.493-.183c.017-.141.034-.284.049-.427a54.027,54.027,0,0,0-.219-12.4l-.053-.413c-.08-.609-.163-1.173-.247-1.687l-.066-.393-.076,0a33.194,33.194,0,0,0-3.977.41l-.167.026c-.74.114-1.517.246-2.32.393-.876.161-1.743.331-2.569.5l-.755.159-.607.133-.182.041-.495.133c-3.225.878-6.344,1.9-9.342,3.045l-.472.181a92.692,92.692,0,0,0-9.875,4.479l-.4.211c-.779.418-1.476.81-2.089,1.17l-.341.2-.258.156-.393.244-.056.036a.752.752,0,0,1-1.075-.281c-1.84-3.5-7.513-10.658-9.71-12.43l-.1-.079-4.143,1.388,1.393,2.819,1.069,2.151c.8,1.608,1.6,3.2,2.373,4.734l1.073,2.118c2.265,4.454,3.979,7.7,4.917,9.273,3,5,4.763,6.5,11.538,9.166a23.261,23.261,0,0,0,8.155,1.379.752.752,0,0,1,0,1.5,24.758,24.758,0,0,1-8.7-1.482l-.624-.249c-6.45-2.6-8.5-4.341-11.469-9.233l-.189-.313c-.949-1.59-2.638-4.787-4.872-9.177l-.656-1.292c-1.02-2.014-2.087-4.142-3.158-6.294l-.919-1.851-1.659-3.361a.753.753,0,0,1,.394-1.029l.042-.016Z" transform="translate(33.294 18.844)" fill="#23285f" fill-rule="evenodd"/>
      <path id="Path_5772" data-name="Path 5772" d="M87.374,70.651a72.976,72.976,0,0,1-8.251-12.215,15.058,15.058,0,0,1,3.486-18.51c4.514-3.787,8.827-2.784,8.827-2.784a15.078,15.078,0,0,1-1.655-18.209,15.366,15.366,0,0,1,9.88-7.123,14.847,14.847,0,0,1,15.3,5.468s5.793-22.372,30.67-16.2c2.508.627,5.818,3.286,7.574,5.192,10.607,11.562-9.355,33.383-21.491,37.747-13.317,4.816-21.892,4.565-27.134,2.307C108.364,47.476,108.489,68.72,87.374,70.651Z" transform="translate(30.832 0)" fill="#23285f" fill-rule="evenodd"/>
      <path id="Path_5773" data-name="Path 5773" d="M111.92,44.836a1,1,0,0,1,1.274.537l.018.048,4.716,12.516a1,1,0,0,1-.9,1.356h-.046l-4.84-.025a1,1,0,0,1-.039-2.005h.05l3.381.018-4.2-11.151a1,1,0,0,1,.538-1.273Z" transform="translate(44.377 17.954)" fill="#23285f" fill-rule="evenodd"/>
      <path id="Path_5774" data-name="Path 5774" d="M110.789,63.519a2.383,2.383,0,1,0-2.383-2.383A2.382,2.382,0,0,0,110.789,63.519Z" transform="translate(43.278 23.561)" fill="#23285f" fill-rule="evenodd"/>
      <path id="Path_5775" data-name="Path 5775" d="M116.475,47.387c.726-.182,1.086-1.244.8-2.373s-1.1-1.9-1.826-1.715-1.084,1.244-.8,2.373S115.749,47.569,116.475,47.387Z" transform="translate(45.744 17.353)" fill="#23285f" fill-rule="evenodd"/>
      <path id="Path_5776" data-name="Path 5776" d="M107.366,49.5c.726-.181,1.084-1.244.8-2.372s-1.1-1.9-1.826-1.715-1.084,1.244-.8,2.373S106.64,49.683,107.366,49.5Z" transform="translate(42.091 18.201)" fill="#23285f" fill-rule="evenodd"/>
      <path id="Path_5777" data-name="Path 5777" d="M105.869,37.848a1,1,0,1,1,.192,2,5.134,5.134,0,0,0-3.28,1.531,5.443,5.443,0,0,0-.824,1.079l-.057.1c-.078.144-.13.253-.156.314l-.007.019a1,1,0,1,1-1.876-.711,5.183,5.183,0,0,1,.361-.729,7.413,7.413,0,0,1,1.128-1.479A7.131,7.131,0,0,1,105.869,37.848Z" transform="translate(39.826 15.176)" fill="#23285f" fill-rule="evenodd"/>
      <path id="Path_5778" data-name="Path 5778" d="M113.488,35.46a5.6,5.6,0,0,1,2.78-.3,3.951,3.951,0,0,1,2.777,1.931,1,1,0,1,1-1.713,1.044,1.952,1.952,0,0,0-1.4-1,3.687,3.687,0,0,0-1.783.215c-.161.056-.308.116-.437.174l-.112.054-.021.011a1,1,0,1,1-.958-1.762l.085-.045A6.486,6.486,0,0,1,113.488,35.46Z" transform="translate(44.757 14.074)" fill="#23285f" fill-rule="evenodd"/>
      <path id="Path_5779" data-name="Path 5779" d="M261.43,100.806h-97.5a2.761,2.761,0,0,0-2.684,2.131l-13.566,57.387H112.344s-1.956,10.107,9.454,10.107H246.284a2.759,2.759,0,0,0,2.683-2.132l15.148-64.107A2.756,2.756,0,0,0,261.43,100.806Z" transform="translate(44.807 40.424)" fill="#23285f" fill-rule="evenodd"/>
      <path id="Path_5780" data-name="Path 5780" d="M191.683,41.438h-.778a1.242,1.242,0,0,1-1.254-1.254V38.2a1.242,1.242,0,0,1,1.254-1.254h.778a1.242,1.242,0,0,1,1.254,1.254v1.981A1.242,1.242,0,0,1,191.683,41.438Z" transform="translate(75.859 14.817)" fill="#2579ff" fill-rule="evenodd"/>
      <path id="Path_5781" data-name="Path 5781" d="M193.949,41.438H173.938a1.241,1.241,0,0,1-1.254-1.254V38.2a1.241,1.241,0,0,1,1.254-1.254h20.011A1.241,1.241,0,0,1,195.2,38.2v1.981A1.241,1.241,0,0,1,193.949,41.438Z" transform="translate(69.054 14.817)" fill="#23285f" fill-rule="evenodd"/>
      <path id="Path_5782" data-name="Path 5782" d="M196,56.315H173.955a1.242,1.242,0,0,1-1.254-1.254V53.079a1.242,1.242,0,0,1,1.254-1.254H196a1.242,1.242,0,0,1,1.254,1.254v1.981A1.258,1.258,0,0,1,196,56.315Z" transform="translate(69.061 20.782)" fill="#23285f" fill-rule="evenodd"/>
      <path id="Path_5783" data-name="Path 5783" d="M213.961,51.356H178.377a1.241,1.241,0,0,1-1.254-1.254V48.12a1.241,1.241,0,0,1,1.254-1.254h35.584a1.242,1.242,0,0,1,1.254,1.254V50.1A1.242,1.242,0,0,1,213.961,51.356Z" transform="translate(70.835 18.794)" fill="#2579ff" fill-rule="evenodd"/>
      <path id="Path_5784" data-name="Path 5784" d="M225.143,51.356H207.087a1.242,1.242,0,0,1-1.254-1.254V48.12a1.242,1.242,0,0,1,1.254-1.254h18.056A1.242,1.242,0,0,1,226.4,48.12V50.1A1.242,1.242,0,0,1,225.143,51.356Z" transform="translate(82.348 18.794)" fill="#2579ff" fill-rule="evenodd"/>
      <path id="Path_5785" data-name="Path 5785" d="M225.173,46.415H224.4a1.241,1.241,0,0,1-1.254-1.254V43.179a1.241,1.241,0,0,1,1.254-1.254h.776a1.241,1.241,0,0,1,1.254,1.254V45.16A1.257,1.257,0,0,1,225.173,46.415Z" transform="translate(89.289 16.812)" fill="#23285f" fill-rule="evenodd"/>
      <path id="Path_5786" data-name="Path 5786" d="M210.826,46.4H173.938a1.241,1.241,0,0,1-1.254-1.254V43.161a1.241,1.241,0,0,1,1.254-1.254h36.889a1.242,1.242,0,0,1,1.254,1.254v1.981A1.242,1.242,0,0,1,210.826,46.4Z" transform="translate(69.054 16.805)" fill="#23285f" fill-rule="evenodd"/>
      <path id="Path_5787" data-name="Path 5787" d="M214.3,41.438H194.289a1.242,1.242,0,0,1-1.254-1.254V38.2a1.242,1.242,0,0,1,1.254-1.254H214.3a1.242,1.242,0,0,1,1.254,1.254v1.981A1.258,1.258,0,0,1,214.3,41.438Z" transform="translate(77.215 14.817)" fill="#23285f" fill-rule="evenodd"/>
      <path id="Path_5788" data-name="Path 5788" d="M228.588,46.422H203.311a1.241,1.241,0,0,1-1.254-1.254V43.161a1.241,1.241,0,0,1,1.254-1.254h25.277a1.241,1.241,0,0,1,1.254,1.254v2.007A1.257,1.257,0,0,1,228.588,46.422Z" transform="translate(80.833 16.805)" fill="#2579ff" fill-rule="evenodd"/>
      <path id="Path_5789" data-name="Path 5789" d="M193.949,73.554H173.938a1.241,1.241,0,0,1-1.254-1.254V70.319a1.241,1.241,0,0,1,1.254-1.254h20.011a1.241,1.241,0,0,1,1.254,1.254V72.3A1.241,1.241,0,0,1,193.949,73.554Z" transform="translate(69.054 27.696)" fill="#23285f" fill-rule="evenodd"/>
      <path id="Path_5790" data-name="Path 5790" d="M196,88.431H173.955a1.242,1.242,0,0,1-1.254-1.254V85.2a1.242,1.242,0,0,1,1.254-1.254H196a1.242,1.242,0,0,1,1.254,1.254v1.981A1.274,1.274,0,0,1,196,88.431Z" transform="translate(69.061 33.661)" fill="#23285f" fill-rule="evenodd"/>
      <path id="Path_5791" data-name="Path 5791" d="M213.961,83.472H178.377a1.241,1.241,0,0,1-1.254-1.254V80.237a1.241,1.241,0,0,1,1.254-1.254h35.584a1.242,1.242,0,0,1,1.254,1.254v1.981A1.242,1.242,0,0,1,213.961,83.472Z" transform="translate(70.835 31.673)" fill="#2579ff" fill-rule="evenodd"/>
      <path id="Path_5792" data-name="Path 5792" d="M225.143,83.472H207.087a1.242,1.242,0,0,1-1.254-1.254V80.237a1.242,1.242,0,0,1,1.254-1.254h18.056a1.242,1.242,0,0,1,1.254,1.254v1.981A1.242,1.242,0,0,1,225.143,83.472Z" transform="translate(82.348 31.673)" fill="#2579ff" fill-rule="evenodd"/>
      <path id="Path_5793" data-name="Path 5793" d="M225.173,78.531H224.4a1.241,1.241,0,0,1-1.254-1.254V75.3a1.241,1.241,0,0,1,1.254-1.254h.776a1.241,1.241,0,0,1,1.254,1.254v1.981A1.257,1.257,0,0,1,225.173,78.531Z" transform="translate(89.289 29.691)" fill="#23285f" fill-rule="evenodd"/>
      <path id="Path_5794" data-name="Path 5794" d="M229.255,73.554h-.778a1.241,1.241,0,0,1-1.254-1.254V70.319a1.241,1.241,0,0,1,1.254-1.254h.778a1.242,1.242,0,0,1,1.254,1.254V72.3A1.242,1.242,0,0,1,229.255,73.554Z" transform="translate(90.926 27.696)" fill="#23285f" fill-rule="evenodd"/>
      <path id="Path_5795" data-name="Path 5795" d="M210.826,78.513H173.938a1.241,1.241,0,0,1-1.254-1.254V75.278a1.241,1.241,0,0,1,1.254-1.254h36.889a1.242,1.242,0,0,1,1.254,1.254v1.981A1.242,1.242,0,0,1,210.826,78.513Z" transform="translate(69.054 29.684)" fill="#23285f" fill-rule="evenodd"/>
      <path id="Path_5796" data-name="Path 5796" d="M215.65,73.554H190.924A1.242,1.242,0,0,1,189.67,72.3V70.319a1.242,1.242,0,0,1,1.254-1.254H215.65a1.241,1.241,0,0,1,1.254,1.254V72.3A1.257,1.257,0,0,1,215.65,73.554Z" transform="translate(75.866 27.696)" fill="#2579ff" fill-rule="evenodd"/>
      <path id="Path_5797" data-name="Path 5797" d="M231.61,73.554H211.6a1.242,1.242,0,0,1-1.254-1.254V70.319a1.242,1.242,0,0,1,1.254-1.254H231.61a1.242,1.242,0,0,1,1.254,1.254V72.3A1.242,1.242,0,0,1,231.61,73.554Z" transform="translate(84.156 27.696)" fill="#2579ff" fill-rule="evenodd"/>
      <path id="Path_5798" data-name="Path 5798" d="M191.683,68.757h-.778a1.242,1.242,0,0,1-1.254-1.254V65.521a1.242,1.242,0,0,1,1.254-1.254h.778a1.242,1.242,0,0,1,1.254,1.254V67.5A1.258,1.258,0,0,1,191.683,68.757Z" transform="translate(75.859 25.772)" fill="#2579ff" fill-rule="evenodd"/>
      <path id="Path_5799" data-name="Path 5799" d="M193.949,68.757H173.938a1.241,1.241,0,0,1-1.254-1.254V65.521a1.241,1.241,0,0,1,1.254-1.254h20.011a1.241,1.241,0,0,1,1.254,1.254V67.5A1.257,1.257,0,0,1,193.949,68.757Z" transform="translate(69.054 25.772)" fill="#23285f" fill-rule="evenodd"/>
      <path id="Path_5800" data-name="Path 5800" d="M214.3,68.757H194.289a1.242,1.242,0,0,1-1.254-1.254V65.521a1.242,1.242,0,0,1,1.254-1.254H214.3a1.242,1.242,0,0,1,1.254,1.254V67.5A1.275,1.275,0,0,1,214.3,68.757Z" transform="translate(77.215 25.772)" fill="#23285f" fill-rule="evenodd"/>
      <path id="Path_5801" data-name="Path 5801" d="M228.588,78.539H203.311a1.241,1.241,0,0,1-1.254-1.254V75.278a1.241,1.241,0,0,1,1.254-1.254h25.277a1.241,1.241,0,0,1,1.254,1.254v2.007A1.257,1.257,0,0,1,228.588,78.539Z" transform="translate(80.833 29.684)" fill="#2579ff" fill-rule="evenodd"/>
      <path id="Path_5802" data-name="Path 5802" d="M243.907,130.907a7.291,7.291,0,1,1,1.048,14.544,8.237,8.237,0,0,1-1.653-.057.753.753,0,0,1,.223-1.489,6.667,6.667,0,0,0,1.341.045,5.787,5.787,0,0,0-.838-11.543,6.629,6.629,0,0,0-1.53.315.753.753,0,0,1-.476-1.428A8.1,8.1,0,0,1,243.907,130.907Z" transform="translate(96.653 52.486)" fill="#23285f" fill-rule="evenodd"/>
      <path id="Path_5803" data-name="Path 5803" d="M223.865,123.784a.753.753,0,0,1,1.028.069l.031.035,9.355,11.413a.753.753,0,0,1-1.133.989l-.031-.035-9.353-11.413A.751.751,0,0,1,223.865,123.784Z" transform="translate(89.468 49.57)" fill="#23285f" fill-rule="evenodd"/>
      <path id="Path_5804" data-name="Path 5804" d="M223.142,129.771v21.521a7.514,7.514,0,0,0,7.523,7.523h12.689a7.514,7.514,0,0,0,7.523-7.523V129.771Zm11.235,15.752a.5.5,0,0,1,.251.451.459.459,0,0,1-.15.352.493.493,0,0,1-.352.15.424.424,0,0,1-.251-.074l-5.016-3.011a.507.507,0,0,1,0-.9l5.016-3.009a.425.425,0,0,1,.251-.076.459.459,0,0,1,.352.15.5.5,0,0,1,.15.352.532.532,0,0,1-.251.451l-4.314,2.583Zm6.27-7.424-4.038,10.083a.535.535,0,0,1-.1.15.493.493,0,0,1-.352.15.451.451,0,0,1-.35-.15.5.5,0,0,1-.151-.352.736.736,0,0,1,.05-.226l4.038-10.082a.551.551,0,0,1,.1-.151.5.5,0,0,1,.352-.15.461.461,0,0,1,.352.15.5.5,0,0,1,.1.577Zm6.822,5.292-5.016,3.011a.424.424,0,0,1-.251.074.454.454,0,0,1-.352-.15.493.493,0,0,1-.15-.352.53.53,0,0,1,.251-.451l4.312-2.583-4.312-2.583a.5.5,0,0,1-.251-.451.456.456,0,0,1,.15-.352.5.5,0,0,1,.352-.15.425.425,0,0,1,.251.076l5.016,3.009a.561.561,0,0,1,.276.451A.48.48,0,0,1,247.468,143.39Z" transform="translate(89.289 52.039)" fill="#23285f" fill-rule="evenodd"/>
      <path id="Path_5805" data-name="Path 5805" d="M21.473,130.906a6.817,6.817,0,0,1,1.325.029.753.753,0,0,1-.2,1.492,5.4,5.4,0,0,0-1.027-.021,5.786,5.786,0,0,0,.844,11.542.752.752,0,0,1,.115,1.5,7.29,7.29,0,1,1-1.057-14.542Z" transform="translate(5.704 52.487)" fill="#23285f" fill-rule="evenodd"/>
      <path id="Path_5806" data-name="Path 5806" d="M19.642,129.771v21.521a7.514,7.514,0,0,0,7.523,7.523H39.854a7.514,7.514,0,0,0,7.523-7.523V129.771Zm11.209,15.752a.5.5,0,0,1,.251.451.456.456,0,0,1-.15.352.492.492,0,0,1-.351.15.421.421,0,0,1-.251-.074l-5.015-3.011a.507.507,0,0,1,0-.9l5.015-3.009a.422.422,0,0,1,.251-.076.458.458,0,0,1,.351.15.5.5,0,0,1,.15.352.531.531,0,0,1-.251.451l-4.313,2.583Zm10.583-2.132L36.419,146.4a.421.421,0,0,1-.251.074.453.453,0,0,1-.351-.15.5.5,0,0,1-.15-.352.533.533,0,0,1,.251-.451l4.313-2.583-4.313-2.583a.5.5,0,0,1-.251-.451.458.458,0,0,1,.15-.352.5.5,0,0,1,.351-.15.422.422,0,0,1,.251.076l5.015,3.009a.56.56,0,0,1,.276.451A.526.526,0,0,1,41.435,143.39Z" transform="translate(7.683 52.039)" fill="#23285f" fill-rule="evenodd"/>
      <path id="Path_5807" data-name="Path 5807" d="M50.245,118.694a.752.752,0,0,1,1,.255l.023.041,3.436,6.219a.753.753,0,0,1-1.294.768l-.023-.039-3.436-6.22A.753.753,0,0,1,50.245,118.694Z" transform="translate(19.799 47.56)" fill="#23285f" fill-rule="evenodd"/>
      <path id="Path_5808" data-name="Path 5808" d="M66.628,123.523a.753.753,0,0,1,.044,1.5H47.62a.753.753,0,0,1-.044-1.5H66.628Z" transform="translate(18.601 49.534)" fill="#23285f" fill-rule="evenodd"/>
      <path id="Path_5809" data-name="Path 5809" d="M59.818,138.647a1.436,1.436,0,0,0-1.053-.426,1.521,1.521,0,0,0-1.053.426,1.438,1.438,0,0,0-.426,1.054,1.524,1.524,0,0,0,.426,1.054,1.435,1.435,0,0,0,1.053.426,1.521,1.521,0,0,0,1.053-.426,1.438,1.438,0,0,0,.426-1.054A1.347,1.347,0,0,0,59.818,138.647Z" transform="translate(22.778 55.428)" fill="#23285f" fill-rule="evenodd"/>
      <path id="Path_5810" data-name="Path 5810" d="M58.782,137.8a1.527,1.527,0,0,0,1.053-.426,1.438,1.438,0,0,0,.426-1.054,1.522,1.522,0,0,0-.426-1.054,1.437,1.437,0,0,0-1.053-.427,1.522,1.522,0,0,0-1.053.427,1.436,1.436,0,0,0-.426,1.054,1.524,1.524,0,0,0,.426,1.054A1.483,1.483,0,0,0,58.782,137.8Z" transform="translate(22.785 54.071)" fill="#23285f" fill-rule="evenodd"/>
      <path id="Path_5811" data-name="Path 5811" d="M59.817,144.1a1.438,1.438,0,0,0,.426-1.054,1.524,1.524,0,0,0-.426-1.054,1.436,1.436,0,0,0-1.053-.426,1.521,1.521,0,0,0-1.053.426,1.438,1.438,0,0,0-.426,1.054,1.522,1.522,0,0,0,.426,1.054,1.515,1.515,0,0,0,2.106,0Z" transform="translate(22.778 56.771)" fill="#23285f" fill-rule="evenodd"/>
      <path id="Path_5812" data-name="Path 5812" d="M68.969,128.543,65.633,124.2H49.559l-3.335,4.339a2.29,2.29,0,0,0-.5,1.4v26.41a2.486,2.486,0,0,0,1.229,2.082c1.028.653,2.357,1.631,2.432,2.583H65.759c.1-.953,1.4-1.956,2.433-2.583a2.454,2.454,0,0,0,1.229-2.082v-26.41A2.053,2.053,0,0,0,68.969,128.543ZM62,133.609l1.755-2.935a.316.316,0,0,1,.276-.15.348.348,0,0,1,.276.15l1.755,2.935a.316.316,0,0,1,.025.15.259.259,0,0,1-.276.276.276.276,0,0,1-.251-.15l-1.5-2.508-1.5,2.508a.307.307,0,0,1-.251.15.259.259,0,0,1-.276-.276C61.946,133.685,61.971,133.634,62,133.609Zm.1,1.1a.361.361,0,0,1,.176-.05.284.284,0,0,1,.2.476c-.05.05-.1.076-.1.1a1.436,1.436,0,0,0-.426,1.054,1.324,1.324,0,0,0,.376.978.443.443,0,0,0,.251.1.219.219,0,0,0,.226-.175l.6-1.806a1.635,1.635,0,0,1,.251-.476.833.833,0,0,1,.627-.251.856.856,0,0,1,.627.276,1.871,1.871,0,0,1,.552,1.38,2.047,2.047,0,0,1-.727,1.579.211.211,0,0,1-.175.05.284.284,0,0,1-.2-.476c.05-.05.1-.076.1-.1a1.435,1.435,0,0,0,.426-1.052,1.325,1.325,0,0,0-.376-.979.453.453,0,0,0-.251-.1.219.219,0,0,0-.226.175l-.6,1.806a1.616,1.616,0,0,1-.251.476.833.833,0,0,1-.627.251.851.851,0,0,1-.627-.276,1.868,1.868,0,0,1-.552-1.379A1.969,1.969,0,0,1,62.1,134.713Zm-.125,4.413a2.06,2.06,0,1,1-.6,1.456A1.97,1.97,0,0,1,61.972,139.126Zm-.527,12.867a.276.276,0,0,1,.2-.476h.326a2.046,2.046,0,0,1-.627-1.479,2.057,2.057,0,1,1,2.056,2.057H61.646A.5.5,0,0,1,61.445,151.993Zm4.589,1.1-1.755,2.934a.314.314,0,0,1-.276.151.346.346,0,0,1-.276-.151L61.972,153.1a.321.321,0,0,1-.025-.151.259.259,0,0,1,.276-.276.276.276,0,0,1,.251.151l1.5,2.508,1.5-2.508a.3.3,0,0,1,.251-.151.259.259,0,0,1,.276.276C66.059,153.021,66.059,153.047,66.034,153.1Zm1.129-5.818a.283.283,0,0,1-.2.074H63.427a2.053,2.053,0,1,1,1.455-.6l-.025.025h2.106a.258.258,0,0,1,.276.276A.352.352,0,0,1,67.163,147.279Z" transform="translate(18.141 49.807)" fill="#23285f" fill-rule="evenodd"/>
      <path id="Path_5813" data-name="Path 5813" d="M105.457,63.174c1.093-1.49,3.047-1.094,5.041.966a16.185,16.185,0,0,1,3.878,7.572.752.752,0,1,1-1.464.349,14.735,14.735,0,0,0-3.5-6.874c-1.435-1.484-2.345-1.668-2.746-1.122-.488.665-.423,2.177.3,3.626l.045.089c1.048,2.026,1.341,6.016,1.188,10.953a.753.753,0,0,1-1.5-.047l.015-.526c.105-4.357-.181-7.954-1-9.623l-.032-.066C104.676,66.536,104.57,64.384,105.457,63.174Z" transform="translate(41.854 24.974)" fill="#23285f" fill-rule="evenodd"/>
      <path id="Path_5814" data-name="Path 5814" d="M131.33,60.418a7.3,7.3,0,1,0,7.3,7.3A7.3,7.3,0,0,0,131.33,60.418Zm0,1.5a5.794,5.794,0,1,1-5.793,5.794A5.794,5.794,0,0,1,131.33,61.923Z" transform="translate(49.544 24.228)" fill="#23285f" fill-rule="evenodd"/>
      <path id="Path_5815" data-name="Path 5815" d="M111.443,82.759a.751.751,0,0,1,1.006.114l.136.172c.092.115.2.248.325.4.356.433.771.916,1.237,1.437a51.05,51.05,0,0,0,4.4,4.368c3.812,3.336,7.607,5.546,11.134,6.117a.753.753,0,0,1,.605.544l.017.064c.025.108.055.266.083.475a16.854,16.854,0,0,1-.179,4.618l-.028.176a3.706,3.706,0,0,0,.873,2.883l.4.6a7.542,7.542,0,0,1,1.072,2.129,5.639,5.639,0,0,1-.078,3.336l-.006.022c-.09.5-.836,7.767-1.194,10.89l-.032.284c-.948,8.154-2.086,15.764-3.553,22.972-1.936,9.5-4.283,17.419-7.121,23.328-3.421,7.126-7.49,11.176-12.333,11.537a.752.752,0,1,1-.112-1.5c4.133-.308,7.8-3.926,10.993-10.488l.1-.2c2.775-5.778,5.09-13.584,7-22.977,1.419-6.967,2.529-14.323,3.456-22.191l.139-1.2c.347-3.088,1.1-10.391,1.219-10.9l0-.013c.507-1.669.251-2.6-.874-4.309l-.263-.4c-1.033-1.56-1.4-2.575-1.168-4.047a16.371,16.371,0,0,0,.223-4.184l-.008-.069-.139-.029c-3.6-.763-7.322-2.974-11.037-6.192l-.174-.152a52.57,52.57,0,0,1-4.532-4.5c-.394-.439-.751-.853-1.07-1.234l-.2-.237-.342.273c-.657.529-1.495,1.226-2.532,2.113a3.968,3.968,0,0,1-2.2.958l-.124.013a8.13,8.13,0,0,1-1.81-.08l-.106-.012c-2.051-.241-2.9-.078-4,1.162l-.057.065c-.711.811-4.342,6.629-9.884,15.764l-1.755,2.9-.718,1.188c-1.684,2.788-3.432,5.7-5.195,8.633l-4.31,7.2-1.1,1.851a.752.752,0,0,1-1.315-.73l1.266-2.124,2.282-3.816c2.27-3.794,4.549-7.588,6.727-11.2l2.682-4.433c5.756-9.491,9.386-15.308,10.192-16.227a5,5,0,0,1,2.8-1.738,6.49,6.49,0,0,1,2.219-.033l.554.063c1.54.169,2.145.077,2.881-.551l.629-.535c.765-.648,1.407-1.179,1.937-1.606l.394-.314.262-.206.261-.2Z" transform="translate(30.372 33.13)" fill="#23285f" fill-rule="evenodd"/>
      <path id="Path_5816" data-name="Path 5816" d="M122.14,101.155c.628-3.737.878-5.342.878-5.342-9.58-1.48-19.435-13.519-19.435-13.519s-.978.727-3.737,3.11a4.133,4.133,0,0,1-3.461.828c-.853,10.459,17.931,19.764,26.808,20.215C122.641,103.939,121.663,103.99,122.14,101.155Z" transform="translate(38.447 33.001)" fill="#23285f" fill-rule="evenodd"/>
      <path id="Path_5817" data-name="Path 5817" d="M79.253,104.927a8.568,8.568,0,0,1,7.256,2.141.753.753,0,1,1-1.028,1.1,7.077,7.077,0,0,0-6.039-1.747,18.686,18.686,0,0,0-6.921,2.635,31.927,31.927,0,0,0-2.839,1.894l-.22.167c-.142.108-.276.213-.4.311l-.18.144-.172.142-.1.085a.752.752,0,0,1-.983-1.139l.1-.088.159-.13.239-.192c.2-.157.417-.326.655-.5a33.117,33.117,0,0,1,2.975-1.985A20.087,20.087,0,0,1,79.253,104.927Z" transform="translate(26.819 42.039)" fill="#23285f" fill-rule="evenodd"/>
      <path id="Path_5818" data-name="Path 5818" d="M129.636,63.108l-.066.008c-1.009.145-3.786,1.725-7.7,4.248l-.8.519c-3.557,2.319-7.055,4.78-8.216,5.791l-.063.057c-1.041.979-3.388,4.836-6.823,11l-.216.388q-.3.543-.612,1.1l-.608,1.1c-1.122,2.041-2.277,4.173-3.425,6.32l-1,1.869c-.365.686-.708,1.333-1.026,1.935l-.671,1.274a.752.752,0,0,0,.289,1l18.958,11.011.041.022a.752.752,0,0,0,1.03-.38l9.287-21.967.127,0c3.924-.09,6.547-1.129,7.732-2.8,1.139-1.612.593-3.675-1.1-3.809l-.045,0c-.22-.015-.514-.015-.876,0l-.231.01.028-.009c2.278-.757,3.65-1.909,4.084-3.312.49-1.585-.44-3.243-1.844-3.331l-.032,0a9.757,9.757,0,0,0-1.813.2l-.136.024.05-.027a4.5,4.5,0,0,0,2.338-2.879,2.572,2.572,0,0,0-1.692-3.234l-.042-.01c-.783-.171-2.841.233-5.675,1.027l-.3.085.137-.08c.885-.514,1.639-.975,2.243-1.372,1.65-1.086,2.216-2.561,1.639-3.917A3.084,3.084,0,0,0,129.636,63.108Zm1.586,2.44c.273.64,0,1.361-1.082,2.071l-.2.13c-.716.462-1.638,1.012-2.729,1.633l-.545.309-.4.224c-1.056.589-2.181,1.2-3.313,1.8l-.754.4-1.187.618-.182.094a.752.752,0,0,0,.588,1.381l.558-.192c5.994-2.052,11.4-3.548,12.248-3.327.5.133.776.7.607,1.443a3.367,3.367,0,0,1-2.4,2.246l-.122.04L122.1,78.047a.753.753,0,0,0,.392,1.449l.08-.019,1.419-.351.353-.086c1.372-.335,2.774-.67,4.126-.982l.594-.136.842-.191a40.976,40.976,0,0,1,5.88-1.084c.368.023.733.672.513,1.385-.357,1.151-1.933,2.209-4.919,2.792l-1,.191c-5.283,1.023-7.169,1.7-7.46,2.351a.752.752,0,0,0,.75,1.056l1.359-.182c1.009-.133,2.055-.267,3.088-.391l.531-.063,1.185-.136a37.994,37.994,0,0,1,4.825-.356c.361.028.532.676-.007,1.44-.918,1.3-3.3,2.185-7.13,2.174l-.049,0a.754.754,0,0,0-.646.458L117.68,109l-17.6-10.22,1.236-2.336.492-.923.625-1.169c1.355-2.531,2.718-5.042,4.024-7.406l.611-1.1.611-1.1c3.141-5.6,5.392-9.271,6.163-9.944,2.74-2.386,14.6-10.088,15.921-10.2A1.588,1.588,0,0,1,131.222,65.548Z" transform="translate(39.237 25.303)" fill="#23285f" fill-rule="evenodd"/>
      <path id="Path_5819" data-name="Path 5819" d="M91.385,130.907a7.29,7.29,0,1,1,1.056,14.542,7.147,7.147,0,0,1-2.691-.312.752.752,0,1,1,.476-1.428,5.642,5.642,0,0,0,2.117.238,5.786,5.786,0,0,0-.847-11.54,6.729,6.729,0,0,0-.949.136.753.753,0,0,1-.315-1.472A8.215,8.215,0,0,1,91.385,130.907Z" transform="translate(35.591 52.486)" fill="#23285f" fill-rule="evenodd"/>
      <path id="Path_5820" data-name="Path 5820" d="M70.71,129.771v21.521a7.514,7.514,0,0,0,7.523,7.523H90.922a7.514,7.514,0,0,0,7.523-7.523V129.771Zm11.209,15.752a.5.5,0,0,1,.251.451.456.456,0,0,1-.15.352.492.492,0,0,1-.351.15.421.421,0,0,1-.251-.074L76.4,143.39a.507.507,0,0,1,0-.9l5.015-3.009a.422.422,0,0,1,.251-.076.458.458,0,0,1,.351.15.5.5,0,0,1,.15.352.531.531,0,0,1-.251.451l-4.313,2.583Zm6.27-7.424-4.038,10.083a.543.543,0,0,1-.1.15.494.494,0,0,1-.351.151.454.454,0,0,1-.351-.151.5.5,0,0,1-.15-.352.741.741,0,0,1,.05-.226l4.038-10.082a.528.528,0,0,1,.1-.151.5.5,0,0,1,.351-.15.458.458,0,0,1,.351.15.5.5,0,0,1,.15.352A.5.5,0,0,1,88.189,138.1Zm6.821,5.292L89.994,146.4a.421.421,0,0,1-.251.074.453.453,0,0,1-.351-.15.5.5,0,0,1-.15-.352.533.533,0,0,1,.251-.451l4.313-2.583-4.313-2.583a.5.5,0,0,1-.251-.451.458.458,0,0,1,.15-.352.5.5,0,0,1,.351-.15.422.422,0,0,1,.251.076l5.015,3.009a.56.56,0,0,1,.276.451A.442.442,0,0,1,95.01,143.39Z" transform="translate(28.162 52.039)" fill="#23285f" fill-rule="evenodd"/>
      <path id="Path_5821" data-name="Path 5821" d="M353.56,150.14c.357,0,.647.563.647,1.26,0,.671-.27,1.22-.609,1.258H.785c-.357,0-.647-.563-.647-1.26,0-.671.269-1.219.609-1.258H353.56Z" transform="translate(-0.138 60.208)" fill="#23285f" fill-rule="evenodd"/>
      <path id="Path_5822" data-name="Path 5822" d="M137.489,80.831l-1.38-21.469-27.685,1.781.954,14.522c2.457-2.107,14.544-10.183,16.3-10.333s3.863,2.408.853,4.389-9.38,5.242-9.38,5.242c5.292-1.856,11.987-3.862,13.241-3.536,1.907.5,1.781,4.013-1.855,5.167L118.331,80.23s11.886-2.985,13.492-2.859,3.009,4.289-4.464,5.693c-7.474,1.43-7.774,2.082-7.774,2.082s9.2-1.3,11.109-1.129,1.956,5.142-7.2,5.116l-.05.126,7.047-.452A7.5,7.5,0,0,0,137.489,80.831Z" transform="translate(43.286 23.805)" fill="#23285f" fill-rule="evenodd"/>
    </g>
  </g>
</svg>