<svg width="419" height="170" viewBox="0 0 419 170" fill="none" xmlns="http://www.w3.org/2000/svg">
<path d="M52.0334 45.2231C55.4595 41.3328 60.703 40.4628 65.6303 42.6748C70.5621 44.8889 74.3589 49.7933 75.6168 56.0687L75.7414 56.7051L75.7847 56.922C76.8264 62.095 77.8294 64.3783 79.9548 66.666L80.0287 66.7452C81.1541 67.9149 86.0339 72.2727 86.7407 72.9349C86.8196 73.0051 86.8837 73.0905 86.9291 73.1859C86.9745 73.2813 87.0004 73.3848 87.0052 73.4903C87.01 73.5959 86.9937 73.7014 86.9571 73.8005C86.9205 73.8996 86.8644 73.9904 86.7922 74.0676C86.72 74.1447 86.633 74.2066 86.5365 74.2496C86.44 74.2926 86.3358 74.3158 86.2302 74.318C86.1245 74.3201 86.0195 74.301 85.9214 74.2619C85.8232 74.2229 85.7338 74.1645 85.6586 74.0903L84.9768 73.4683C83.384 72.0248 79.7468 68.7513 78.8315 67.7835L78.7953 67.745C76.4448 65.2149 75.3276 62.6712 74.2328 57.2358C74.1886 57.0164 74.1442 56.7907 74.0995 56.5588C71.8009 44.5527 59.5705 39.0622 53.2227 46.2706C50.481 49.3815 50.2047 54.0758 51.8938 59.6843C53.1113 63.7266 55.4022 68.1063 57.0729 70.2013L57.1473 70.2937C57.9705 71.3059 58.3255 73.1017 58.7309 77.2844L59.1207 81.5221L59.2036 82.3806C59.3226 83.5886 59.4411 84.6678 59.5715 85.7341C59.9273 88.8106 60.4747 91.862 61.2105 94.8703C61.3263 95.3308 61.4468 95.7853 61.5721 96.234C61.6001 96.3342 61.6081 96.4389 61.5956 96.5421C61.5832 96.6454 61.5505 96.7451 61.4995 96.8358C61.4485 96.9264 61.3801 97.006 61.2983 97.0702C61.2164 97.1344 61.1228 97.1819 61.0226 97.2099C60.9225 97.2379 60.8178 97.2458 60.7145 97.2334C60.6113 97.2209 60.5115 97.1882 60.4209 97.1372C60.3303 97.0861 60.2506 97.0178 60.1864 96.9359C60.1223 96.8541 60.0748 96.7604 60.0469 96.6603C59.9177 96.1982 59.7937 95.7303 59.6747 95.2564C58.9227 92.1845 58.3632 89.0687 57.9996 85.927L57.9391 85.4274C57.8301 84.5084 57.7293 83.5688 57.6277 82.5371L57.5221 81.4313C57.4326 80.4695 57.2379 78.3111 57.1988 77.8946L57.1555 77.4401C56.7902 73.6818 56.4532 71.9478 55.9206 71.293C54.1124 69.076 51.6737 64.4398 50.3781 60.1406C48.5475 54.0629 48.8549 48.832 52.0334 45.2231Z" fill="#2F76E3"/>
<path d="M39.4828 83.6332C44.0137 83.2286 48.8378 85.272 52.3803 89.3645L52.7234 89.7651C54.7042 92.0721 56.0964 93.3809 57.4538 94.2234C58.5771 94.9212 59.7048 95.3385 61.5938 95.7948L61.8654 95.8587C62.5516 96.0134 65.9473 96.7637 67.3393 97.1047L67.9159 97.2478C70.5162 97.9005 73.1977 98.6814 76.2625 99.7079C80.8055 101.222 85.0748 104.257 89.129 108.63C89.2005 108.706 89.2563 108.795 89.2931 108.893C89.3299 108.991 89.347 109.095 89.3434 109.199C89.3399 109.304 89.3157 109.406 89.2722 109.501C89.2288 109.596 89.167 109.682 89.0904 109.753C89.0138 109.824 88.9239 109.879 88.8259 109.915C88.7279 109.951 88.6238 109.967 88.5194 109.963C88.415 109.959 88.3126 109.934 88.2179 109.89C88.1232 109.846 88.0382 109.783 87.9677 109.706C84.0811 105.514 80.0234 102.631 75.7602 101.209C72.6218 100.158 69.8965 99.3692 67.2458 98.7121L66.5345 98.5394C64.8573 98.1422 61.6453 97.4344 61.3914 97.3742C59.2511 96.8661 57.9436 96.3916 56.6177 95.5679C55.0409 94.5887 53.4888 93.1107 51.2855 90.5199C44.6939 82.7646 33.6983 83.747 32.1306 91.4865C31.4425 94.8296 33.1739 98.3365 36.7029 101.722C39.2479 104.161 42.7059 106.413 44.7633 107.255L44.8667 107.297C45.9259 107.712 46.9534 108.913 49.0054 111.842L51.3834 115.259L51.811 115.866C52.9633 117.488 54.0095 118.885 55.0837 120.216C58.6241 124.602 62.18 127.873 66.0993 130.011C68.5011 131.326 70.7413 131.865 72.9734 131.792C74.6483 131.738 76.1271 131.387 78.2298 130.652L79.7856 130.095L80.1551 129.967C80.507 129.846 80.8081 129.749 81.0982 129.664C81.9266 129.391 82.7957 129.263 83.6675 129.285C85.5361 129.388 86.9856 130.529 88.1997 132.935C88.2488 133.028 88.2789 133.13 88.2881 133.235C88.2974 133.339 88.2857 133.445 88.2537 133.545C88.2216 133.645 88.17 133.738 88.1017 133.818C88.0333 133.898 87.9498 133.964 87.8558 134.011C87.7618 134.059 87.6594 134.087 87.5544 134.094C87.4494 134.101 87.3441 134.088 87.2444 134.054C87.1448 134.02 87.053 133.967 86.9742 133.897C86.8955 133.827 86.8314 133.742 86.7858 133.647C85.8257 131.744 84.8592 130.963 83.6498 130.87L83.507 130.862C82.7044 130.824 82.2961 130.905 80.2451 131.62L78.9519 132.076C76.605 132.907 74.9489 133.311 73.0254 133.374C70.5091 133.456 67.9875 132.849 65.34 131.4C61.2124 129.148 57.5113 125.744 53.8517 121.21C52.8195 119.931 51.8157 118.597 50.726 117.071L50.2382 116.383L47.7124 112.754L47.463 112.4C45.8364 110.102 44.9185 109.04 44.3175 108.782L44.2877 108.77C42.049 107.885 38.3424 105.486 35.6078 102.864C31.7257 99.143 29.7584 95.1569 30.5797 91.1697C31.4507 86.8632 34.9374 84.0389 39.4828 83.6332Z" fill="#2F76E3"/>
<path d="M94.5056 33.4225C97.4323 27.7816 102.187 24.9694 108.971 25.6118C111.828 25.8789 114.115 26.6783 115.863 27.9824C115.947 28.0446 116.017 28.1225 116.07 28.2119C116.123 28.3012 116.158 28.4001 116.173 28.503C116.188 28.6059 116.183 28.7108 116.157 28.8116C116.132 28.9124 116.087 29.0072 116.025 29.0905C115.962 29.1739 115.885 29.2442 115.795 29.2974C115.706 29.3506 115.607 29.3857 115.504 29.4007C115.401 29.4157 115.296 29.4103 115.195 29.3847C115.095 29.3592 115 29.3141 114.917 29.2519C113.416 28.1329 111.406 27.4308 108.823 27.1885C102.704 26.6092 98.5503 29.0653 95.912 34.1523C93.7769 38.2696 92.723 43.8789 92.4385 50.8801L92.4274 51.161C92.3482 53.2542 92.3442 54.9148 92.3873 57.5824L92.4203 59.5924C92.4575 62.2402 92.4295 63.3532 92.278 64.7174L92.2698 64.7895C92.0912 66.7318 91.4875 68.611 90.5015 70.294C89.6176 71.7323 88.5375 73.0404 87.2924 74.1803L87.1356 74.3279C84.5491 76.7428 84.6019 79.4621 86.65 83.8029L86.8558 84.2318C87.1092 84.7515 87.3837 85.2875 87.8136 86.1081L88.4336 87.2958C89.0332 88.394 89.5621 89.5294 90.0172 90.6949C90.6546 92.3714 90.904 93.8093 90.7034 95.1406L90.6643 95.3781C90.5107 96.2617 90.0734 98.4698 90.0269 98.7221C89.207 102.955 89.0388 107.288 89.5281 111.572C90.2175 118.021 92.2685 125.237 96.0253 133.466C96.0687 133.56 96.0931 133.663 96.097 133.767C96.1008 133.871 96.0842 133.975 96.0479 134.072C96.0116 134.17 95.9564 134.259 95.8855 134.335C95.8146 134.412 95.7293 134.473 95.6346 134.516C95.5399 134.56 95.4375 134.584 95.3335 134.587C95.2294 134.591 95.1257 134.574 95.0281 134.538C94.9306 134.501 94.8413 134.446 94.7652 134.375C94.6891 134.304 94.6278 134.218 94.5847 134.123C90.7593 125.745 88.6619 118.364 87.9535 111.74C87.4572 107.395 87.6149 103 88.4215 98.702L88.4927 98.3156C88.6099 97.7062 89.0586 95.434 89.138 94.9062C89.2866 93.9188 89.1 92.7821 88.5914 91.4028L88.4911 91.1389C88.0304 89.9931 87.5016 88.8759 86.9076 87.7933L86.1781 86.3968C85.7962 85.6623 85.5446 85.1609 85.2849 84.6198C84.1994 82.3458 83.6317 80.5537 83.5823 78.8295C83.5221 76.7315 84.2741 74.8787 85.9543 73.2653L86.0543 73.1705C87.2526 72.0957 88.291 70.855 89.138 69.4861C89.9797 68.0512 90.5034 66.4524 90.6738 64.7977L90.7111 64.4751C90.847 63.2201 90.872 62.1354 90.8362 59.5906L90.7945 56.9999C90.7633 54.7805 90.7702 53.2428 90.833 51.4249L90.8446 51.101C91.1207 43.7551 92.2115 37.8473 94.5056 33.4225Z" fill="#2F76E3"/>
<path d="M115.39 134.585H102.457C102.349 134.585 102.241 134.562 102.141 134.519C102.041 134.476 101.952 134.412 101.877 134.332C101.803 134.253 101.746 134.159 101.71 134.056C101.674 133.953 101.66 133.844 101.667 133.736C102.291 125.153 103.421 117.958 105.122 111.741C105.672 109.73 106.287 107.808 106.952 106.032C107.595 104.299 108.335 102.603 109.166 100.953C109.938 99.4209 110.811 97.9428 111.782 96.5283C112.693 95.2019 113.708 93.9502 114.818 92.785C114.891 92.7077 114.978 92.646 115.076 92.6038C115.173 92.5615 115.278 92.5396 115.384 92.5393C115.489 92.538 115.593 92.5576 115.69 92.5969C115.787 92.6363 115.875 92.6946 115.949 92.7685C116.024 92.8423 116.082 92.9303 116.122 93.0272C116.162 93.124 116.182 93.2279 116.182 93.3326V133.793C116.182 134.003 116.098 134.204 115.95 134.353C115.801 134.501 115.6 134.585 115.39 134.585ZM114.598 95.4177L114.564 95.4589C111.228 99.5334 108.565 105.153 106.649 112.158C105.032 118.07 103.941 124.878 103.313 132.969L103.311 133.001H114.598V95.4177Z" fill="#2F76E3"/>
<path d="M115.152 133.001C115.359 133.001 115.557 133.081 115.705 133.225C115.852 133.368 115.939 133.564 115.945 133.77C115.951 133.976 115.876 134.176 115.737 134.328C115.598 134.48 115.405 134.572 115.199 134.583L115.152 134.585H83.217C82.783 134.575 82.3525 134.663 81.9565 134.841C81.5606 135.018 81.2092 135.282 80.9279 135.613C80.6466 135.943 80.4425 136.332 80.3303 136.752C80.2181 137.171 80.2008 137.61 80.2794 138.037L87.1041 168.538C87.1495 168.739 87.1147 168.95 87.0069 169.126C86.8992 169.302 86.7271 169.429 86.5273 169.48C86.3274 169.53 86.1156 169.501 85.9369 169.399C85.7581 169.296 85.6266 169.127 85.5702 168.929L85.5588 168.884L78.7502 138.457C78.1129 135.684 80.2457 133.054 83.1294 133.001H83.217H115.152Z" fill="#042B67"/>
<path d="M316.847 169.212H115.39C115.18 169.212 114.979 169.129 114.83 168.98C114.682 168.832 114.598 168.631 114.598 168.421V1.77555C114.598 1.56556 114.682 1.36416 114.83 1.21567C114.979 1.06718 115.18 0.983765 115.39 0.983765H316.847C317.057 0.983765 317.259 1.06718 317.407 1.21567C317.556 1.36416 317.639 1.56556 317.639 1.77555V168.421C317.639 168.631 317.556 168.832 317.407 168.98C317.259 169.129 317.057 169.212 316.847 169.212ZM116.182 2.56734V167.629H316.055V2.56734H116.182Z" fill="#042B67"/>
<path d="M241.231 144.72H229.935C229.725 144.72 229.524 144.636 229.375 144.488C229.227 144.339 229.143 144.138 229.143 143.928V126.297C229.143 126.087 229.227 125.886 229.375 125.738C229.524 125.589 229.725 125.506 229.935 125.506H241.231C241.441 125.506 241.643 125.589 241.791 125.738C241.94 125.886 242.023 126.087 242.023 126.297V143.928C242.023 144.138 241.94 144.339 241.791 144.488C241.643 144.636 241.441 144.72 241.231 144.72ZM230.727 127.089V143.136H240.44V127.089H230.727Z" fill="#042B67"/>
<path d="M258.968 144.72H247.671C247.461 144.72 247.26 144.636 247.111 144.488C246.963 144.339 246.88 144.138 246.88 143.928V118.881C246.88 118.671 246.963 118.47 247.111 118.321C247.26 118.173 247.461 118.089 247.671 118.089H258.968C259.178 118.089 259.379 118.173 259.527 118.321C259.676 118.47 259.759 118.671 259.759 118.881V143.928C259.759 144.138 259.676 144.339 259.527 144.488C259.379 144.636 259.178 144.72 258.968 144.72ZM248.463 119.673V143.136H258.176V119.673H248.463Z" fill="#042B67"/>
<path d="M276.677 144.72H265.381C265.171 144.72 264.97 144.636 264.821 144.488C264.673 144.339 264.589 144.138 264.589 143.928V107.163C264.589 106.953 264.673 106.751 264.821 106.603C264.97 106.454 265.171 106.371 265.381 106.371H276.677C276.887 106.371 277.089 106.454 277.237 106.603C277.386 106.751 277.469 106.953 277.469 107.163V143.928C277.469 144.138 277.386 144.339 277.237 144.488C277.089 144.636 276.887 144.72 276.677 144.72ZM266.173 107.954V143.136H275.885V107.954H266.173Z" fill="#042B67"/>
<path d="M294.387 97.0276H283.091V143.928H294.387V97.0276Z" fill="#2F76E3"/>
<path d="M298.214 72.9573C298.127 72.8842 298.026 72.83 297.917 72.7982C297.808 72.7664 297.693 72.7577 297.58 72.7725L290.19 73.9602C289.985 73.9935 289.8 74.1061 289.677 74.274C289.554 74.4418 289.501 74.6514 289.531 74.8576C289.569 75.0608 289.682 75.242 289.849 75.3645C290.016 75.487 290.223 75.5417 290.428 75.5174L295.258 74.752L280.847 91.4851L274.962 85.837C274.887 85.7597 274.797 85.7005 274.696 85.6639C274.595 85.6273 274.487 85.6143 274.381 85.6259C274.275 85.6278 274.171 85.6524 274.075 85.6979C273.98 85.7434 273.895 85.8089 273.827 85.8898L254.507 108.324L248.912 104.127C248.762 104.013 248.576 103.956 248.388 103.966C248.199 103.975 248.02 104.051 247.882 104.18L230.542 120.808C230.393 120.952 230.306 121.149 230.301 121.357C230.296 121.564 230.374 121.765 230.516 121.916C230.592 121.992 230.683 122.052 230.783 122.093C230.882 122.134 230.989 122.154 231.097 122.154C231.3 122.147 231.495 122.073 231.651 121.943L248.516 105.764L254.19 110.013C254.352 110.132 254.552 110.187 254.752 110.168C254.952 110.148 255.137 110.056 255.273 109.907L274.513 87.5526L280.399 93.2007C280.473 93.278 280.564 93.3372 280.664 93.3738C280.765 93.4104 280.873 93.4234 280.979 93.4118C281.085 93.4099 281.189 93.3853 281.285 93.3398C281.38 93.2943 281.465 93.2288 281.533 93.1479L296.921 75.2799L296.815 81.535C296.813 81.6395 296.832 81.7433 296.871 81.8403C296.91 81.9372 296.969 82.0253 297.043 82.0992C297.117 82.1731 297.205 82.2313 297.302 82.2704C297.398 82.3096 297.502 82.3287 297.607 82.3268C297.817 82.3262 298.018 82.2425 298.166 82.0942C298.314 81.9458 298.398 81.7448 298.399 81.535L298.531 73.5379C298.495 73.3137 298.383 73.1086 298.214 72.9573Z" fill="#2F76E3"/>
<path d="M184.275 124.899C184.482 124.898 184.68 124.979 184.828 125.122C184.975 125.266 185.062 125.461 185.068 125.667C185.074 125.873 184.999 126.073 184.86 126.225C184.721 126.377 184.528 126.469 184.322 126.481L184.275 126.482H135.712C135.506 126.482 135.308 126.402 135.16 126.259C135.012 126.115 134.926 125.92 134.92 125.714C134.914 125.508 134.989 125.307 135.128 125.155C135.267 125.003 135.46 124.912 135.666 124.9L135.712 124.899H184.275Z" fill="#042B67"/>
<path d="M171.475 132.289C171.681 132.288 171.879 132.369 172.027 132.512C172.175 132.656 172.261 132.851 172.267 133.057C172.273 133.263 172.199 133.463 172.059 133.615C171.92 133.767 171.727 133.859 171.521 133.871L171.475 133.872H135.712C135.506 133.872 135.308 133.792 135.16 133.649C135.012 133.505 134.926 133.31 134.92 133.104C134.914 132.898 134.989 132.697 135.128 132.545C135.267 132.394 135.46 132.302 135.666 132.29L135.712 132.289H171.475Z" fill="#042B67"/>
<path d="M159.994 140.576C160.2 140.576 160.398 140.656 160.546 140.8C160.694 140.943 160.78 141.139 160.786 141.345C160.792 141.551 160.718 141.751 160.579 141.903C160.439 142.055 160.246 142.146 160.04 142.158L159.994 142.16H134.657C134.451 142.16 134.253 142.08 134.105 141.936C133.957 141.793 133.871 141.597 133.865 141.391C133.859 141.185 133.933 140.985 134.072 140.833C134.212 140.681 134.405 140.589 134.61 140.577L134.657 140.576H159.994Z" fill="#042B67"/>
<path d="M210.827 124.899C211.033 124.898 211.231 124.979 211.379 125.122C211.527 125.266 211.613 125.461 211.619 125.667C211.625 125.873 211.551 126.073 211.411 126.225C211.272 126.377 211.079 126.469 210.873 126.481L210.827 126.482H189.871C189.665 126.482 189.467 126.402 189.319 126.259C189.171 126.115 189.085 125.92 189.079 125.714C189.073 125.508 189.147 125.307 189.286 125.155C189.426 125.003 189.619 124.912 189.824 124.9L189.871 124.899H210.827Z" fill="#042B67"/>
<path d="M158.754 109.538L164.349 114.816V104.18L158.754 109.538Z" fill="#2F76E3"/>
<path d="M150.704 115.08L156.457 109.564L150.704 104.154V115.08Z" fill="#2F76E3"/>
<path d="M179.234 102.306H166.302L172.821 108.456L179.234 102.306Z" fill="#2F76E3"/>
<path d="M157.592 110.646L151.047 116.954H164.296L157.592 110.646Z" fill="#2F76E3"/>
<path d="M165.932 115.08L171.686 109.564L165.932 104.154V115.08Z" fill="#2F76E3"/>
<path d="M134.657 103.415V115.846L141.202 109.564L134.657 103.415Z" fill="#2F76E3"/>
<path d="M142.364 110.646L135.818 116.954H149.067L142.364 110.646Z" fill="#2F76E3"/>
<path d="M148.751 102.306H135.818L142.364 108.456L148.751 102.306Z" fill="#2F76E3"/>
<path d="M179.578 114.816V104.18L173.982 109.538L179.578 114.816Z" fill="#2F76E3"/>
<path d="M143.525 109.538L149.12 114.816V104.18L143.525 109.538Z" fill="#2F76E3"/>
<path d="M172.847 110.646L166.302 116.954H179.551L172.847 110.646Z" fill="#2F76E3"/>
<path d="M163.979 102.306H151.047L157.592 108.456L163.979 102.306Z" fill="#2F76E3"/>
<path d="M194.806 102.306H181.161V116.954H194.806V102.306Z" fill="#2F76E3"/>
<path d="M210.827 102.306H196.39V116.954H210.827V102.306Z" fill="#2F76E3"/>
<path d="M179.525 116.954C179.551 116.981 179.551 116.981 179.578 116.981V116.954H179.525Z" fill="#2F76E3"/>
<path d="M287.076 57.5966H278.894C278.684 57.5966 278.483 57.5132 278.334 57.3647C278.186 57.2162 278.102 57.0148 278.102 56.8048V48.623C278.102 48.413 278.186 48.2116 278.334 48.0631C278.483 47.9147 278.684 47.8312 278.894 47.8312H287.076C287.286 47.8312 287.487 47.9147 287.636 48.0631C287.784 48.2116 287.868 48.413 287.868 48.623V56.8048C287.868 57.0148 287.784 57.2162 287.636 57.3647C287.487 57.5132 287.286 57.5966 287.076 57.5966ZM279.686 49.4148V56.013H286.284V49.4148H279.686Z" fill="#042B67"/>
<path d="M288.685 44.0043H257.41C257.2 44.0043 256.998 43.9208 256.85 43.7724C256.701 43.6239 256.618 43.4225 256.618 43.2125V33.7902C256.618 33.5802 256.701 33.3788 256.85 33.2303C256.998 33.0818 257.2 32.9984 257.41 32.9984H288.685C288.895 32.9984 289.097 33.0818 289.245 33.2303C289.394 33.3788 289.477 33.5802 289.477 33.7902V43.2125C289.477 43.4225 289.394 43.6239 289.245 43.7724C289.097 43.9208 288.895 44.0043 288.685 44.0043ZM258.201 34.582V42.4207H287.893V34.582H258.201Z" fill="#042B67"/>
<path d="M273.325 56.0131C273.531 56.0129 273.729 56.093 273.877 56.2365C274.025 56.3801 274.111 56.5756 274.117 56.7816C274.123 56.9876 274.049 57.1879 273.91 57.3398C273.77 57.4918 273.577 57.5834 273.372 57.5953L273.325 57.5966H257.41C257.204 57.5968 257.006 57.5167 256.858 57.3732C256.71 57.2296 256.624 57.0341 256.618 56.8281C256.612 56.6221 256.687 56.4218 256.826 56.2699C256.965 56.1179 257.158 56.0263 257.364 56.0144L257.41 56.0131H273.325Z" fill="#042B67"/>
<path d="M273.325 52.1333C273.531 52.1331 273.729 52.2132 273.877 52.3568C274.025 52.5003 274.111 52.6958 274.117 52.9018C274.123 53.1078 274.049 53.3081 273.91 53.46C273.77 53.612 273.577 53.7036 273.372 53.7155L273.325 53.7168H257.41C257.204 53.717 257.006 53.6369 256.858 53.4934C256.71 53.3498 256.624 53.1543 256.618 52.9483C256.612 52.7423 256.687 52.542 256.826 52.3901C256.965 52.2381 257.158 52.1465 257.364 52.1346L257.41 52.1333H273.325Z" fill="#042B67"/>
<path d="M273.325 48.2799C273.531 48.2797 273.729 48.3599 273.877 48.5034C274.025 48.6469 274.111 48.8424 274.117 49.0485C274.123 49.2545 274.049 49.4547 273.91 49.6067C273.77 49.7586 273.577 49.8503 273.372 49.8622L273.325 49.8635H257.41C257.204 49.8637 257.006 49.7835 256.858 49.64C256.71 49.4965 256.624 49.3009 256.618 49.0949C256.612 48.8889 256.687 48.6887 256.826 48.5367C256.965 48.3848 257.158 48.2931 257.364 48.2812L257.41 48.2799H273.325Z" fill="#042B67"/>
<path d="M275.226 78.1303C275.432 78.1301 275.63 78.2103 275.778 78.3538C275.926 78.4973 276.012 78.6928 276.018 78.8989C276.024 79.1049 275.949 79.3051 275.81 79.4571C275.671 79.609 275.478 79.7007 275.272 79.7126L275.226 79.7139H231.756C231.55 79.7141 231.352 79.6339 231.204 79.4904C231.056 79.3469 230.97 79.1513 230.964 78.9453C230.958 78.7393 231.033 78.5391 231.172 78.3871C231.311 78.2352 231.504 78.1435 231.71 78.1316L231.756 78.1303H275.226Z" fill="#042B67"/>
<path d="M257.41 81.8517C257.616 81.8515 257.814 81.9317 257.962 82.0752C258.11 82.2187 258.196 82.4143 258.202 82.6203C258.209 82.8263 258.134 83.0265 257.995 83.1785C257.856 83.3304 257.663 83.4221 257.457 83.434L257.41 83.4353H231.756C231.55 83.4355 231.352 83.3553 231.204 83.2118C231.056 83.0683 230.97 82.8728 230.964 82.6667C230.958 82.4607 231.033 82.2605 231.172 82.1085C231.311 81.9566 231.504 81.8649 231.71 81.853L231.756 81.8517H257.41Z" fill="#042B67"/>
<path d="M187.152 56.3826L216.976 41.2594C219.351 45.9471 220.59 51.1277 220.592 56.3826C220.592 74.7256 205.495 89.8224 187.152 89.8224C182.124 89.8232 177.161 88.6892 172.632 86.5048C168.104 84.3204 164.126 81.142 160.997 77.2066L187.152 56.3826Z" fill="#2F76E3"/>
<path d="M240.413 30.0688C240.619 30.0686 240.817 30.1488 240.965 30.2923C241.113 30.4358 241.199 30.6314 241.205 30.8374C241.212 31.0434 241.137 31.2436 240.998 31.3956C240.858 31.5475 240.665 31.6392 240.46 31.6511L240.413 31.6524H212.78C212.574 31.6526 212.376 31.5724 212.228 31.4289C212.08 31.2854 211.994 31.0899 211.988 30.8838C211.982 30.6778 212.056 30.4776 212.195 30.3256C212.335 30.1737 212.528 30.082 212.733 30.0701L212.78 30.0688H240.413Z" fill="#042B67"/>
<path d="M240.413 33.7902C240.619 33.79 240.817 33.8702 240.965 34.0137C241.113 34.1572 241.199 34.3528 241.205 34.5588C241.211 34.7648 241.137 34.965 240.998 35.117C240.858 35.2689 240.665 35.3606 240.46 35.3725L240.413 35.3738H225.686C225.48 35.374 225.282 35.2938 225.134 35.1503C224.986 35.0068 224.9 34.8113 224.894 34.6052C224.888 34.3992 224.962 34.199 225.102 34.047C225.241 33.8951 225.434 33.8034 225.64 33.7915L225.686 33.7902H240.413Z" fill="#042B67"/>
<path d="M240.413 37.538C240.619 37.5378 240.817 37.618 240.965 37.7615C241.113 37.905 241.199 38.1005 241.205 38.3065C241.212 38.5126 241.137 38.7128 240.998 38.8648C240.858 39.0167 240.665 39.1084 240.46 39.1203L240.413 39.1216H230.621C230.415 39.1218 230.217 39.0416 230.069 38.8981C229.921 38.7546 229.835 38.559 229.829 38.353C229.823 38.147 229.898 37.9467 230.037 37.7948C230.176 37.6429 230.369 37.5512 230.575 37.5393L230.621 37.538H240.413Z" fill="#042B67"/>
<path d="M241.231 59.7081C241.437 59.7079 241.636 59.788 241.783 59.9316C241.931 60.0751 242.018 60.2706 242.024 60.4766C242.03 60.6826 241.955 60.8829 241.816 61.0348C241.677 61.1868 241.484 61.2784 241.278 61.2903L241.231 61.2916H205.575C205.368 61.2918 205.17 61.2117 205.022 61.0682C204.875 60.9246 204.788 60.7291 204.782 60.5231C204.776 60.3171 204.851 60.1168 204.99 59.9649C205.129 59.8129 205.322 59.7213 205.528 59.7094L205.575 59.7081H241.231Z" fill="#042B67"/>
<path d="M241.231 62.6377C241.438 62.6375 241.636 62.7177 241.784 62.8612C241.931 63.0047 242.018 63.2002 242.024 63.4062C242.03 63.6123 241.955 63.8125 241.816 63.9645C241.677 64.1164 241.484 64.2081 241.278 64.22L241.231 64.2213H234.554C234.348 64.2215 234.15 64.1413 234.002 63.9978C233.854 63.8543 233.768 63.6587 233.762 63.4527C233.756 63.2467 233.83 63.0464 233.97 62.8945C234.109 62.7426 234.302 62.6509 234.508 62.639L234.554 62.6377H241.231Z" fill="#042B67"/>
<path d="M166.882 26.9808C167.089 26.9806 167.287 27.0608 167.435 27.2043C167.583 27.3478 167.669 27.5434 167.675 27.7494C167.681 27.9554 167.606 28.1557 167.467 28.3076C167.328 28.4595 167.135 28.5512 166.929 28.5631L166.882 28.5644H145.636C145.43 28.5646 145.232 28.4844 145.084 28.3409C144.936 28.1974 144.85 28.0019 144.844 27.7959C144.838 27.5898 144.912 27.3896 145.052 27.2376C145.191 27.0857 145.384 26.994 145.59 26.9822L145.636 26.9808H166.882Z" fill="#042B67"/>
<path d="M149.885 29.9896C150.092 29.9894 150.29 30.0696 150.438 30.2131C150.585 30.3566 150.672 30.5522 150.678 30.7582C150.684 30.9642 150.609 31.1644 150.47 31.3164C150.331 31.4683 150.138 31.56 149.932 31.5719L149.885 31.5732H145.636C145.43 31.5734 145.232 31.4932 145.084 31.3497C144.936 31.2062 144.85 31.0107 144.844 30.8046C144.838 30.5986 144.912 30.3984 145.052 30.2464C145.191 30.0945 145.384 30.0028 145.59 29.9909L145.636 29.9896H149.885Z" fill="#042B67"/>
<path d="M155.718 78.6318C155.599 78.6322 155.481 78.6054 155.374 78.5536C155.266 78.5018 155.172 78.4263 155.098 78.3328C150.539 72.6111 148.025 65.528 147.959 58.2122C147.958 58.1082 147.977 58.005 148.016 57.9085C148.055 57.812 148.112 57.7241 148.185 57.6498C148.257 57.5755 148.344 57.5162 148.44 57.4754C148.535 57.4346 148.638 57.413 148.742 57.4119L180.915 57.0688H180.925C181.089 57.0675 181.25 57.1183 181.384 57.2138C181.518 57.3093 181.619 57.4446 181.672 57.6006C181.728 57.7556 181.734 57.9245 181.688 58.083C181.642 58.2414 181.546 58.381 181.416 58.4814L156.21 78.4608C156.071 78.5723 155.897 78.6326 155.718 78.6318ZM178.619 58.6767L149.561 58.9868L149.565 59.104C149.804 65.4481 151.978 71.5674 155.794 76.6413L155.855 76.7223L178.619 58.6767Z" fill="#2F76E3"/>
<path d="M150.123 56.2239C149.913 56.2239 149.712 56.1405 149.563 55.992C149.415 55.8435 149.331 55.6422 149.331 55.4322V55.0099C149.325 50.932 150.077 46.8885 151.548 43.0853C151.606 42.9365 151.708 42.8086 151.84 42.7183C151.972 42.628 152.127 42.5794 152.287 42.5788C152.385 42.5785 152.482 42.5964 152.574 42.6316L182.556 54.2709C182.728 54.337 182.871 54.461 182.962 54.6216C183.052 54.7822 183.084 54.9692 183.051 55.1506C183.018 55.3319 182.923 55.4961 182.783 55.615C182.642 55.7338 182.464 55.7998 182.28 55.8017L150.133 56.2239H150.123ZM152.749 44.3999L152.663 44.6438C151.56 47.8062 150.972 51.1247 150.919 54.4733L150.917 54.6298L178.181 54.2717L152.749 44.3999Z" fill="#2F76E3"/>
<path d="M188.362 52.744C188.223 52.7426 188.086 52.7045 187.966 52.6337C187.845 52.5629 187.745 52.4618 187.676 52.3405C187.606 52.2219 187.569 52.0866 187.569 51.9488C187.569 51.811 187.606 51.6757 187.676 51.5571L203.538 23.6598C203.59 23.5693 203.658 23.4897 203.741 23.4258C203.823 23.3618 203.917 23.3147 204.017 23.287C204.117 23.2594 204.222 23.2518 204.325 23.2648C204.429 23.2777 204.528 23.3109 204.619 23.3624C207.454 24.9686 210.034 26.9888 212.273 29.3565C214.51 31.7183 216.379 34.4026 217.819 37.3197C217.911 37.5078 217.925 37.7247 217.858 37.9231C217.791 38.1215 217.648 38.2854 217.461 38.3789L188.719 52.6575C188.608 52.7137 188.486 52.7433 188.362 52.744ZM204.521 25.1386L190.336 50.0857L216.04 37.3163L215.99 37.2216C213.354 32.2585 209.423 28.1024 204.614 25.1948L204.521 25.1386Z" fill="#2F76E3"/>
<path d="M200.534 24.7902C195.734 22.0431 190.307 20.5796 184.777 20.541L184.249 20.541C177.842 20.6018 171.599 22.5767 166.322 26.2121C161.045 29.8475 156.976 34.9773 154.636 40.9427L184.566 52.6875L200.534 24.7902Z" fill="#042B67"/>
<path d="M154.742 62.7433C154.948 62.7431 155.146 62.8232 155.294 62.9667C155.442 63.1103 155.528 63.3058 155.534 63.5118C155.54 63.7178 155.465 63.9181 155.326 64.07C155.187 64.222 154.994 64.3136 154.788 64.3255L154.742 64.3268H133.495C133.289 64.327 133.091 64.2469 132.943 64.1033C132.795 63.9598 132.709 63.7643 132.703 63.5583C132.697 63.3523 132.772 63.152 132.911 63.0001C133.05 62.8481 133.243 62.7565 133.449 62.7446L133.495 62.7433H154.742Z" fill="#042B67"/>
<path d="M141.176 65.752C141.382 65.7518 141.58 65.832 141.728 65.9755C141.876 66.119 141.962 66.3146 141.968 66.5206C141.974 66.7266 141.9 66.9269 141.76 67.0788C141.621 67.2308 141.428 67.3224 141.222 67.3343L141.176 67.3356H133.495C133.289 67.3358 133.091 67.2556 132.943 67.1121C132.795 66.9686 132.709 66.7731 132.703 66.5671C132.697 66.3611 132.772 66.1608 132.911 66.0089C133.05 65.8569 133.243 65.7653 133.449 65.7534L133.495 65.752H141.176Z" fill="#042B67"/>
<path d="M294.549 154.064C294.757 154.054 294.961 154.125 295.117 154.264C295.272 154.403 295.367 154.598 295.38 154.806C295.393 155.014 295.323 155.219 295.186 155.376C295.049 155.533 294.855 155.63 294.647 155.645C292.951 155.752 291.261 155.947 289.585 156.227L287.352 156.619L286.385 156.794C286.14 156.839 285.905 156.882 285.675 156.926L285.334 156.99C282.872 157.458 281.104 157.872 280.075 158.252C279.882 158.319 279.695 158.401 279.515 158.497C279.483 158.515 279.456 158.531 279.434 158.546L279.402 158.568C279.248 158.818 279.295 158.949 279.646 159.163L279.691 159.189C280.258 159.523 281.232 159.719 282.245 159.684C282.349 159.681 282.452 159.698 282.55 159.734C282.647 159.771 282.737 159.826 282.813 159.897C282.889 159.968 282.95 160.053 282.993 160.148C283.036 160.242 283.06 160.345 283.064 160.449C283.067 160.553 283.05 160.656 283.014 160.754C282.978 160.851 282.922 160.94 282.851 161.017C282.78 161.093 282.695 161.154 282.6 161.197C282.506 161.24 282.403 161.264 282.299 161.268C281.008 161.312 279.741 161.057 278.888 160.555C277.758 159.89 277.369 158.773 278.1 157.666C278.349 157.288 278.806 157.031 279.526 156.765L279.689 156.707C281.327 156.195 282.997 155.792 284.687 155.501L285.382 155.369C285.788 155.292 286.211 155.215 286.671 155.131L288.918 154.734C290.781 154.408 292.661 154.184 294.549 154.064Z" fill="#042B67"/>
<path d="M289.932 169.235C288.827 169.235 287.961 169.066 287.357 168.732C287.074 168.596 286.835 168.384 286.664 168.12C286.494 167.856 286.4 167.551 286.391 167.237L286.39 167.174C286.389 167.06 286.399 166.947 286.418 166.835L286.427 166.789L286.352 166.786C285.632 166.75 284.927 166.56 284.286 166.23C283.755 165.993 283.325 165.577 283.07 165.054L283.052 165.003C282.967 164.712 282.993 164.4 283.126 164.128L283.135 164.108L283.082 164.115C282.76 164.157 282.436 164.179 282.111 164.181C281.858 164.184 281.606 164.163 281.357 164.118L281.29 164.104C281.038 164.067 280.797 163.972 280.588 163.826C280.379 163.68 280.207 163.488 280.086 163.263C279.848 162.768 279.913 162.105 280.268 161.395C280.637 160.639 282.332 159.454 285.597 157.667L286.088 157.4C288.333 156.192 290.527 155.15 291.423 154.865L291.579 154.818C292.309 154.614 294.659 154.207 298.762 153.572L299.639 153.437C300.747 153.267 301.935 153.088 303.176 152.903L306.329 152.439L307.815 152.223C308.002 152.196 308.193 152.237 308.353 152.339C308.513 152.44 308.631 152.595 308.686 152.776L308.698 152.821L312.42 168.235C312.447 168.347 312.449 168.465 312.426 168.578C312.403 168.692 312.355 168.799 312.286 168.892C312.217 168.985 312.129 169.062 312.027 169.117C311.925 169.172 311.812 169.205 311.696 169.211L311.65 169.213H290.668L290.577 169.218C290.354 169.229 290.138 169.235 289.932 169.235ZM295.492 161.916C295.58 161.915 295.668 161.924 295.754 161.942L295.776 161.947C295.948 161.986 296.101 162.081 296.213 162.217C296.324 162.353 296.387 162.522 296.392 162.698C296.397 162.873 296.343 163.046 296.239 163.187C296.135 163.329 295.987 163.432 295.818 163.481L295.588 163.548L295.166 163.675C294.955 163.739 294.763 163.798 294.577 163.857L294.42 163.906C294.176 163.984 293.941 164.06 293.72 164.133L293.449 164.224L292.59 164.574L290.773 165.32C290.224 165.544 289.871 165.683 289.514 165.816L289.373 165.868C288.594 166.145 287.97 166.801 287.974 167.162C287.974 167.238 288.027 167.31 288.273 167.418C288.794 167.599 289.345 167.68 289.896 167.655C290.078 167.655 290.271 167.65 290.47 167.64L290.59 167.633L290.639 167.631H310.642L307.326 153.894L305.489 154.162L303.409 154.47C302.465 154.61 301.633 154.735 300.865 154.852L298.398 155.231C294.845 155.785 292.639 156.169 292.017 156.339L291.964 156.354C290.923 156.653 288.345 157.955 286.252 159.114C284.287 160.202 281.912 161.637 281.686 162.096C281.624 162.215 281.574 162.34 281.538 162.469L281.529 162.51L281.528 162.53L281.569 162.543L281.625 162.556C281.784 162.587 281.946 162.601 282.108 162.598C282.988 162.557 283.862 162.424 284.714 162.2L285.023 162.127L285.037 162.116C285.789 161.584 286.58 161.109 287.404 160.695L287.512 160.64C287.979 160.405 288.498 160.159 289.055 159.91C290.021 159.478 291.096 159.037 292.251 158.599L292.57 158.478C292.721 158.422 292.873 158.366 293.022 158.311L293.384 158.179L293.707 158.065C293.902 157.996 294.116 158.007 294.303 158.094C294.49 158.181 294.636 158.338 294.709 158.531C294.783 158.724 294.778 158.938 294.695 159.128C294.613 159.317 294.46 159.467 294.268 159.545L293.84 159.698L293.566 159.797C293.315 159.89 293.061 159.984 292.813 160.079C291.686 160.507 290.639 160.936 289.701 161.355C289.165 161.595 288.669 161.83 288.226 162.054C287.175 162.566 286.189 163.2 285.287 163.944C285.074 164.123 284.879 164.321 284.703 164.536L284.671 164.577L284.72 164.615C284.942 164.778 285.186 164.909 285.443 165.006C285.796 165.146 286.172 165.22 286.552 165.224C286.811 165.226 287.069 165.184 287.315 165.1L287.334 165.093L287.401 165.052C288.426 164.47 289.496 163.973 290.601 163.564L290.774 163.498C291.313 163.291 291.897 163.08 292.509 162.87L292.884 162.742L293.251 162.596C294.531 162.086 295.096 161.916 295.492 161.916Z" fill="#042B67"/>
<path d="M371.507 111.359C371.626 107.977 370.778 104.631 369.062 101.714C367.346 98.797 364.834 96.4297 361.821 94.8899L351.871 89.5321L350.789 94.4412C350.221 97.0026 348.659 99.2337 346.447 100.644C344.234 102.055 341.553 102.529 338.991 101.963L337.698 101.673C335.136 101.105 332.905 99.5432 331.495 97.331C330.084 95.1188 329.61 92.4371 330.176 89.8752L331.838 82.406C329.938 81.0863 328.434 79.2916 327.721 76.969C327.668 76.8107 327.642 76.6523 327.589 76.5204L317.665 71.189L317.639 148.177L344.56 142.661L343.267 124.582C343.256 124.374 343.327 124.17 343.466 124.014C343.604 123.858 343.798 123.763 344.006 123.749C344.214 123.735 344.419 123.804 344.577 123.94C344.735 124.076 344.833 124.269 344.85 124.476L346.196 143.242C346.21 143.435 346.154 143.627 346.038 143.783C345.921 143.938 345.753 144.046 345.563 144.086L317.639 149.814V150.025L302.357 152.822C305.366 153.403 308.692 168.315 308.692 168.315H362.903C364.16 168.314 365.405 168.063 366.564 167.576C367.723 167.089 368.775 166.377 369.656 165.481C370.538 164.585 371.232 163.522 371.7 162.355C372.167 161.187 372.398 159.939 372.378 158.682L371.507 111.359Z" fill="#042B67"/>
<path d="M353.365 78.1789C353.41 77.9799 353.53 77.8058 353.7 77.6929C353.87 77.5801 354.077 77.5373 354.278 77.5733C354.479 77.6094 354.658 77.7215 354.778 77.8864C354.898 78.0513 354.95 78.2562 354.923 78.4584L354.914 78.5043L351.535 94.6132C350.928 97.35 349.27 99.7388 346.919 101.265C344.568 102.791 341.711 103.333 338.964 102.773L338.792 102.736L337.498 102.445C334.762 101.838 332.373 100.181 330.847 97.8294C329.321 95.4781 328.78 92.6215 329.339 89.8749L329.376 89.7023L331.039 82.2331C331.084 82.0319 331.205 81.8559 331.377 81.7427C331.549 81.6295 331.759 81.5879 331.962 81.6268C332.164 81.6656 332.343 81.7819 332.461 81.9509C332.579 82.1198 332.627 82.3282 332.594 82.5316L332.585 82.5773L330.922 90.0465C330.407 92.3781 330.828 94.8189 332.096 96.8428C333.363 98.8666 335.375 100.312 337.697 100.866L337.844 100.9L339.137 101.191C341.467 101.706 343.906 101.285 345.929 100.02C347.952 98.7545 349.397 96.7454 349.953 94.4251L349.987 94.2786L353.365 78.1789Z" fill="#042B67"/>
<path d="M341.085 85.9746C338.749 85.9676 336.436 85.515 334.27 84.6409C332.535 83.9579 330.954 82.9364 329.617 81.6361C328.363 80.4041 327.434 78.8808 326.912 77.2021C326.395 75.4104 326.141 73.5532 326.158 71.6886C326.17 68.9723 326.469 66.2648 327.048 63.6108C327.23 62.7343 327.435 61.8657 327.659 61.0288C327.685 60.9322 327.708 60.8467 327.729 60.7675L327.797 60.5249L327.861 60.2998L327.932 60.0583V60.0559L327.937 60.0393C328.849 56.9243 329.93 53.8611 331.174 50.863C332.365 47.9689 333.747 45.1572 335.311 42.4466L335.486 42.1496L335.559 42.0266C336.503 40.4054 337.863 39.0664 339.499 38.149C341.094 37.3119 342.875 36.8901 344.676 36.9225C345.202 36.9234 345.729 36.952 346.253 37.008C347.921 37.2001 349.559 37.6019 351.127 38.2039C351.966 38.516 352.785 38.8767 353.582 39.2844L353.851 39.4256C355.565 40.321 357.168 41.4158 358.625 42.6873C359.905 43.8099 361.02 45.1071 361.937 46.5406C362.794 47.8946 363.447 49.367 363.876 50.9108C364.304 52.4773 364.524 54.0933 364.529 55.7172C364.533 58.0408 364.185 60.3516 363.498 62.5712C363.271 63.3202 363.013 64.0452 362.732 64.7267C362.536 65.2033 362.389 65.5161 362.299 65.6948L362.257 65.7782L361.532 67.1427C361.432 67.3301 361.328 67.5231 361.222 67.7218L360.745 68.6051C359.836 70.2829 358.963 71.8586 358.151 73.288C358.035 73.4899 357.941 73.6544 357.855 73.8051L357.474 74.4675C355.749 77.4468 354.519 79.3566 353.714 80.3062L353.628 80.4075C352.416 81.8288 351.315 82.9436 349.883 83.7647C348.614 84.4924 347.052 85.0218 344.491 85.5916L344.173 85.6616C343.157 85.8754 342.122 85.9804 341.085 85.9746ZM329.434 60.4782C329.291 61.0285 328.912 62.4904 328.659 63.6514L328.614 63.8581L328.535 64.2387C328.018 66.6849 327.752 69.1774 327.741 71.6775C327.724 73.3877 327.954 75.0914 328.424 76.7357C329.303 79.5843 331.532 81.8108 334.869 83.1743C336.845 83.97 338.954 84.383 341.084 84.3913C342.009 84.3967 342.932 84.3034 343.837 84.1131C348.517 83.0956 349.869 82.3582 352.344 79.4716L352.549 79.2312C353.3 78.3278 354.526 76.405 356.194 73.5161L356.482 73.0164L356.773 72.5042C357.651 70.9607 358.606 69.2343 359.61 67.3726L359.719 67.1699C359.938 66.765 360.143 66.3813 360.331 66.0297L360.821 65.1059L360.9 64.9476C360.917 64.9122 360.938 64.8684 360.961 64.8198L361.051 64.6237C361.098 64.5182 361.14 64.4247 361.178 64.3334L361.267 64.1223C361.529 63.4873 361.769 62.8106 361.98 62.1103C362.621 60.0437 362.946 57.892 362.943 55.7283C362.892 49.2776 359.582 44.2627 353.105 40.8223C352.285 40.3887 351.438 40.0096 350.569 39.6874C349.127 39.1324 347.621 38.7613 346.086 38.5829C345.617 38.5326 345.146 38.507 344.674 38.5061C341.233 38.5061 338.6 40.0034 336.847 42.9567L336.676 43.2471C333.874 48.0519 331.31 54.1743 329.457 60.4853L329.433 60.4782H329.434Z" fill="#042B67"/>
<path d="M328.698 60.236C330.255 54.9574 332.736 48.28 336.167 42.5263C336.319 42.2614 336.486 42.0058 336.668 41.7609C333.897 39.5967 329.384 44.0571 326.269 53.2682C324.659 58.019 320.278 60.4207 320.278 60.4207C323.63 63.3503 326.665 62.0835 328.645 60.4207C328.671 60.3151 328.671 60.236 328.698 60.236Z" fill="#042B67"/>
<path d="M335.774 56.9078C335.85 56.7161 335.998 56.5616 336.186 56.4772C336.374 56.3927 336.588 56.385 336.782 56.4556C336.975 56.5262 337.134 56.6696 337.223 56.8553C337.313 57.0409 337.327 57.2543 337.262 57.4499L337.246 57.4937L333.983 65.6863L336.151 66.4873C336.34 66.5573 336.496 66.697 336.586 66.8779C336.675 67.0588 336.693 67.2672 336.634 67.4604L336.619 67.5045C336.549 67.694 336.41 67.8496 336.229 67.9394C336.048 68.0292 335.839 68.0465 335.646 67.9878L335.602 67.973L332.672 66.8909C332.48 66.8198 332.322 66.6766 332.233 66.4916C332.144 66.3066 332.13 66.0942 332.195 65.8993L332.211 65.8547L335.774 56.9078Z" fill="#042B67"/>
<path d="M334.121 56.5829C334.437 55.8461 334.313 55.0858 333.844 54.8848C333.375 54.6838 332.739 55.1183 332.423 55.8551C332.107 56.592 332.231 57.3523 332.7 57.5533C333.169 57.7542 333.805 57.3198 334.121 56.5829Z" fill="#042B67"/>
<path d="M342.264 60.0918C342.437 59.3089 342.173 58.5851 341.675 58.4752C341.177 58.3652 340.633 58.9107 340.46 59.6936C340.287 60.4765 340.551 61.2002 341.049 61.3102C341.547 61.4201 342.091 60.8746 342.264 60.0918Z" fill="#042B67"/>
<path d="M344.496 54.1684C344.537 53.9626 344.658 53.7815 344.833 53.665C345.008 53.5485 345.222 53.5062 345.428 53.5474C346.541 53.7542 347.549 54.3354 348.287 55.1946C348.6 55.56 348.861 55.9675 349.062 56.4052C349.153 56.5979 349.228 56.7978 349.285 57.003C349.337 57.2025 349.309 57.4142 349.207 57.5933C349.105 57.7723 348.937 57.9046 348.739 57.962C348.541 58.0194 348.329 57.9974 348.147 57.9007C347.965 57.804 347.828 57.6402 347.765 57.4441L347.741 57.3612C347.707 57.2604 347.668 57.1616 347.623 57.0653C347.484 56.7618 347.303 56.4792 347.085 56.2258C346.578 55.6353 345.883 55.2378 345.117 55.1001C344.911 55.0589 344.73 54.9376 344.613 54.7629C344.497 54.5882 344.455 54.3743 344.496 54.1684Z" fill="#042B67"/>
<path d="M334.091 48.4285C335.038 48.3594 335.993 48.6795 336.924 49.2425C337.314 49.4746 337.682 49.7436 338.022 50.0456C338.174 50.1883 338.263 50.3852 338.271 50.5934C338.278 50.8016 338.204 51.0045 338.063 51.1579C337.922 51.3114 337.726 51.4032 337.518 51.4133C337.31 51.4234 337.106 51.351 336.951 51.2119L336.918 51.1826C336.878 51.1475 336.815 51.0952 336.733 51.0306C336.533 50.8738 336.323 50.7292 336.106 50.5975C335.546 50.2149 334.884 50.0095 334.206 50.0079C333.946 50.0246 333.694 50.1081 333.475 50.2504L333.408 50.2961C333.237 50.4157 333.026 50.4631 332.82 50.4279C332.615 50.3928 332.431 50.278 332.31 50.1084C332.188 49.9389 332.139 49.7283 332.172 49.5224C332.205 49.3164 332.317 49.1318 332.486 49.0086C332.956 48.6693 333.512 48.4683 334.091 48.4285Z" fill="#042B67"/>
<path d="M379.24 60.4998L370.293 55.9603C371.428 49.3092 370.715 39.016 358.231 33.2095C338.7 24.1304 331.574 43.6875 331.574 43.6875L376.31 66.2535C377.077 66.6396 377.966 66.7064 378.782 66.4393C379.598 66.1723 380.275 65.5931 380.665 64.8283C380.859 64.4512 380.977 64.0392 381.01 63.6164C381.043 63.1936 380.992 62.7683 380.859 62.3655C380.727 61.9626 380.515 61.5902 380.237 61.2699C379.959 60.9496 379.62 60.6878 379.24 60.4998Z" fill="#2F76E3"/>
<path d="M340.965 71.2272C341.043 71.2958 341.107 71.3791 341.153 71.4724C341.198 71.5657 341.226 71.6671 341.232 71.7709C341.239 71.8747 341.225 71.9788 341.192 72.0772C341.158 72.1757 341.106 72.2666 341.037 72.3447C340.947 72.444 340.851 72.5374 340.749 72.6245C340.517 72.8252 340.268 73.0046 340.004 73.1603C338.325 74.1563 336.203 74.283 333.771 73.0283C333.584 72.9319 333.444 72.7654 333.38 72.5652C333.316 72.365 333.334 72.1477 333.43 71.961C333.527 71.7743 333.693 71.6335 333.894 71.5696C334.094 71.5057 334.311 71.5239 334.498 71.6202C336.428 72.6168 337.972 72.5245 339.196 71.7981C339.377 71.6914 339.549 71.5684 339.708 71.4307L339.773 71.3721L339.847 71.2998C339.915 71.2216 339.998 71.1577 340.092 71.1117C340.185 71.0657 340.287 71.0386 340.39 71.0318C340.494 71.0251 340.598 71.0389 340.697 71.0724C340.795 71.1059 340.886 71.1586 340.965 71.2272Z" fill="#042B67"/>
<path d="M369.264 62.6904L350.393 53.1626C348.202 59.9984 345.457 73.6963 357.149 77.3121C357.149 77.3121 366.281 80.3473 368.921 77.3385C368.921 77.3385 362.639 72.7462 364.064 68.972C364.064 68.972 370.478 78.4734 378.026 73.4324C378 73.4324 369.105 70.5819 369.264 62.6904Z" fill="#042B67"/>
<path d="M417.695 167.602C417.901 167.602 418.099 167.682 418.247 167.826C418.395 167.969 418.481 168.165 418.487 168.371C418.493 168.577 418.418 168.777 418.279 168.929C418.14 169.081 417.947 169.173 417.741 169.185L417.695 169.186H0.791819C0.585715 169.186 0.387657 169.106 0.239727 168.962C0.0917976 168.819 0.00565709 168.623 -0.000391064 168.417C-0.00643921 168.211 0.0680817 168.011 0.207337 167.859C0.346593 167.707 0.539607 167.616 0.745367 167.604L0.791819 167.602H417.695Z" fill="#042B67"/>
</svg>
