<svg width="1698" height="842" viewBox="0 0 1698 842" fill="none" xmlns="http://www.w3.org/2000/svg">
<g clip-path="url(#clip0_1_2)">
<path fill-rule="evenodd" clip-rule="evenodd" d="M138.4 197.1C138.4 197.1 91.7999 366.8 292.5 456.9L367.2 399.3C367.2 399.3 369.2 200.5 138.4 197.1Z" fill="white"/>
<path fill-rule="evenodd" clip-rule="evenodd" d="M138.444 194.1C137.077 194.08 135.869 194.987 135.507 196.306L135.329 196.994L135.286 197.164C135.12 197.837 134.935 198.629 134.737 199.535C134.175 202.105 133.615 205.085 133.092 208.445C130.328 226.232 129.698 246.687 132.524 268.708C136.392 298.847 146.37 328.311 163.783 355.963C190.055 397.685 231.778 432.929 291.271 459.637C292.28 460.09 293.456 459.951 294.332 459.276L369.032 401.676C369.761 401.114 370.191 400.25 370.2 399.33L370.195 398.311C370.187 397.779 370.172 397.131 370.146 396.373C370.078 394.359 369.951 392.065 369.751 389.517C369.193 382.414 368.176 374.571 366.584 366.175C362.089 342.461 353.937 318.795 341.21 296.682C324.901 268.344 302.191 244.614 272.198 227.046C236.905 206.375 192.602 194.898 138.444 194.1ZM140.748 200.143L141.533 200.159C193.242 201.335 235.49 212.499 269.165 232.224C298.224 249.244 320.204 272.21 336.01 299.674C348.376 321.16 356.311 344.199 360.689 367.292C362.238 375.467 363.228 383.094 363.769 389.986C363.943 392.199 364.059 394.206 364.128 395.99L364.168 397.16L364.185 397.836L292.094 453.424L290.243 452.579C233.662 426.547 193.974 392.648 168.86 352.766C151.934 325.886 142.236 297.252 138.475 267.944C135.726 246.523 136.339 226.625 139.021 209.366L139.256 207.899C139.65 205.499 140.062 203.324 140.475 201.39L140.677 200.458L140.748 200.143Z" fill="#042A64"/>
<path fill-rule="evenodd" clip-rule="evenodd" d="M316.7 27.8999C316.7 27.8999 560.3 156.2 440.2 444.9L306.7 458C306.7 458.1 99 273.6 316.7 27.8999Z" fill="white"/>
<path fill-rule="evenodd" clip-rule="evenodd" d="M314.454 25.9105C263.101 83.8686 232.546 141.448 220.362 198.142C210.034 246.201 213.15 292.345 227.207 336.044C238.131 370.006 254.983 400.556 275.261 427.207C282.365 436.544 289.396 444.732 296.028 451.695L297.091 452.803C298.837 454.613 300.453 456.228 301.913 457.636L302.896 458.576C303.161 458.827 303.411 459.062 303.643 459.278L304.741 460.273L304.937 460.427L305.177 460.587C305.242 460.624 305.33 460.666 305.595 460.789L305.771 460.853L306.401 460.985L306.971 460.768L306.993 460.986L440.493 447.886C441.593 447.778 442.545 447.073 442.97 446.052C476.472 365.519 483.964 292.611 469.49 227.191C457.8 174.359 432.364 128.662 397.314 89.8892C380.016 70.7535 361.486 54.5502 342.949 41.2066C336.764 36.7542 330.996 32.9272 325.777 29.718L324.998 29.2413C323.284 28.1969 321.741 27.2879 320.383 26.5133L319.349 25.93L318.098 25.2457C316.875 24.6017 315.371 24.8762 314.454 25.9105ZM315.928 33.3217L317.354 31.692L318.312 32.2437C319.392 32.8698 320.582 33.5766 321.875 34.3647C327.17 37.5918 333.077 41.4931 339.444 46.0761C357.652 59.1837 375.866 75.1103 392.863 93.9128C427.253 131.956 452.182 176.741 463.632 228.488L464.051 230.415C477.545 293.463 470.289 363.688 438.413 441.367L438.114 442.09L307.73 454.884L307.018 454.216L306.495 453.719C304.705 452.004 302.645 449.941 300.373 447.556C293.888 440.749 287.001 432.728 280.036 423.574C260.146 397.432 243.619 367.471 232.918 334.206C219.173 291.477 216.129 246.396 226.228 199.402C237.947 144.873 267.057 89.3686 315.928 33.3217Z" fill="#042A64"/>
<path fill-rule="evenodd" clip-rule="evenodd" d="M647.5 141.6C647.5 141.6 745 288.1 582.7 436.6L493.7 405.4C493.7 405.4 429.3 217.3 647.5 141.6Z" fill="white"/>
<path fill-rule="evenodd" clip-rule="evenodd" d="M646.517 138.766C594.899 156.673 556.212 181.737 529.154 212.783C506.203 239.118 492.216 269.034 485.832 301.305C480.873 326.373 480.747 351.408 484.076 375.241C485.186 383.188 486.612 390.462 488.209 396.938L488.45 397.903C488.991 400.047 489.516 401.963 490.009 403.636L490.156 404.13C490.307 404.634 490.447 405.087 490.573 405.486L490.862 406.372C491.16 407.241 491.84 407.927 492.707 408.231L581.707 439.431C582.75 439.797 583.91 439.559 584.725 438.813C638.857 389.284 668.153 336.689 676.831 282.848C683.349 242.407 677.893 204.312 664.82 170.314C661.598 161.933 658.143 154.465 654.683 147.999C653.578 145.934 652.542 144.105 651.598 142.519L650.916 141.391C650.501 140.714 650.191 140.228 649.997 139.938C649.24 138.799 647.808 138.317 646.517 138.766ZM645.459 145.497L646.225 145.226L646.717 146.052C647.541 147.452 648.438 149.046 649.393 150.83C652.739 157.083 656.09 164.326 659.22 172.467C671.937 205.539 677.242 242.588 670.907 281.893L670.648 283.467C662.05 334.359 634.432 384.205 583.803 431.494L581.994 433.173L496.102 403.062L495.904 402.408L495.593 401.351C495.171 399.894 494.726 398.253 494.268 396.436C492.625 389.923 491.152 382.533 490.018 374.411C486.776 351.202 486.899 326.828 491.718 302.47C497.906 271.192 511.442 242.238 533.677 216.726C559.494 187.104 596.312 162.993 645.459 145.497Z" fill="#042A64"/>
<path fill-rule="evenodd" clip-rule="evenodd" d="M747.5 269.8C747.5 269.8 737.1 476.7 527.4 458.3L479.3 388.4C479.3 388.3 529.9 204.6 747.5 269.8Z" fill="white"/>
<path fill-rule="evenodd" clip-rule="evenodd" d="M613.127 257.886C580.184 265.394 552.528 280.823 529.736 302.436C512.338 318.933 498.733 338.071 488.472 358.231L487.925 359.312C481.597 371.914 476.3 386.28 476.3 388.4C476.3 389.008 476.484 389.601 476.829 390.101L524.929 460.001C525.436 460.738 526.246 461.21 527.138 461.289C578.835 465.825 621.412 457.1 655.616 437.01C684.32 420.151 706.255 395.838 722.269 366.05C733.567 345.034 741.273 322.545 746.056 300.058C747.73 292.188 748.92 284.876 749.708 278.307L749.865 276.954C750.04 275.412 750.181 273.997 750.292 272.718L750.367 271.812L750.46 270.542C750.479 270.257 750.491 270.059 750.496 269.951C750.565 268.571 749.684 267.323 748.361 266.926C696.883 251.502 651.943 249.04 613.127 257.886ZM743.615 271.781L744.332 271.99L744.215 273.287C744.092 274.593 743.938 276.03 743.751 277.592C742.984 283.988 741.823 291.123 740.188 298.81C735.515 320.775 727.99 342.737 716.984 363.209C701.463 392.08 680.269 415.572 652.578 431.837L651.583 432.416C619.317 451.061 579.288 459.363 530.651 455.56L529.067 455.431L482.581 387.877L482.781 387.243L483.105 386.241C483.557 384.864 484.093 383.324 484.714 381.639C486.934 375.617 489.775 368.998 493.287 362.004C503.317 342.032 516.7 323.066 533.864 306.79C555.9 285.894 582.604 270.996 614.46 263.736C651.465 255.303 694.362 257.444 743.615 271.781Z" fill="#042A64"/>
<path fill-rule="evenodd" clip-rule="evenodd" d="M534.7 40.5C534.7 40.5 714.1 206.5 540.6 466.8L362.4 455C362.4 455 253.5 209.8 534.7 40.5Z" fill="white"/>
<path fill-rule="evenodd" clip-rule="evenodd" d="M533.153 37.9299C470.242 75.806 423.595 119.31 391.595 167.374C360.344 214.313 343.896 264.234 339.713 315.459C336.551 354.181 340.538 390.92 349.123 424.055C351.316 432.519 353.66 440.121 356.014 446.771L356.335 447.672C357.12 449.862 357.856 451.803 358.527 453.487L358.972 454.589C359.129 454.973 359.274 455.32 359.405 455.63L359.658 456.218C360.11 457.236 361.09 457.92 362.202 457.993L540.402 469.793C541.473 469.864 542.501 469.357 543.096 468.464C596.169 388.839 619.935 312.982 619.194 241.609C618.616 185.908 603.266 136.085 578.047 92.8114C569.042 77.3588 559.39 63.85 549.732 52.3675C546.344 48.3404 543.195 44.8516 540.363 41.9114L539.289 40.8076C538.833 40.3436 538.405 39.915 538.006 39.5219L537.064 38.606C536.926 38.4745 536.817 38.3718 536.737 38.2981C535.758 37.3914 534.296 37.2413 533.153 37.9299ZM532.536 45.3226L534.269 44.266L535.347 45.357C535.571 45.5871 535.803 45.8261 536.042 46.0737C538.782 48.9187 541.841 52.3078 545.14 56.2298C554.586 67.459 564.038 80.6895 572.863 95.8325C597.586 138.254 612.627 187.079 613.194 241.671L613.209 243.777C613.449 312.598 590.471 385.783 539.668 462.778L539.061 463.691L364.448 452.129L364.291 451.741C363.596 450.017 362.82 447.981 361.982 445.646C359.581 438.952 357.177 431.218 354.931 422.551C346.505 390.029 342.59 353.95 345.693 315.948C349.796 265.705 365.921 216.762 396.589 170.699C427.453 124.341 472.242 82.2185 532.536 45.3226Z" fill="#042A64"/>
<path fill-rule="evenodd" clip-rule="evenodd" d="M476.9 166.2C476.9 166.2 208.9 287.8 357.2 450.3L479.3 448.4C479.3 448.4 624.2 343.9 476.9 166.2Z" fill="white"/>
<path fill-rule="evenodd" clip-rule="evenodd" d="M475.66 163.468L474.917 163.812L473.764 164.356C472.24 165.082 470.475 165.944 468.489 166.94L466.68 167.854C461.493 170.492 455.805 173.535 449.731 176.971C430.337 187.942 410.943 200.649 392.828 214.952C354.276 245.39 326.806 278.791 315.309 314.722C300.917 359.699 312.604 405.884 354.984 452.322C355.563 452.957 356.387 453.313 357.247 453.3L479.347 451.4C479.96 451.39 480.557 451.192 481.055 450.833L481.545 450.469L481.837 450.247C482.444 449.783 483.145 449.231 483.931 448.591C486.161 446.776 488.639 444.617 491.304 442.118C498.899 434.996 506.488 426.565 513.571 416.856C534.029 388.813 546.229 355.975 545.991 318.666C545.686 270.805 524.75 219.225 479.21 164.285C478.346 163.244 476.892 162.909 475.66 163.468ZM476.066 169.905L477.243 171.346C520.099 224.05 539.701 273.24 539.991 318.704C540.22 354.626 528.471 386.251 508.724 413.32C501.873 422.71 494.534 430.864 487.2 437.741C484.837 439.957 482.633 441.889 480.637 443.533L479.832 444.19L478.963 444.883C478.781 445.026 478.606 445.163 478.439 445.292L478.277 445.415L358.511 447.279L359.416 448.278C318.437 403.375 307.311 359.406 321.023 316.551C332.093 281.956 358.846 249.426 396.546 219.661C414.399 205.565 433.542 193.022 452.685 182.194L454.785 181.013C460.339 177.908 465.541 175.15 470.294 172.749L471.18 172.303C472.544 171.618 473.799 171 474.94 170.447L476.066 169.905Z" fill="#042A64"/>
<path fill-rule="evenodd" clip-rule="evenodd" d="M79.1 311C79.1 311 164.2 507.6 373.7 486.6L413.6 452C413.5 452 295.8 243.2 79.1 311Z" fill="white"/>
<path fill-rule="evenodd" clip-rule="evenodd" d="M238.878 312.042C279.158 324.832 315.451 347.385 347.641 376.938C365.898 393.699 381.691 411.659 394.988 429.637C399.629 435.912 403.623 441.731 406.985 446.978L407.328 447.516C408.006 448.579 408.625 449.568 409.19 450.487L409.735 451.38L372.456 483.707L373.401 483.615C322.504 488.717 276.398 481.181 234.857 462.869C200.097 447.546 169.529 425.142 142.983 397.507C124.53 378.297 109.099 357.708 96.5671 337.123C92.1843 329.924 88.4788 323.243 85.4348 317.254L85.149 316.69C84.5854 315.573 84.0691 314.528 83.5999 313.558L83.2639 312.859L83.3964 312.82C138.866 296.126 190.699 296.745 238.878 312.042ZM415.753 449.747L415.136 448.716L414.589 447.815C413.931 446.738 413.201 445.567 412.389 444.293L412.037 443.741C408.604 438.384 404.535 432.455 399.812 426.069C386.299 407.799 370.256 389.555 351.699 372.518C318.904 342.41 281.875 319.399 240.694 306.324C190.366 290.344 136.14 290.01 78.2041 308.137C76.5038 308.669 75.6391 310.557 76.3468 312.192L76.5897 312.739L76.9818 313.599C77.0783 313.808 77.1809 314.029 77.2897 314.262L77.9574 315.67C78.5044 316.81 79.1157 318.052 79.7922 319.392L80.086 319.972C83.1976 326.094 86.9772 332.909 91.442 340.243C104.189 361.182 119.88 382.118 138.656 401.664C165.717 429.835 196.915 452.701 232.436 468.359C274.918 487.085 322.063 494.791 373.999 489.585C374.615 489.523 375.197 489.272 375.665 488.867L415.565 454.267L415.692 454.151C417.527 452.384 416.423 449.279 413.939 449.018L413.781 449.005L413.6 449C414.486 449 415.17 449.324 415.6 449.631L415.753 449.747Z" fill="#042A64"/>
<path d="M240.725 521.634L240.194 519.3H237.8H213.7C207.357 519.3 202.2 514.143 202.2 507.8V454.9C202.2 448.557 207.357 443.4 213.7 443.4H635.4C641.73 443.4 646.911 448.548 647 454.919V507.8C647 514.143 641.843 519.3 635.5 519.3H609.7H607.306L606.775 521.634L535.406 835.1H312.094L240.725 521.634Z" fill="white" stroke="#042B67" stroke-width="6"/>
<path fill-rule="evenodd" clip-rule="evenodd" d="M339.9 804.4C341.1 812.7 345.6 824.2 356.5 834L358.7 838.9L510.9 837.5C651.8 789.9 899.3 740.8 899.3 740.8L637.1 576.7C637.1 576.7 477.3 613 416.2 648.4C355.2 683.9 334.1 764.2 339.9 804.4Z" fill="white"/>
<path fill-rule="evenodd" clip-rule="evenodd" d="M636.435 573.774L631.928 574.819C630.114 575.245 628.103 575.721 625.906 576.246L621.252 577.365C614.131 579.088 606.401 581.005 598.192 583.098C569.52 590.407 540.847 598.352 514.076 606.663L509.242 608.174C470.883 620.251 440.081 632.033 419.381 643.188C417.754 644.065 416.192 644.937 414.696 645.804C385.921 662.55 363.989 690.104 350.226 723.494C338.507 751.926 333.752 782.798 336.931 804.828L337.016 805.391C338.648 815.727 344.133 826.494 353.461 835.28L354.019 835.799L355.963 840.128C356.451 841.215 357.536 841.911 358.728 841.9L510.928 840.5C511.245 840.497 511.56 840.443 511.86 840.342C515.994 838.945 520.251 837.537 524.628 836.118L528.624 834.829C564.872 823.209 608.599 810.986 658.212 798.391C709.815 785.29 765.023 772.473 820.319 760.441L831.733 757.969C848.157 754.429 863.531 751.188 877.57 748.286L887.752 746.194L899.884 743.742C902.549 743.214 903.194 739.698 900.891 738.257L638.691 574.157C638.02 573.736 637.208 573.599 636.435 573.774ZM636.56 579.901L891.32 739.345L879.928 741.674L871.621 743.391C857.273 746.371 841.621 749.686 824.95 753.296L823.093 753.699C767.734 765.705 712.373 778.511 660.523 791.616L656.735 792.575C605.17 805.666 559.931 818.361 522.777 830.41L520.899 831.021C518.404 831.835 515.949 832.645 513.533 833.451L510.393 834.504L360.633 835.882L359.237 832.771C359.066 832.39 358.817 832.048 358.506 831.769C349.445 823.623 344.246 813.496 342.869 803.97C339.854 783.07 344.444 753.267 355.774 725.78C369.065 693.534 390.17 667.02 417.709 650.993C419.146 650.16 420.654 649.318 422.228 648.47L423.509 647.786C444.444 636.704 475.747 624.886 514.649 612.768L515.855 612.393C541.565 604.412 569.056 596.763 596.612 589.695L599.674 588.912C609.678 586.362 618.966 584.074 627.301 582.081L632.688 580.804L636.56 579.901Z" fill="#042A64"/>
<path fill-rule="evenodd" clip-rule="evenodd" d="M363.9 838C295.5 826.3 315 634.5 430 465.1C481.5 381.3 496.4 358.6 536 345.6C551.5 340.5 568.1 340.5 585.7 348.3C648.4 376 714.9 404.8 670.3 417.5C625.7 430.2 520.5 516.7 520.5 516.7C520.5 516.7 521.5 629 515.9 670C512.2 697.8 504.9 725.8 497.6 746.1" fill="white"/>
<path fill-rule="evenodd" clip-rule="evenodd" d="M535.062 342.75C551.949 337.194 569.012 337.807 586.224 345.254L598.961 350.88C638.751 368.499 659.13 378.464 672.997 388.103L673.415 388.395C682.553 394.804 687.508 400.44 687.826 405.988C688.195 412.424 682.584 417.035 671.602 420.246L671.121 420.385C656.712 424.488 634.542 436.918 606.888 455.659C600.813 459.776 594.535 464.156 588.091 468.765C572.724 479.757 557.11 491.538 542.068 503.32L539.322 505.475C536.02 508.074 532.912 510.542 530.028 512.853L526.749 515.489L523.51 518.113L523.534 522.099L523.553 526.414C523.634 548.891 523.481 574.186 522.936 598.453L522.808 603.844C522.081 632.721 520.848 655.315 519.003 669.425L518.874 670.396C515.39 696.573 508.449 724.795 500.423 747.115C499.862 748.674 498.144 749.484 496.585 748.923C495.026 748.362 494.216 746.644 494.777 745.085C502.52 723.552 509.254 696.346 512.741 670.976L513.053 668.652C514.927 654.32 516.173 630.788 516.884 600.657L516.989 595.972C517.491 572.485 517.631 548.141 517.553 526.434L517.5 516.727C517.492 515.82 517.894 514.958 518.595 514.383L522.058 511.564L523.955 510.034C527.991 506.785 532.514 503.188 537.44 499.324L538.368 498.596C553.475 486.764 569.156 474.933 584.6 463.885C591.084 459.247 597.403 454.838 603.522 450.692L606.042 448.991C632.479 431.227 653.824 419.316 668.557 414.884L670.351 414.36C678.615 411.886 681.993 409.073 681.836 406.331C681.659 403.238 677.685 398.718 669.97 393.308L669.157 392.742C656.278 383.872 637.156 374.434 601.212 358.444L584.484 351.043C568.413 343.92 552.654 343.278 536.936 348.45C517.464 354.842 504.515 363.534 490.276 380.125L489.748 380.743C477.056 395.671 465.349 413.389 435.389 462.065L432.556 466.671L432.482 466.785C378.663 546.062 342.612 635.461 331.141 711.137C320.395 782.026 333.227 829.71 364.406 835.043C366.039 835.322 367.136 836.873 366.857 838.506C366.578 840.139 365.027 841.236 363.394 840.957C327.709 834.853 314.026 784.008 325.209 710.238C336.701 634.421 372.482 545.22 425.894 465.818L427.491 463.453L432.062 456.025C460.595 409.718 472.221 392.177 484.776 377.329L485.177 376.857C500.336 359.027 514.294 349.568 535.062 342.75Z" fill="#042A64"/>
<path fill-rule="evenodd" clip-rule="evenodd" d="M1334.8 836L1098.5 461.2L637.3 574V573.9L554.6 591.9L609.7 811.8L724.6 784C740.4 814.6 752 835.8 752 835.8H1334.8V836Z" fill="#042B67"/>
<path fill-rule="evenodd" clip-rule="evenodd" d="M960.8 365.5C960.8 365.5 1007.2 363.4 1001.6 405.4C996 447.4 943.2 426.7 943.2 426.7L946.2 367.3L960.8 365.5Z" fill="white"/>
<path fill-rule="evenodd" clip-rule="evenodd" d="M960.725 362.501L960.664 362.503C960.587 362.507 960.51 362.513 960.433 362.523L945.833 364.323C944.386 364.501 943.277 365.693 943.204 367.149L940.204 426.549C940.139 427.837 940.904 429.022 942.105 429.493L942.512 429.648C942.985 429.824 943.654 430.061 944.5 430.343C946.359 430.962 948.435 431.58 950.684 432.156C958.143 434.068 965.681 435.087 972.789 434.732C990.233 433.862 1002.03 424.842 1004.57 405.796C1007.34 385.069 998.537 372.217 982.498 366.138C978.11 364.475 973.449 363.437 968.744 362.897C965.833 362.562 963.309 362.457 961.365 362.485L960.725 362.501ZM968.059 368.857C972.303 369.345 976.489 370.277 980.371 371.749C993.936 376.889 1001 387.205 998.626 405.003C996.503 420.927 987.245 428.004 972.49 428.74C966.064 429.061 959.096 428.118 952.174 426.344L951.478 426.163C949.869 425.737 948.362 425.291 946.981 424.843L946.309 424.621L949.069 369.969L961.036 368.493L961.15 368.49C962.877 368.449 965.261 368.536 968.059 368.857Z" fill="#042A64"/>
<path fill-rule="evenodd" clip-rule="evenodd" d="M820.3 243.3C808 243.1 724 243.2 719.3 313.6C714.7 384 729.5 460.4 739.5 495.1C749.5 529.8 908.7 503.1 917.5 499.4C926.4 495.7 936.5 484.4 936.5 484.4L951.5 375.8C951.6 375.8 952.2 245.7 820.3 243.3Z" fill="white"/>
<path fill-rule="evenodd" clip-rule="evenodd" d="M799.657 241.318C787.884 242.634 776.447 245.151 765.883 249.171C737.033 260.15 718.836 280.585 716.376 312.436L716.306 313.404C714.183 345.897 716.007 381.705 720.952 418.141L721.313 420.757C725.271 449.067 730.955 476.282 736.617 495.931C739.378 505.511 750.777 511.127 769.276 513.816L769.875 513.902C785.068 516.041 804.888 516.204 827.953 514.721L829.149 514.643C864.537 512.293 911.594 505.138 918.663 502.165C919.688 501.739 920.751 501.213 921.838 500.599C924.469 499.112 927.21 497.132 930.014 494.775C932.192 492.945 934.285 490.991 936.223 489.038L936.88 488.37C937.196 488.045 937.496 487.733 937.776 487.436L938.307 486.869C938.501 486.66 938.645 486.501 938.737 486.399L938.879 486.227C939.195 485.816 939.4 485.327 939.472 484.81L953.709 381.729L953.847 382.166C954.546 384.49 954.761 386.767 954.736 384.364L954.491 374.268C954.466 373.194 954.413 371.939 954.328 370.541L954.295 370.01C954.001 365.487 953.44 360.413 952.552 354.953C950.02 339.397 945.376 323.772 938.086 309.114C928.685 290.212 915.546 274.33 898.143 262.532C877.616 248.618 851.835 240.873 820.354 240.3C814.275 240.202 807.567 240.435 799.657 241.318ZM722.187 315.486L722.293 313.8C724.285 283.963 740.91 265.094 768.017 254.779C778.064 250.955 789.019 248.544 800.324 247.281C807.95 246.429 814.414 246.205 820.251 246.3C850.593 246.852 875.24 254.256 894.776 267.499C911.274 278.682 923.751 293.764 932.714 311.786C939.713 325.86 944.189 340.917 946.629 355.916C947.486 361.18 948.025 366.063 948.307 370.4L948.339 370.903L948.417 372.33C948.431 372.633 948.444 372.926 948.455 373.209L948.493 374.408L948.275 365.821C948.197 361.621 948.813 372.8 951.5 372.8L951.321 372.805C949.902 372.889 948.725 373.965 948.528 375.389L933.657 483.058L933.148 483.596C932.784 483.977 932.389 484.384 931.965 484.811C930.145 486.645 928.181 488.478 926.153 490.182C923.611 492.319 921.157 494.092 918.886 495.375C918 495.876 917.152 496.296 916.348 496.63L916.087 496.729C913.394 497.674 901.514 499.973 887.452 502.123L886.93 502.203C868.097 505.066 847.688 507.399 828.751 508.657C778.86 511.971 746.157 507.366 742.383 494.269L741.867 492.46C736.284 472.63 730.711 445.432 726.898 417.334C722.089 381.902 720.263 347.095 722.187 315.486Z" fill="#042A64"/>
<path fill-rule="evenodd" clip-rule="evenodd" d="M946.5 467.2L964.8 538.9C976.7 702.1 750.2 712.5 764.4 515.7L898 532.5L908.5 479.6L946.5 467.2Z" fill="white"/>
<path fill-rule="evenodd" clip-rule="evenodd" d="M907.569 476.748L907.379 476.817C906.444 477.194 905.755 478.019 905.557 479.016L895.601 529.174L764.774 512.724C763.068 512.509 761.531 513.769 761.408 515.484C758.013 562.525 768.048 600.548 789.04 627.158C807.907 651.074 834.862 664.436 863.647 665.299C891.819 666.144 919.196 654.88 938.71 633.84C960.019 610.867 970.66 578.016 967.792 538.682C967.779 538.505 967.751 538.33 967.707 538.158L949.407 466.458C948.978 464.778 947.218 463.81 945.569 464.348L907.569 476.748ZM944.385 471.045L961.825 539.374L961.808 539.118C964.559 576.842 954.45 608.048 934.311 629.76C915.984 649.519 890.281 660.095 863.827 659.302C836.802 658.491 811.51 645.954 793.751 623.442L793.153 622.678C774.146 598.117 764.713 563.271 767.131 519.998L767.185 519.073L897.626 535.477L897.805 535.494C899.297 535.592 900.648 534.569 900.943 533.084L911.1 481.906L944.385 471.045Z" fill="#042A64"/>
<path d="M906.622 453.597L906.622 453.597L909.771 454.443L910.352 451.234C912.26 440.688 915.341 421.123 917.94 404.231C919.241 395.777 920.422 387.98 921.279 382.297C921.683 379.614 922.015 377.402 922.253 375.814L960.054 378.834C960.015 379.095 959.973 379.371 959.929 379.661C959.541 382.229 958.979 385.926 958.286 390.44C956.901 399.469 954.993 411.765 952.9 424.838C948.706 451.044 943.799 480.191 940.881 492.508C937.941 504.914 935.406 513.517 929.956 522.091C924.482 530.701 915.934 539.481 900.614 551.867C885.731 563.899 861.585 573.686 836.843 576.026C812.097 578.366 787.377 573.215 770.745 556.203C753.786 538.856 743.151 512.259 736.762 489.659C733.583 478.414 731.485 468.271 730.182 460.941C729.531 457.277 729.079 454.321 728.791 452.286C728.754 452.027 728.72 451.782 728.689 451.553C736.452 449.132 748.666 447.133 759.578 445.699C765.536 444.917 771.009 444.314 774.994 443.906C776.986 443.703 778.604 443.548 779.723 443.445C780.282 443.393 780.716 443.354 781.01 443.328C781.157 443.315 781.269 443.305 781.343 443.299L781.403 443.294C818.009 441.46 849.349 444.044 871.53 447.085C882.624 448.606 891.421 450.24 897.434 451.492C900.44 452.117 902.75 452.647 904.301 453.019C905.077 453.205 905.664 453.351 906.053 453.45C906.248 453.5 906.393 453.537 906.488 453.562L906.593 453.59L906.617 453.596L906.622 453.597Z" fill="white" stroke="#042A64" stroke-width="6"/>
<path fill-rule="evenodd" clip-rule="evenodd" d="M961.2 389.3C961.2 389.3 982.1 346.1 988.2 310.5C994 277.1 976.4 243.5 945 230.8C918.7 220.1 910.1 223.6 910.1 223.6C910.1 223.6 925.7 195.8 885.1 154.9C870.8 140.5 851 132.5 830.7 133C781 134.3 765.5 176.3 765.5 176.3C765.5 176.3 712.5 78.4 603.3 136C592.3 141.8 579.8 158 573.9 169C537.7 235.3 656.2 314.3 718 320.7C785.9 327.7 828.5 319.3 849.2 301.3C833.8 312.1 861.5 411.5 961.2 389.3Z" fill="#042A64"/>
<path fill-rule="evenodd" clip-rule="evenodd" d="M777.593 408.305C779.732 408.408 781.398 410.174 781.4 412.293L781.395 412.493L778.574 470.999L795.161 465.597C797.196 464.934 799.378 465.99 800.134 467.967L800.203 468.161C800.866 470.196 799.809 472.378 797.833 473.134L797.639 473.203L775.539 480.403C772.936 481.251 770.29 479.295 770.3 476.593L770.305 476.407L773.405 412.107C773.508 409.968 775.274 408.302 777.393 408.3L777.593 408.305Z" fill="#042A64"/>
<path fill-rule="evenodd" clip-rule="evenodd" d="M815.255 355.891C825.369 353.704 834.258 355.849 841.627 360.743C843.495 361.984 845.122 363.315 846.508 364.656L846.916 365.058C847.562 365.706 848.034 366.238 848.328 366.607C849.705 368.335 849.421 370.851 847.693 372.228C845.965 373.605 843.449 373.321 842.072 371.593C841.924 371.408 841.545 370.986 840.944 370.404C839.895 369.389 838.643 368.365 837.201 367.407C831.527 363.639 824.792 362.013 816.945 363.71C814.786 364.177 812.657 362.805 812.19 360.646C811.723 358.486 813.095 356.357 815.255 355.891Z" fill="#042A64"/>
<path fill-rule="evenodd" clip-rule="evenodd" d="M748.965 340.916C752.843 340.122 756.855 340.334 760.701 341.15L761.322 341.288C762.315 341.517 763.089 341.742 763.597 341.916C765.686 342.632 766.8 344.907 766.084 346.997C765.39 349.021 763.234 350.129 761.2 349.546L760.768 349.411C760.707 349.392 760.635 349.372 760.554 349.348C760.113 349.223 759.605 349.096 759.04 348.976C756.18 348.369 753.213 348.212 750.569 348.753C746.815 349.521 744.161 351.579 742.631 355.541C741.835 357.602 739.52 358.627 737.459 357.831C735.398 357.035 734.373 354.72 735.168 352.659C737.73 346.026 742.657 342.206 748.965 340.916Z" fill="#042A64"/>
<path fill-rule="evenodd" clip-rule="evenodd" d="M850.1 488.9C846.6 484.1 812.5 508 825.8 510.2C839.1 512.4 857.6 499.2 850.1 488.9Z" fill="#042A64"/>
<path fill-rule="evenodd" clip-rule="evenodd" d="M707.1 484.5L836.6 440.7C836.6 440.7 853.9 434.1 853.3 411.6C852.7 389.1 824.4 380.7 824.4 380.7L686.3 361.2L707.1 484.5Z" fill="#337AE7"/>
<path fill-rule="evenodd" clip-rule="evenodd" d="M568.5 484.5L698 440.7C698 440.7 715.3 434.1 714.7 411.6C714.1 389.1 685.8 380.7 685.8 380.7L547.7 361.2L568.5 484.5Z" fill="#337AE7"/>
<path fill-rule="evenodd" clip-rule="evenodd" d="M685 488.6C720.291 488.6 748.9 459.991 748.9 424.7C748.9 389.409 720.291 360.8 685 360.8C649.709 360.8 621.1 389.409 621.1 424.7C621.1 459.991 649.709 488.6 685 488.6Z" fill="#042B67"/>
<path fill-rule="evenodd" clip-rule="evenodd" d="M545.4 489.5C580.691 489.5 609.3 460.891 609.3 425.6C609.3 390.309 580.691 361.7 545.4 361.7C510.109 361.7 481.5 390.309 481.5 425.6C481.5 460.891 510.109 489.5 545.4 489.5Z" fill="#042B67"/>
<path fill-rule="evenodd" clip-rule="evenodd" d="M573.1 352.4C588.9 324.2 658.4 314.8 671.3 316.8C684.2 318.7 671.5 345.1 616 350C616 350 599 350.3 590.3 357.8" fill="white"/>
<path fill-rule="evenodd" clip-rule="evenodd" d="M622.51 320.377L623.747 320.05C642.364 315.187 663.346 312.659 671.471 313.793L671.737 313.832C676.437 314.524 679.284 317.862 678.895 322.358C678.56 326.235 675.854 330.519 671.277 334.531C660.774 343.737 642.049 350.596 617.098 352.913L616.264 352.988L615.222 353.032C615.11 353.038 614.988 353.045 614.858 353.053C613.861 353.112 612.746 353.206 611.544 353.344C608.117 353.736 604.695 354.392 601.532 355.367C597.691 356.55 594.524 358.119 592.259 360.072C591.004 361.154 589.109 361.014 588.028 359.759C586.946 358.504 587.086 356.609 588.341 355.528C591.316 352.963 595.197 351.04 599.766 349.632C603.319 348.538 607.093 347.814 610.862 347.383L611.966 347.265C612.687 347.194 613.374 347.137 614.024 347.094L614.925 347.04L615.831 347.002L616.549 346.938C640.058 344.755 657.469 338.45 666.997 330.301L667.323 330.019C670.841 326.935 672.736 323.933 672.917 321.841C673.024 320.608 672.514 320.011 670.84 319.764C663.788 318.671 642.906 321.184 624.659 326.014L624.065 326.172C599.962 332.64 582.27 342.171 575.717 353.866C574.907 355.312 573.079 355.827 571.634 355.017C570.188 354.207 569.673 352.379 570.483 350.934C578.054 337.419 596.965 327.232 622.51 320.377Z" fill="#042A64"/>
<path fill-rule="evenodd" clip-rule="evenodd" d="M595.4 343.1C624.6 329.1 686.8 361.6 696.2 370.6C705.7 379.6 680 393.8 631.9 365.9C631.9 365.9 617.8 356.4 606.4 357.5" fill="white"/>
<path fill-rule="evenodd" clip-rule="evenodd" d="M594.103 340.395C608.094 333.687 629.415 336.264 654.261 345.409L655.458 345.855C673.63 352.682 692.457 362.863 698.263 368.422C701.721 371.698 702.132 376.069 699.217 379.521C696.707 382.493 692.023 384.431 685.965 385.071C672.069 386.537 652.816 381.366 631.127 368.917L630.395 368.495L629.73 368.068L629.182 367.726C628.891 367.547 628.576 367.358 628.239 367.159C626.623 366.209 624.841 365.258 622.951 364.372C619 362.519 615.129 361.209 611.588 360.674C609.827 360.408 608.186 360.341 606.688 360.486C605.039 360.645 603.573 359.437 603.414 357.788C603.255 356.139 604.463 354.673 606.112 354.514C608.131 354.319 610.259 354.405 612.484 354.741C616.673 355.374 621.066 356.861 625.498 358.939C627.568 359.91 629.512 360.948 631.28 361.987L632.028 362.434C632.567 362.76 633.003 363.035 633.327 363.246L633.476 363.345L634.111 363.712C654.548 375.443 672.412 380.314 684.906 379.146L685.335 379.104C689.995 378.612 693.279 377.253 694.633 375.65C695.428 374.708 695.355 373.932 694.125 372.767L693.769 372.436C688.145 367.379 670.039 357.678 652.764 351.253L652.189 351.04C628.748 342.412 608.802 340.001 596.697 345.805C595.203 346.521 593.411 345.891 592.695 344.397C591.979 342.903 592.609 341.111 594.103 340.395Z" fill="#042A64"/>
<path fill-rule="evenodd" clip-rule="evenodd" d="M564.2 343.1C593.4 329.1 655.6 361.6 665 370.6C674.5 379.6 648.8 393.8 600.7 365.9C600.7 365.9 586.6 356.4 575.2 357.5" fill="white"/>
<path fill-rule="evenodd" clip-rule="evenodd" d="M562.903 340.395C576.893 333.687 598.215 336.264 623.061 345.409L624.258 345.855C642.43 352.682 661.257 362.863 667.063 368.422C670.521 371.698 670.932 376.069 668.017 379.521C665.507 382.493 660.823 384.431 654.765 385.071C640.869 386.537 621.616 381.366 599.927 368.917L599.195 368.495L598.53 368.068L597.981 367.726C597.691 367.547 597.376 367.358 597.038 367.159C595.423 366.209 593.641 365.258 591.751 364.372C587.8 362.519 583.929 361.209 580.388 360.674C578.627 360.408 576.986 360.341 575.488 360.486C573.839 360.645 572.373 359.437 572.214 357.788C572.055 356.139 573.263 354.673 574.912 354.514C576.931 354.319 579.059 354.405 581.284 354.741C585.473 355.374 589.866 356.861 594.298 358.939C596.368 359.91 598.312 360.948 600.08 361.987L600.828 362.434C601.367 362.76 601.803 363.035 602.127 363.246L602.276 363.345L602.911 363.712C623.348 375.443 641.212 380.314 653.706 379.146L654.135 379.104C658.795 378.612 662.079 377.253 663.433 375.65C664.228 374.708 664.155 373.932 662.925 372.767L662.569 372.436C656.945 367.379 638.839 357.678 621.564 351.253L620.989 351.04C597.548 342.412 577.602 340.001 565.497 345.805C564.003 346.521 562.211 345.891 561.495 344.397C560.778 342.903 561.409 341.111 562.903 340.395Z" fill="#042A64"/>
<path fill-rule="evenodd" clip-rule="evenodd" d="M538.5 344.8C567.7 330.8 629.9 363.3 639.3 372.3C648.8 381.3 623.1 395.5 575 367.6C575 367.6 560.9 358.1 549.5 359.2" fill="white"/>
<path fill-rule="evenodd" clip-rule="evenodd" d="M537.203 342.095C551.194 335.387 572.515 337.964 597.361 347.11L598.558 347.555C616.73 354.382 635.557 364.563 641.363 370.122C644.821 373.398 645.232 377.769 642.317 381.222C639.807 384.193 635.123 386.131 629.065 386.771C615.169 388.238 595.916 383.066 574.227 370.617L573.495 370.195L572.83 369.769L572.282 369.426C571.991 369.247 571.676 369.058 571.339 368.86C569.723 367.91 567.941 366.958 566.051 366.072C562.1 364.219 558.229 362.909 554.688 362.374C552.927 362.108 551.286 362.041 549.788 362.186C548.139 362.345 546.673 361.137 546.514 359.488C546.355 357.839 547.563 356.373 549.212 356.214C551.231 356.019 553.359 356.105 555.584 356.441C559.773 357.074 564.166 358.561 568.598 360.639C570.668 361.61 572.612 362.648 574.38 363.688L575.128 364.134C575.667 364.46 576.103 364.735 576.427 364.947L576.576 365.045L577.211 365.412C597.648 377.143 615.512 382.014 628.006 380.847L628.435 380.804C633.095 380.312 636.379 378.953 637.733 377.35C638.528 376.409 638.455 375.632 637.225 374.467L636.869 374.137C631.245 369.079 613.139 359.378 595.864 352.953L595.289 352.74C571.848 344.112 551.902 341.701 539.797 347.505C538.303 348.221 536.511 347.591 535.795 346.097C535.079 344.603 535.709 342.811 537.203 342.095Z" fill="#042A64"/>
<path fill-rule="evenodd" clip-rule="evenodd" d="M1513.7 159.9C1489.3 148.6 1459.7 157.8 1447.5 180.5L1374 317.4L1419.9 104.7C1425.3 79.9002 1407.9 55.7002 1381.2 50.7002C1354.5 45.7002 1328.5 61.8002 1323.1 86.6002L1268.5 307.4L1274.6 51.2002C1275.4 25.9002 1254 4.80024 1226.7 4.00024C1199.5 3.20024 1176.7 23.2002 1175.9 48.5002L1167.7 306.3L1120.3 86.7002C1114.9 61.9002 1088.9 45.8002 1062.2 50.8002C1035.5 55.8002 1018.1 79.9002 1023.5 104.8L1069.4 317.5L995.9 180.6C983.7 157.9 954.1 148.7 929.7 160C905.3 171.3 895.4 198.8 907.6 221.5L1058.4 502.3L1396.8 480.6L1536 221.5C1548 198.7 1538.1 171.2 1513.7 159.9Z" fill="white"/>
<path fill-rule="evenodd" clip-rule="evenodd" d="M1172.9 48.4052L1165.48 281.787L1123.23 86.0671C1117.54 59.9139 1090.47 42.8987 1062.49 47.6996L1061.67 47.8472L1060.82 48.0128C1032.92 53.6776 1014.87 79.1462 1020.57 105.436L1061.98 297.335L998.543 179.181C985.724 155.33 954.915 145.502 929.215 156.926L928.46 157.268C902.493 169.294 891.928 198.677 904.957 222.92L1055.76 503.719C1056.31 504.754 1057.42 505.369 1058.59 505.294L1396.99 483.594C1398.03 483.528 1398.95 482.932 1399.44 482.02L1538.64 222.92C1551.34 198.803 1541.11 169.776 1515.73 157.541L1514.98 157.188L1514.2 156.835C1488.51 145.416 1457.69 155.203 1444.86 179.08L1381.42 297.235L1422.83 105.333C1428.53 79.1506 1410.49 53.5784 1382.59 47.9157L1381.77 47.7556L1380.93 47.6035C1352.96 42.805 1325.87 59.784 1320.17 85.9618L1272.15 280.14L1277.6 51.2714C1278.44 24.5793 1256.18 2.29714 1227.65 1.03304L1226.81 1.00206C1197.99 0.154337 1173.76 21.3928 1172.9 48.4052ZM1226.61 6.99873L1227.41 7.02807C1252.47 8.13892 1271.95 27.386 1271.62 50.4065L1265.5 307.329C1265.42 310.913 1270.55 311.6 1271.41 308.12L1326.01 87.3202C1331.08 64.0528 1355.52 48.9427 1380.65 53.6488L1381.42 53.8002C1406.11 58.8114 1421.94 81.2441 1416.97 104.062L1371.07 316.767C1370.33 320.164 1375 321.881 1376.64 318.819L1450.14 181.919C1461.58 160.647 1489.45 151.976 1512.44 162.622L1513.15 162.956L1513.81 163.284C1535.67 174.235 1544.31 199.274 1533.35 220.103L1394.94 477.713L1060.13 499.183L910.243 220.081C898.879 198.937 908.092 173.313 930.961 162.722L931.673 162.399C954.532 152.239 981.952 160.985 993.257 182.02L1066.76 318.919C1068.4 321.981 1073.07 320.264 1072.33 316.867L1026.43 104.167C1021.41 81.0143 1037.62 58.4561 1062.75 53.7488L1063.53 53.6092C1088.4 49.3414 1112.38 64.4127 1117.37 87.3383L1164.77 306.933C1165.51 310.392 1170.59 309.932 1170.7 306.395L1178.9 48.5954C1179.64 24.9877 1201.03 6.24634 1226.61 6.99873Z" fill="#042A64"/>
<mask id="path-47-inside-1_1_2" fill="white">
<path fill-rule="evenodd" clip-rule="evenodd" d="M1360.9 490L1440 316.1C1451.9 289.9 1443.2 256.8 1420.6 242.1C1398 227.4 1370 236.6 1358.1 262.8L1310.9 366.4L1336.1 250.2C1342.4 221.3 1327.3 191.3 1302.5 183.1C1277.7 174.9 1252.5 191.7 1246.3 220.6L1221.3 335.7L1208.1 221.1C1204.7 191.2 1181.3 169.6 1156 172.8C1130.7 176 1112.9 202.8 1116.3 232.6L1129.9 350.9L1100.1 274C1089.4 246.4 1061.9 233.5 1038.7 245.3C1015.5 257.1 1005.3 289 1016 316.6L1083 489.6"/>
</mask>
<path fill-rule="evenodd" clip-rule="evenodd" d="M1360.9 490L1440 316.1C1451.9 289.9 1443.2 256.8 1420.6 242.1C1398 227.4 1370 236.6 1358.1 262.8L1310.9 366.4L1336.1 250.2C1342.4 221.3 1327.3 191.3 1302.5 183.1C1277.7 174.9 1252.5 191.7 1246.3 220.6L1221.3 335.7L1208.1 221.1C1204.7 191.2 1181.3 169.6 1156 172.8C1130.7 176 1112.9 202.8 1116.3 232.6L1129.9 350.9L1100.1 274C1089.4 246.4 1061.9 233.5 1038.7 245.3C1015.5 257.1 1005.3 289 1016 316.6L1083 489.6" fill="white"/>
<path d="M1440 316.1L1445.46 318.584L1445.46 318.581L1440 316.1ZM1358.1 262.8L1363.56 265.288L1363.56 265.281L1358.1 262.8ZM1310.9 366.4L1305.04 365.128L1316.36 368.888L1310.9 366.4ZM1336.1 250.2L1330.24 248.922L1330.24 248.928L1336.1 250.2ZM1246.3 220.6L1252.16 221.874L1252.16 221.866L1252.17 221.859L1246.3 220.6ZM1221.3 335.7L1215.34 336.387L1227.16 336.974L1221.3 335.7ZM1208.1 221.1L1202.14 221.778L1202.14 221.787L1208.1 221.1ZM1116.3 232.6L1110.34 233.28L1110.34 233.285L1116.3 232.6ZM1129.9 350.9L1124.31 353.068L1135.86 350.215L1129.9 350.9ZM1100.1 274L1105.69 271.832L1105.69 271.831L1100.1 274ZM1016 316.6L1021.6 314.433L1021.59 314.431L1016 316.6ZM1366.36 492.484L1445.46 318.584L1434.54 313.616L1355.44 487.516L1366.36 492.484ZM1445.46 318.581C1458.47 289.947 1449.2 253.542 1423.87 237.07L1417.33 247.13C1437.2 260.058 1445.33 289.854 1434.54 313.619L1445.46 318.581ZM1423.87 237.07C1397.84 220.136 1365.87 231.175 1352.64 260.319L1363.56 265.281C1374.13 242.025 1398.16 234.664 1417.33 247.13L1423.87 237.07ZM1352.64 260.312L1305.44 363.912L1316.36 368.888L1363.56 265.288L1352.64 260.312ZM1316.76 367.672L1341.96 251.472L1330.24 248.928L1305.04 365.128L1316.76 367.672ZM1341.96 251.478C1348.79 220.157 1332.63 186.743 1304.38 177.403L1300.62 188.797C1321.97 195.857 1336.01 222.443 1330.24 248.922L1341.96 251.478ZM1304.38 177.403C1275.44 167.834 1247.21 187.774 1240.43 219.341L1252.17 221.859C1257.79 195.626 1279.96 181.966 1300.62 188.797L1304.38 177.403ZM1240.44 219.326L1215.44 334.426L1227.16 336.974L1252.16 221.874L1240.44 219.326ZM1227.26 335.013L1214.06 220.413L1202.14 221.787L1215.34 336.387L1227.26 335.013ZM1214.06 220.422C1210.39 188.153 1184.74 163.117 1155.25 166.847L1156.75 178.753C1177.86 176.083 1199.01 194.247 1202.14 221.778L1214.06 220.422ZM1155.25 166.847C1125.84 170.567 1106.67 201.14 1110.34 233.28L1122.26 231.92C1119.13 204.46 1135.56 181.433 1156.75 178.753L1155.25 166.847ZM1110.34 233.285L1123.94 351.585L1135.86 350.215L1122.26 231.915L1110.34 233.285ZM1135.49 348.732L1105.69 271.832L1094.51 276.168L1124.31 353.068L1135.49 348.732ZM1105.69 271.831C1094.03 241.751 1063.09 226.163 1035.98 239.952L1041.42 250.648C1060.71 240.837 1084.77 251.049 1094.51 276.169L1105.69 271.831ZM1035.98 239.952C1009.51 253.416 998.82 288.884 1010.41 318.769L1021.59 314.431C1011.78 289.116 1021.49 260.784 1041.42 250.648L1035.98 239.952ZM1010.4 318.767L1077.4 491.767L1088.6 487.433L1021.6 314.433L1010.4 318.767Z" fill="#337AE7" mask="url(#path-47-inside-1_1_2)"/>
<path d="M1037.62 532.412L1037.08 530.1H1034.7H1008.7C1002.36 530.1 997.2 524.943 997.2 518.6V465.5C997.2 459.157 1002.36 454 1008.7 454H1431.7C1438.06 454 1443.16 459.155 1443 465.425L1443 465.463V465.5V518.6C1443 524.943 1437.84 530.1 1431.5 530.1H1407.2H1404.82L1404.28 532.412L1332.92 835.3H1108.98L1037.62 532.412Z" fill="white" stroke="#042B67" stroke-width="6"/>
<path fill-rule="evenodd" clip-rule="evenodd" d="M1313.9 720.3C1298.6 701.4 1276.1 670.5 1291.3 664C1306.5 657.5 1306.3 673.9 1329.2 689.5C1352.2 705.1 1373.6 708.1 1396.4 736.5" fill="white"/>
<path fill-rule="evenodd" clip-rule="evenodd" d="M1290.12 661.241C1296.86 658.359 1301.79 659.156 1306.6 663.432C1307.71 664.418 1308.81 665.555 1310.21 667.15L1311.09 668.162C1311.9 669.123 1314.47 672.133 1315.41 673.197C1319.64 677.983 1323.65 681.787 1328.73 685.496C1329.43 686.011 1330.15 686.519 1330.88 687.017L1331.85 687.665C1337.34 691.336 1341.86 693.834 1351.85 698.973L1355.61 700.907C1360.43 703.398 1363.33 704.963 1366.61 706.884C1379.06 714.174 1388.96 722.435 1398.74 734.622C1399.78 735.914 1399.57 737.802 1398.28 738.839C1396.99 739.876 1395.1 739.67 1394.06 738.378C1384.95 727.031 1375.81 719.324 1364.31 712.496L1362.94 711.694C1359.91 709.935 1357.07 708.407 1352.35 705.977L1347.38 703.419C1337.81 698.475 1333.39 695.967 1327.51 691.979C1326.72 691.441 1325.95 690.895 1325.19 690.34C1319.96 686.523 1315.79 682.612 1311.5 677.827L1310.48 676.669C1309.06 675.037 1306.28 671.774 1306.29 671.786L1305.73 671.141C1304.47 669.704 1303.52 668.717 1302.62 667.918C1299.54 665.186 1297.09 664.788 1292.48 666.758C1287.83 668.748 1288.15 675.154 1293.83 686.122C1298.56 695.266 1306.25 706.084 1316.23 718.412C1317.27 719.7 1317.08 721.589 1315.79 722.632C1314.5 723.674 1312.61 723.475 1311.57 722.187L1310.28 720.585C1300.68 708.625 1293.25 698.065 1288.5 688.878C1285.31 682.718 1283.5 677.436 1283.27 673.035C1282.99 667.528 1285.25 663.324 1290.12 661.241Z" fill="#042A64"/>
<path fill-rule="evenodd" clip-rule="evenodd" d="M1301.4 705.3C1262.3 684 1205.4 682.8 1191.8 683.4C1171.3 684.3 1183.9 725.7 1284.7 735.5C1284.7 735.5 1311.2 738.8 1323.6 751.8" fill="white"/>
<path fill-rule="evenodd" clip-rule="evenodd" d="M1191.67 680.403L1192.76 680.36C1203.49 679.989 1220.59 680.827 1237.45 683.166C1262.5 686.641 1285.02 692.958 1302.84 702.666C1304.29 703.458 1304.83 705.28 1304.03 706.735C1303.24 708.19 1301.42 708.727 1299.96 707.934C1283.15 698.775 1261.72 692.692 1237.8 689.275L1236.63 689.109C1219.55 686.74 1202.21 685.943 1191.93 686.397C1188.34 686.555 1186.57 688.101 1186.49 690.633C1186.39 694.07 1189.14 698.896 1194.75 703.867C1210.06 717.438 1240.8 728.218 1285.07 732.523L1285.62 732.597C1286.01 732.652 1286.51 732.73 1287.13 732.831C1288.72 733.094 1290.49 733.43 1292.4 733.846C1297.84 735.037 1303.3 736.639 1308.41 738.718C1315.58 741.633 1321.5 745.256 1325.77 749.729C1326.91 750.928 1326.87 752.827 1325.67 753.971C1324.47 755.114 1322.57 755.07 1321.43 753.871C1317.83 750.098 1312.6 746.898 1306.15 744.276C1301.38 742.339 1296.25 740.83 1291.12 739.708C1289.54 739.363 1288.07 739.078 1286.72 738.847L1286.15 738.751C1285.74 738.683 1285.36 738.624 1285.03 738.575L1284.41 738.486C1239.07 734.078 1207.17 722.89 1190.77 708.358C1183.96 702.317 1180.33 695.961 1180.49 690.451C1180.67 684.565 1185.12 680.69 1191.67 680.403Z" fill="#042A64"/>
<path fill-rule="evenodd" clip-rule="evenodd" d="M1319.6 760.7C1297.9 714.7 1192.8 698.4 1172.4 700C1152 701.6 1166.1 745.4 1252.4 759.1C1252.4 759.1 1279 761.5 1291.8 774.1" fill="white"/>
<path fill-rule="evenodd" clip-rule="evenodd" d="M1172.17 697.009C1185.33 695.977 1218.45 701.104 1246.39 709.63C1284.61 721.295 1312.17 737.908 1322.31 759.42C1323.02 760.918 1322.38 762.706 1320.88 763.413C1319.38 764.12 1317.59 763.478 1316.89 761.98C1307.67 742.432 1281.37 726.58 1244.64 715.369L1242.99 714.874C1216.07 706.845 1184.69 702.045 1172.63 702.99C1165.13 703.579 1164.75 712.216 1174.6 722.988C1187.94 737.569 1214.44 749.873 1251.74 755.954L1252.78 756.122L1253.4 756.188C1253.65 756.215 1253.94 756.249 1254.26 756.289L1254.77 756.355C1256.4 756.567 1258.21 756.849 1260.15 757.208C1265.72 758.236 1271.29 759.685 1276.51 761.637C1283.63 764.297 1289.56 767.689 1293.9 771.962C1295.09 773.124 1295.1 775.023 1293.94 776.204C1292.78 777.385 1290.88 777.4 1289.7 776.238C1286.04 772.638 1280.81 769.647 1274.41 767.258C1269.55 765.441 1264.31 764.077 1259.06 763.108C1257.45 762.811 1255.95 762.571 1254.57 762.382L1253.99 762.304C1253.67 762.263 1253.38 762.226 1253.11 762.194L1252.13 762.088L1251.93 762.063C1212.8 755.85 1184.66 742.879 1170.17 727.037C1164.09 720.382 1160.91 713.576 1161.16 707.852C1161.43 701.687 1165.66 697.519 1172.17 697.009Z" fill="#042A64"/>
<path fill-rule="evenodd" clip-rule="evenodd" d="M1327.7 798.3C1307.1 751.8 1203.4 729.8 1182.9 730.9C1162.4 732 1172.7 780.5 1258.6 796.3C1258.6 796.3 1285.1 799.3 1297.6 812.2" fill="white"/>
<path fill-rule="evenodd" clip-rule="evenodd" d="M1182.74 727.904C1195.6 727.214 1228.41 733.9 1256.28 743.927C1293.8 757.425 1320.81 775.349 1330.44 797.085C1331.11 798.6 1330.43 800.372 1328.92 801.043C1327.4 801.714 1325.63 801.03 1324.96 799.515C1316.18 779.696 1290.35 762.561 1254.25 749.573C1227.06 739.793 1194.98 733.256 1183.06 733.896C1175.34 734.31 1174.18 744.279 1183.24 756.28C1195.43 772.414 1221.01 786.154 1258.02 793.14L1259.05 793.332L1259.66 793.41C1259.9 793.443 1260.19 793.483 1260.5 793.53L1261.01 793.606C1262.61 793.852 1264.39 794.17 1266.3 794.568C1271.78 795.705 1277.26 797.258 1282.4 799.298C1289.55 802.134 1295.47 805.691 1299.75 810.112C1300.91 811.302 1300.88 813.201 1299.69 814.354C1298.5 815.507 1296.6 815.478 1295.45 814.288C1291.83 810.561 1286.61 807.423 1280.18 804.875C1275.4 802.975 1270.24 801.514 1265.08 800.442C1263.5 800.114 1262.02 799.843 1260.67 799.626L1260.09 799.536C1259.68 799.472 1259.3 799.417 1258.96 799.371L1258.26 799.281L1258.06 799.25C1219.07 792.08 1191.76 777.514 1178.46 759.895C1172.92 752.561 1170.31 745.123 1171.02 739.015C1171.77 732.551 1176.22 728.254 1182.74 727.904Z" fill="#042A64"/>
<path fill-rule="evenodd" clip-rule="evenodd" d="M1342.9 832.4C1320.5 789.6 1220.2 760.1 1200.9 762.4C1181.6 764.7 1197.7 799.3 1289.5 826.8" fill="white"/>
<path fill-rule="evenodd" clip-rule="evenodd" d="M1200.55 759.421C1211.74 758.086 1243.2 765.935 1271.88 777.712C1307.96 792.528 1335.08 810.987 1345.56 831.009C1346.33 832.477 1345.76 834.29 1344.29 835.058C1342.82 835.826 1341.01 835.259 1340.24 833.791C1330.6 815.364 1304.47 797.584 1269.6 783.263L1267.93 782.582C1240.59 771.547 1210.95 764.223 1201.26 765.379C1197.9 765.779 1196.56 767.112 1196.69 769.393C1196.88 772.699 1199.86 777.543 1205.6 782.97C1220.42 796.988 1249.39 811.653 1290.36 823.926C1291.95 824.402 1292.85 826.074 1292.37 827.661C1291.9 829.248 1290.23 830.149 1288.64 829.674C1246.85 817.155 1217.08 802.085 1201.48 787.33C1194.73 780.952 1190.99 774.878 1190.7 769.738C1190.37 764.028 1194.25 760.171 1200.55 759.421Z" fill="#042A64"/>
<path fill-rule="evenodd" clip-rule="evenodd" d="M1391.3 729.1C1351.8 710.9 1315.2 695.1 1297.4 710.6C1278.8 726.9 1258 781.2 1285.9 821.1" fill="white"/>
<path fill-rule="evenodd" clip-rule="evenodd" d="M1289.4 826.8C1478.2 878.3 1465.9 714.8 1302.6 704.6L1289.4 826.8Z" fill="white"/>
<path fill-rule="evenodd" clip-rule="evenodd" d="M1302.79 701.606C1341.73 704.038 1374.46 715.258 1397.79 732.843C1419.08 748.894 1431.1 769.409 1431.04 788.847C1430.97 808.872 1418.17 825.362 1395.1 833.689C1369.74 842.841 1333.46 841.928 1288.61 829.694C1287.01 829.258 1286.07 827.609 1286.51 826.01C1286.94 824.412 1288.59 823.469 1290.19 823.905C1333.95 835.842 1369.01 836.724 1393.06 828.045C1413.85 820.539 1424.98 806.213 1425.04 788.828C1425.09 771.454 1414.06 752.625 1394.17 737.634C1371.83 720.789 1340.23 709.956 1302.41 707.594C1300.76 707.491 1299.5 706.066 1299.61 704.413C1299.71 702.818 1301.03 701.593 1302.61 701.6L1302.79 701.606Z" fill="#042A64"/>
<path fill-rule="evenodd" clip-rule="evenodd" d="M1694.8 835.9C1696.46 835.9 1697.8 837.243 1697.8 838.9C1697.8 840.498 1696.55 841.804 1694.98 841.895L1694.8 841.9H3.19995C1.5431 841.9 0.199951 840.557 0.199951 838.9C0.199951 837.302 1.44887 835.996 3.02368 835.905L3.19995 835.9H1694.8Z" fill="#042A64"/>
</g>
<defs>
<clipPath id="clip0_1_2">
<rect width="1698" height="842" fill="white"/>
</clipPath>
</defs>
</svg>
